<?xml version="1.0" standalone="no"?>
<!DOCTYPE svg PUBLIC "-//W3C//DTD SVG 1.1//EN" "http://www.w3.org/Graphics/SVG/1.1/DTD/svg11.dtd" >
<svg>
<metadata>
Created by FontForge 20090914 at Fri May 17 10:32:45 2013
 By www-data
Copyright (c) 1989 Adobe Systems Incorporated.  All Rights Reserved.Avenir is a registered trademark of Linotype AG and/or its subsidiaries.
</metadata>
<defs>
<font id="Avenir-Black" horiz-adv-x="260" >
  <font-face 
    font-family="Avenir Black"
    font-weight="900"
    font-stretch="normal"
    units-per-em="1000"
    panose-1="0 0 9 0 0 0 0 0 0 0"
    ascent="800"
    descent="-200"
    x-height="486"
    cap-height="708"
    bbox="-161 -240.002 1135 953.002"
    underline-thickness="50"
    underline-position="-75"
    unicode-range="U+0020-U+F002"
  />
<missing-glyph horiz-adv-x="500" 
d="M63 0v767h375v-767h-375zM125 63h250v642h-250v-642z" />
    <glyph glyph-name=".notdef" horiz-adv-x="500" 
d="M63 0v767h375v-767h-375zM125 63h250v642h-250v-642z" />
    <glyph glyph-name="space" unicode=" " horiz-adv-x="296" 
 />
    <glyph glyph-name="exclam" unicode="!" horiz-adv-x="444" 
d="M297 708v-474h-150v474h150zM130 86c0 25.333 9 47 27 65s39.667 27 65 27s47 -9 65 -27s27 -39.667 27 -65s-9 -47 -27 -65s-39.667 -27 -65 -27s-47 9 -65 27s-27 39.667 -27 65z" />
    <glyph glyph-name="quotedbl" unicode="&#x22;" horiz-adv-x="520" 
d="M313 426v282h126v-282h-126zM81 426v282h126v-282h-126z" />
    <glyph glyph-name="numbersign" unicode="#" horiz-adv-x="592" 
d="M101 0l28 201h-84v90h96l17 126h-84v90h96l28 201h97l-28 -201h99l28 201h97l-28 -201h84v-90h-96l-17 -126h84v-90h-96l-28 -201h-97l28 201h-99l-28 -201h-97zM337 291l17 126h-99l-17 -126h99z" />
    <glyph glyph-name="dollar" unicode="$" horiz-adv-x="592" 
d="M328 790l-0.00195312 -69.9961c90 0 161.333 -21 214 -63l-96 -117c-29.333 26 -68.666 40 -117.999 42v-159l96 -28c96.667 -28 145 -88.333 145 -181c0 -66.667 -23.667 -120.334 -71 -161.001c-43.333 -36.667 -100 -58.334 -170 -65.001v-70h-66v70
c-105.333 0 -187.666 27 -246.999 81l106 119c30 -36.667 77 -57.334 141 -62.001v169l-73 22c-103.333 31.333 -155 93.666 -155 186.999c0 60 23.333 110 70 150c42 36.667 94.667 58.667 158 66v70h66zM261.998 439.004v140c-48 -10.667 -72 -33.334 -72 -68.001
c0 -25.333 10 -44 30 -56c2 -1.33301 16 -6.66602 42 -15.999zM327.998 278.004v-149.999c56.667 11.333 85 36 85 74c0 19.333 -6.66699 34.666 -20 45.999c-8.66699 7.33301 -24 15 -46 23z" />
    <glyph glyph-name="percent" unicode="%" horiz-adv-x="907" 
d="M508 187c0 54.667 19.167 101.334 57.5 140.001s84.833 58 139.5 58s101.167 -19.333 139.5 -58s57.5 -85.334 57.5 -140.001c0 -55.333 -19.167 -102.333 -57.5 -141s-84.833 -58 -139.5 -58s-101.167 19.333 -139.5 58s-57.5 85.667 -57.5 141zM800 187
c0 26.667 -9.16699 49.334 -27.5 68.001s-40.833 28 -67.5 28s-49.167 -9.33301 -67.5 -28s-27.5 -41.334 -27.5 -68.001c0 -27.333 9.16699 -50.333 27.5 -69s40.833 -28 67.5 -28s49.167 9.33301 67.5 28s27.5 41.667 27.5 69zM5 522
c0 54.667 19.167 101.334 57.5 140.001s84.833 58 139.5 58s101.167 -19.333 139.5 -58s57.5 -85.334 57.5 -140.001s-19.167 -101.334 -57.5 -140.001s-84.833 -58 -139.5 -58s-101.167 19.333 -139.5 58s-57.5 85.334 -57.5 140.001zM297 522
c0 26.667 -9.16699 49.334 -27.5 68.001s-40.833 28 -67.5 28s-49.167 -9.33301 -67.5 -28s-27.5 -41.334 -27.5 -68.001s9.16699 -49.334 27.5 -68.001s40.833 -28 67.5 -28s49.167 9.33301 67.5 28s27.5 41.334 27.5 68.001zM210 11l405 729l84 -47l-413 -725z" />
    <glyph glyph-name="ampersand" unicode="&#x26;" horiz-adv-x="759" 
d="M744 365l-148.999 -198.001l158 -167h-193l-59 67c-54.667 -56.667 -124 -85 -208 -85c-69.333 0 -127 17.667 -173 53c-52 38.667 -78 91.667 -78 159c0 44 14.667 84 44 120c27.333 34 62.666 58.333 105.999 73c-27.333 30 -46 54 -56 72c-14.667 26 -22 55 -22 87
c0 60 22.667 106 68 138c40 28 91 42 153 42c58.667 0 106.667 -14 144 -42c41.333 -31.333 62 -75.333 62 -132c0 -77.333 -43.667 -138.666 -131 -183.999l91 -97l69 94h174zM333.001 605.999c-20 0 -36.5 -6 -49.5 -18s-19.5 -28 -19.5 -48c0 -23.333 19.667 -53 59 -89
c53.333 30.667 80 61 80 91c0 20 -6.66699 35.667 -20 47s-30 17 -50 17zM410.001 165.999l-125.001 135.998c-27.333 -16.667 -45.666 -30 -54.999 -40c-17.333 -17.333 -26 -37.666 -26 -60.999c0 -25.333 9.5 -46.166 28.5 -62.499s41.167 -24.5 66.5 -24.5
c34.667 0 71.667 17.333 111 52z" />
    <glyph glyph-name="quotesingle" unicode="'" horiz-adv-x="296" 
d="M85 426v282h126v-282h-126z" />
    <glyph glyph-name="parenleft" unicode="(" horiz-adv-x="314" 
d="M190 732l103 -59.999c-44.667 -70 -76.334 -130.333 -95.001 -181c-22.667 -62.667 -34 -130.334 -34 -203.001s11.333 -140 34 -202c18.667 -51.333 50.334 -112 95.001 -182l-103 -60l-2 4c-96 142 -144 288.667 -144 440s48 298 144 440z" />
    <glyph glyph-name="parenright" unicode=")" horiz-adv-x="314" 
d="M124 -156l-103 59.999c44.667 70 76.334 130.667 95.001 182c22.667 62 34 129.333 34 202s-11.333 140.334 -34 203.001c-18.667 50.667 -50.334 111 -95.001 181l103 60l2 -4c96 -142 144 -288.667 144 -440s-48 -298 -144 -440z" />
    <glyph glyph-name="asterisk" unicode="*" horiz-adv-x="482" 
d="M293 708v-138l131 43l30 -95l-131 -42l83 -114l-83 -61l-84 115l-81 -110l-81 61l84 109l-133 46l32 95l131 -47v138h102z" />
    <glyph glyph-name="plus" unicode="+" horiz-adv-x="666" 
d="M59 240v126h211v211h126v-211h211v-126h-211v-211h-126v211h-211z" />
    <glyph glyph-name="comma" unicode="," horiz-adv-x="296" 
d="M17 -120l74 282h144l-90 -282h-128z" />
    <glyph glyph-name="hyphen" unicode="-" horiz-adv-x="296" 
d="M271 309v-120h-246v120h246z" />
    <glyph glyph-name="hyphen" unicode="&#x2010;" horiz-adv-x="296" 
d="M271 309v-120h-246v120h246z" />
    <glyph glyph-name="period" unicode="." horiz-adv-x="296" 
d="M56 86c0 25.333 9 47 27 65s39.667 27 65 27s47 -9 65 -27s27 -39.667 27 -65s-9 -47 -27 -65s-39.667 -27 -65 -27s-47 9 -65 27s-27 39.667 -27 65z" />
    <glyph glyph-name="slash" unicode="/" horiz-adv-x="407" 
d="M-3 -18l299 779l114 -35l-300 -779z" />
    <glyph glyph-name="zero" unicode="0" horiz-adv-x="592" 
d="M33 354c0 101.333 17.667 183.333 53 246c44.667 80 114.667 120 210 120s165.333 -40 210 -120c35.333 -62.667 53 -144.667 53 -246s-17.667 -183.333 -53 -246c-44.667 -80 -114.667 -120 -210 -120s-165.333 40 -210 120c-35.333 62.667 -53 144.667 -53 246z
M183 354c0 -152 37.667 -228 113 -228s113 76 113 228s-37.667 228 -113 228s-113 -76 -113 -228z" />
    <glyph glyph-name="one" unicode="1" horiz-adv-x="592" 
d="M288 0v540l-142 -125l-85 98l231 195h140v-708h-144z" />
    <glyph glyph-name="two" unicode="2" horiz-adv-x="592" 
d="M49 0l0.000976562 159l275 247c42 38 63 71 63 99c0 23.333 -8.5 42 -25.5 56s-37.5 21 -61.5 21c-26.667 0 -48.167 -8.33301 -64.5 -25s-25.5 -38.334 -27.5 -65.001l-150 11c4.66699 70.667 30 125 76 163c44 36 102 54 174 54c67.333 0 121.666 -17.667 162.999 -53
c44 -38 66 -91.333 66 -160c0 -73.333 -31 -136.666 -93 -189.999l-215 -185h314v-132h-494z" />
    <glyph glyph-name="three" unicode="3" horiz-adv-x="592" 
d="M216 299l0.000976562 130.001h49c76 0 114 26.333 114 79c0 21.333 -8.5 39 -25.5 53s-37.833 21 -62.5 21c-48 0 -77.333 -22 -88 -66l-165 34c28.667 113.333 112.667 170 252 170c68 0 123.667 -15.667 167 -47c48 -35.333 72 -85.333 72 -150
c0 -40 -10.5 -73.833 -31.5 -101.5s-50.833 -45.5 -89.5 -53.5v-3c41.333 -5.33301 73.833 -23.5 97.5 -54.5s35.5 -67.833 35.5 -110.5c0 -68 -25 -121 -75 -159c-46.667 -35.333 -106.667 -53 -180 -53c-66 0 -120.333 14.667 -163 44
c-46.667 31.333 -77 77.666 -91 138.999l158 37c10.667 -54.667 45.667 -82 105 -82c64 0 96 30.333 96 91c0 35.333 -15 59 -45 71c-18.667 7.33301 -50.334 11 -95.001 11h-35z" />
    <glyph glyph-name="four" unicode="4" horiz-adv-x="592" 
d="M333 0v142h-309v126l289 440h164v-440h91v-126h-91v-142h-144zM333 268v244h-2l-157 -244h159z" />
    <glyph glyph-name="five" unicode="5" horiz-adv-x="592" 
d="M517 708v-132.001h-281l-3 -109c15.333 5.33301 36.333 8 63 8c72.667 0 131.667 -21.167 177 -63.5s68 -99.166 68 -170.499c0 -78 -25.167 -139.667 -75.5 -185s-115.166 -68 -194.499 -68c-128 0 -207.667 60.333 -239 181l157 36c4 -26 14.667 -46.667 32 -62
s39 -23 65 -23c31.333 0 56.666 10 75.999 30s29 45.333 29 76c0 78 -54.333 117 -163 117c-47.333 0 -96.333 -8.66699 -147 -26l8 391h428z" />
    <glyph glyph-name="six" unicode="6" horiz-adv-x="592" 
d="M453 708l-166.001 -253c18.667 4.66699 35 7 49 7c65.333 0 118.666 -22.167 159.999 -66.5s62 -99.166 62 -164.499c0 -72 -25.167 -130.5 -75.5 -175.5s-113.166 -67.5 -188.499 -67.5s-137.666 22.333 -186.999 67c-51.333 45.333 -77 104 -77 176
c0 45.333 8.33301 88.333 25 129c10.667 25.333 30.667 60.666 60 105.999l155 242h183zM407.999 237c0 32 -10.667 58.5 -32 79.5s-48.666 31.5 -81.999 31.5s-60.666 -10.5 -81.999 -31.5s-32 -47.5 -32 -79.5s10.667 -58.5 32 -79.5s48.666 -31.5 81.999 -31.5
s60.666 10.5 81.999 31.5s32 47.5 32 79.5z" />
    <glyph glyph-name="seven" unicode="7" horiz-adv-x="592" 
d="M97 0l290 570h-350v138h518v-132l-283 -576h-175z" />
    <glyph glyph-name="eight" unicode="8" horiz-adv-x="592" 
d="M59 525c0 62.667 23.3311 111.334 69.998 146.001c42.667 32.667 98.334 49 167.001 49s124.334 -16.333 167.001 -49c46.667 -34.667 70 -83.334 70 -146.001c0 -81.333 -40 -133.666 -120 -156.999v-2c88 -24 132 -81.333 132 -172
c0 -65.333 -25 -116.666 -75 -153.999c-46 -34.667 -104 -52 -174 -52s-128 17.333 -174 52c-50 37.333 -75 88.666 -75 153.999c0 90.667 44 148 132 172v2c-80 23.333 -120 75.666 -120 156.999zM208.998 504c0 -22.667 8.16699 -41.5 24.5 -56.5
s37.166 -22.5 62.499 -22.5s46.166 7.5 62.499 22.5s24.5 33.833 24.5 56.5c0 22 -8.16699 40.5 -24.5 55.5s-37.166 22.5 -62.499 22.5s-46.166 -7.5 -62.499 -22.5s-24.5 -33.5 -24.5 -55.5zM196.998 215c0 -24.667 9.3291 -45.667 27.9961 -63s42.334 -26 71.001 -26
s52.334 8.66699 71.001 26s28 38.333 28 63c0 25.333 -9.16699 46.666 -27.5 63.999s-42.166 26 -71.499 26s-53.166 -8.66699 -71.499 -26s-27.5 -38.666 -27.5 -63.999z" />
    <glyph glyph-name="nine" unicode="9" horiz-adv-x="592" 
d="M139 0l166.001 253c-18.667 -4.66699 -35 -7 -49 -7c-65.333 0 -118.666 22.167 -159.999 66.5s-62 99.166 -62 164.499c0 72 25.667 130.667 77 176c49.333 44.667 111.666 67 186.999 67s138.166 -22.5 188.499 -67.5s75.5 -103.5 75.5 -175.5
c0 -45.333 -8.33301 -88.333 -25 -129c-10.667 -25.333 -30.667 -60.666 -60 -105.999l-155 -242h-183zM184.001 471c0 -32 10.667 -58.5 32 -79.5s48.666 -31.5 81.999 -31.5s60.666 10.5 81.999 31.5s32 47.5 32 79.5s-10.667 58.5 -32 79.5s-48.666 31.5 -81.999 31.5
s-60.666 -10.5 -81.999 -31.5s-32 -47.5 -32 -79.5z" />
    <glyph glyph-name="colon" unicode=":" horiz-adv-x="296" 
d="M56 86c0 25.333 9 47 27 65s39.667 27 65 27s47 -9 65 -27s27 -39.667 27 -65s-9 -47 -27 -65s-39.667 -27 -65 -27s-47 9 -65 27s-27 39.667 -27 65zM56 406c0 25.333 9 47 27 65s39.667 27 65 27s47 -9 65 -27s27 -39.667 27 -65s-9 -47 -27 -65s-39.667 -27 -65 -27
s-47 9 -65 27s-27 39.667 -27 65z" />
    <glyph glyph-name="semicolon" unicode=";" horiz-adv-x="296" 
d="M17 -120l74 282h144l-90 -282h-128zM56 406c0 25.333 9 47 27 65s39.667 27 65 27s47 -9 65 -27s27 -39.667 27 -65s-9 -47 -27 -65s-39.667 -27 -65 -27s-47 9 -65 27s-27 39.667 -27 65z" />
    <glyph glyph-name="less" unicode="&#x3c;" horiz-adv-x="666" 
d="M586 564v-136l-317 -124v-2l317 -124v-136l-506 198v126z" />
    <glyph glyph-name="equal" unicode="=" horiz-adv-x="666" 
d="M59 336v126h548v-126h-548zM59 144v126h548v-126h-548z" />
    <glyph glyph-name="greater" unicode="&#x3e;" horiz-adv-x="666" 
d="M80 42v136l317 124v2l-317 124v136l506 -198v-126z" />
    <glyph glyph-name="question" unicode="?" horiz-adv-x="556" 
d="M216 234l-0.00292969 44c0 37.333 11.667 67.333 35 90l92 84c24 24.667 36 46.667 36 66c0 21.333 -6.66699 38.333 -20 51s-30.666 19 -51.999 19c-30 0 -53.5 -8.33301 -70.5 -25s-26.5 -38 -28.5 -64l-154 10c6.66699 69.333 32.334 122.833 77.001 160.5
s102.334 56.5 173.001 56.5c64 0 116.667 -16.667 158 -50c44.667 -36 67 -85 67 -147c0 -38 -8.83301 -71 -26.5 -99s-50.167 -60.667 -97.5 -98c-26 -20.667 -39 -43.667 -39 -69v-29h-150zM198.997 86c0 25.333 9 47 27 65s39.667 27 65 27s47 -9 65 -27
s27 -39.667 27 -65s-9 -47 -27 -65s-39.667 -27 -65 -27s-47 9 -65 27s-27 39.667 -27 65z" />
    <glyph glyph-name="at" unicode="@" horiz-adv-x="800" 
d="M475 364c0 61.333 -24.667 92 -74 92c-30 0 -54.167 -11.833 -72.5 -35.5s-27.5 -53.167 -27.5 -88.5c0 -59.333 23 -89 69 -89c70 0 105 40.333 105 121zM605 534l-36.998 -197c-6 -32 -9 -54 -9 -66c0 -18.667 9 -28 27 -28c23.333 0 43 12 59 36
c18 26.667 27 64.334 27 113.001c0 78 -24.333 138.667 -73 182c-46.667 41.333 -109.334 62 -188.001 62c-82.667 0 -149.5 -26.5 -200.5 -79.5s-76.5 -120.833 -76.5 -203.5c0 -86 28 -154.667 84 -206c54 -50 124 -75 210 -75c74.667 0 137.667 20.333 189 61h110
c-35.333 -48.667 -79.833 -86 -133.5 -112s-111.5 -39 -173.5 -39c-108 0 -199.667 35.167 -275 105.5s-113 158.833 -113 265.5c0 106 37.167 194.667 111.5 266s164.5 107 270.5 107c94.667 0 175.667 -28.333 243 -85c74 -62 111 -143.333 111 -244
c0 -92 -29.333 -159.333 -88 -202c-39.333 -28 -84 -42 -134 -42c-51.333 0 -77.666 18 -78.999 54h-2c-34.667 -36 -77.334 -54 -128.001 -54c-42.667 0 -77.334 15.667 -104.001 47s-40 71.666 -40 120.999c0 61.333 18 113.333 54 156c37.333 46 86 69 146 69
c53.333 0 89.333 -19 108 -57h2l8 45h94z" />
    <glyph glyph-name="A" unicode="A" horiz-adv-x="741" 
d="M-1 0l306 708h129l308 -708h-176l-61 150h-275l-59 -150h-172zM452 282l-87 220l-86 -220h173z" />
    <glyph glyph-name="B" unicode="B" horiz-adv-x="648" 
d="M72 0v708h264c172.667 0 259 -60 259 -180c0 -78.667 -40.667 -130.667 -122 -156v-2c46.667 -6 84.167 -24.833 112.5 -56.5s42.5 -70.5 42.5 -116.5c0 -68 -28.667 -119.333 -86 -154c-47.333 -28.667 -107.333 -43 -180 -43h-290zM228 576l0.000976562 -151h113
c27.333 0 49.666 5.66699 66.999 17c20.667 13.333 31 33.333 31 60c0 49.333 -35 74 -105 74h-106zM228.001 293v-161.001h140c28 0 51.333 6 70 18c22.667 14.667 34 36.334 34 65.001c0 52 -42 78 -126 78h-118z" />
    <glyph glyph-name="C" unicode="C" horiz-adv-x="685" 
d="M655 622l-119.999 -98.001c-32.667 38.667 -77.334 58 -134.001 58c-59.333 0 -108.333 -21.5 -147 -64.5s-58 -97.5 -58 -163.5c0 -65.333 19.167 -119.666 57.5 -162.999s85.833 -65 142.5 -65c63.333 0 112 25.333 146 76l130 -97
c-28.667 -40.667 -66.667 -71.667 -114 -93c-44 -20 -91.333 -30 -142 -30c-112 0 -203.667 34 -275 102s-107 158 -107 270s35.667 202 107 270s163 102 275 102c105.333 0 185 -34.667 239 -104z" />
    <glyph glyph-name="D" unicode="D" horiz-adv-x="759" 
d="M72 0v708h234c124 0 222.333 -27 295 -81c82.667 -61.333 124 -153 124 -275c0 -110 -40 -197.333 -120 -262c-74 -60 -166.667 -90 -278 -90h-255zM228 564v-420h81c169.333 0 254 72 254 216c0 66 -24 117.333 -72 154c-44 33.333 -101 50 -171 50h-92z" />
    <glyph glyph-name="E" unicode="E" horiz-adv-x="630" 
d="M78 0v708h481v-144h-325v-132h307v-144h-307v-144h343v-144h-499z" />
    <glyph glyph-name="F" unicode="F" horiz-adv-x="593" 
d="M78 0v708h475v-144h-319v-144h295v-144h-295v-276h-156z" />
    <glyph glyph-name="G" unicode="G" horiz-adv-x="778" 
d="M713 420v-369.998c-86.667 -45.333 -185.667 -68 -297 -68c-112 0 -203.667 34 -275 102s-107 158 -107 270s35.667 202 107 270s163 102 275 102c122.667 0 216.667 -30.333 282 -91l-110 -120c-42.667 44.667 -100 67 -172 67c-66 0 -119.167 -21.333 -159.5 -64
s-60.5 -97.334 -60.5 -164.001s20.167 -121.334 60.5 -164.001s93.5 -64 159.5 -64c56 0 105 11.667 147 35v115h-127v144h277z" />
    <glyph glyph-name="H" unicode="H" horiz-adv-x="759" 
d="M72 0v708h156v-264h303v264h156v-708h-156v306h-303v-306h-156z" />
    <glyph glyph-name="I" unicode="I" horiz-adv-x="296" 
d="M70 0v708h156v-708h-156z" />
    <glyph glyph-name="J" unicode="J" horiz-adv-x="500" 
d="M438 708v-471c0 -78 -13.667 -137 -41 -177c-36 -52 -97.667 -78 -185 -78c-122 0 -194.333 55 -217 165l143 35c2 -16.667 9.83301 -31.167 23.5 -43.5s29.167 -18.5 46.5 -18.5c32 0 53.333 15.667 64 47c6.66699 18.667 10 47.667 10 87v454h156z" />
    <glyph glyph-name="K" unicode="K" horiz-adv-x="722" 
d="M78 0v708h156v-294l275 294h204l-315 -329l342 -379h-218l-288 336v-336h-156z" />
    <glyph glyph-name="L" unicode="L" horiz-adv-x="537" 
d="M78 0v708h156v-564h289v-144h-445z" />
    <glyph glyph-name="M" unicode="M" horiz-adv-x="944" 
d="M72 0v708h236l163 -462h2l164 462h235v-708h-156v543h-2l-186 -543h-119l-179 543h-2v-543h-156z" />
    <glyph glyph-name="N" unicode="N" horiz-adv-x="815" 
d="M72 0v708h212l301 -492h2v492h156v-708h-204l-309 504h-2v-504h-156z" />
    <glyph glyph-name="O" unicode="O" horiz-adv-x="832" 
d="M34 354c0 112 35.667 202 107 270s163 102 275 102s203.667 -34 275 -102s107 -158 107 -270s-35.667 -202 -107 -270s-163 -102 -275 -102s-203.667 34 -275 102s-107 158 -107 270zM196 354c0 -66.667 20.167 -121.334 60.5 -164.001s93.5 -64 159.5 -64
s119.167 21.333 159.5 64s60.5 97.334 60.5 164.001s-20.167 121.334 -60.5 164.001s-93.5 64 -159.5 64s-119.167 -21.333 -159.5 -64s-60.5 -97.334 -60.5 -164.001z" />
    <glyph glyph-name="P" unicode="P" horiz-adv-x="630" 
d="M72 0v708h263c179.333 0 269 -71.667 269 -215c0 -144.667 -87.333 -217 -262 -217h-114v-276h-156zM228 576v-168h104c73.333 0 110 28.333 110 85c0 55.333 -44.667 83 -134 83h-80z" />
    <glyph glyph-name="Q" unicode="Q" horiz-adv-x="852" 
d="M847 120l0.000976562 -120h-429c-112.667 0 -204.334 32 -275.001 96c-72.667 66 -109 155 -109 267c0 105.333 36.667 192.666 110 261.999c72 67.333 161.333 101 268 101s196.334 -34.167 269.001 -102.5s109 -155.166 109 -260.499c0 -52.667 -11.333 -100 -34 -142
c-24.667 -45.333 -60.334 -78.333 -107.001 -99v-2h198zM196.001 363c0 -60.667 21.167 -112.334 63.5 -155.001s93.166 -64 152.499 -64s110.166 21.333 152.499 64s63.5 94.334 63.5 155.001s-21.167 112.334 -63.5 155.001s-93.166 64 -152.499 64
s-110.166 -21.333 -152.499 -64s-63.5 -94.334 -63.5 -155.001z" />
    <glyph glyph-name="R" unicode="R" horiz-adv-x="648" 
d="M72 0v708h274c178 0 267 -71.667 267 -215c0 -50.667 -13 -93 -39 -127c-27.333 -36 -65.333 -58.333 -114 -67l180 -299h-187l-148 283h-77v-283h-156zM228 576v-161h92c40 0 69 3.66699 87 11c29.333 11.333 44 34 44 68c0 54.667 -40.333 82 -121 82h-102z" />
    <glyph glyph-name="S" unicode="S" horiz-adv-x="574" 
d="M529 652l-106.999 -117c-24.667 31.333 -62.334 47 -113.001 47c-26 0 -49 -5.66699 -69 -17c-24 -13.333 -36 -32 -36 -56c0 -33.333 28.333 -59.333 85 -78c90 -30 142 -49.333 156 -58c56.667 -34 85 -86.667 85 -158c0 -75.333 -27.333 -134 -82 -176
c-49.333 -38 -113 -57 -191 -57c-94.667 0 -174 29.667 -238 89l111 122c34 -44.667 79.333 -67 136 -67c28 0 52.333 6 73 18c23.333 14 35 32.667 35 56c0 34 -28.667 61.333 -86 82c-96 34.667 -149.333 55 -160 61c-57.333 34.667 -86 85.667 -86 153
c0 72 27.667 129.333 83 172c50.667 38.667 113 58 187 58c88.667 0 161 -24.667 217 -74z" />
    <glyph glyph-name="T" unicode="T" horiz-adv-x="574" 
d="M209 0v570h-202v138h560v-138h-202v-570h-156z" />
    <glyph glyph-name="U" unicode="U" horiz-adv-x="741" 
d="M669 708l-0.00195312 -434.999c0 -86.667 -25 -156 -75 -208c-53.333 -55.333 -127.666 -83 -222.999 -83s-169.666 27.667 -222.999 83c-50.667 52 -76 121.333 -76 208v435h156v-429c0 -44 13.5 -80.5 40.5 -109.5s61.167 -43.5 102.5 -43.5
c40.667 0 74.5 14.667 101.5 44s40.5 65.666 40.5 108.999v429h156z" />
    <glyph glyph-name="V" unicode="V" horiz-adv-x="704" 
d="M285 0l-283 708h178l175 -464h2l178 464h167l-292 -708h-125z" />
    <glyph glyph-name="W" unicode="W" horiz-adv-x="1000" 
d="M208 0l-210 708h170l113 -454h2l148 454h145l147 -466h2l119 466h158l-207 -708h-139l-156 490h-2l-156 -490h-134z" />
    <glyph glyph-name="X" unicode="X" horiz-adv-x="722" 
d="M0 0l248 370l-234 338h196l151 -248l145 248h189l-229 -335l256 -373h-196l-173 285l-168 -285h-185z" />
    <glyph glyph-name="Y" unicode="Y" horiz-adv-x="648" 
d="M246 0v302l-266 406h194l150 -265l159 265h185l-266 -406v-302h-156z" />
    <glyph glyph-name="Z" unicode="Z" horiz-adv-x="630" 
d="M35 0v144l359 426h-346v138h535v-138l-352 -426h364v-144h-560z" />
    <glyph glyph-name="bracketleft" unicode="[" horiz-adv-x="296" 
d="M276 732v-90h-90v-708h90v-90h-210v888h210z" />
    <glyph glyph-name="backslash" unicode="\" horiz-adv-x="407" 
d="M410 -18l-113 -35l-300 779l114 35z" />
    <glyph glyph-name="bracketright" unicode="]" horiz-adv-x="296" 
d="M20 -156v90h90v708h-90v90h210v-888h-210z" />
    <glyph glyph-name="asciicircum" unicode="^" horiz-adv-x="666" 
d="M80 343l180 365h146l180 -365h-142l-111 238l-112 -238h-141z" />
    <glyph glyph-name="underscore" unicode="_" horiz-adv-x="500" 
d="M500 -125h-500v50h500v-50z" />
    <glyph glyph-name="grave" unicode="`" 
d="M131 708l101 -144h-132l-173 144h204z" />
    <glyph glyph-name="a" unicode="a" horiz-adv-x="537" 
d="M358 0l0.00292969 61h-2c-30.667 -48.667 -82 -73 -154 -73c-48 0 -88.333 12.667 -121 38c-34.667 28 -52 65.333 -52 112c0 73.333 39.333 123 118 149c46 14.667 116.333 22 211 22c0 26 -9.33301 47 -28 63s-41.334 24 -68.001 24
c-46.667 0 -87.334 -19.333 -122.001 -58l-80 82c55.333 52 126.666 78 213.999 78c83.333 0 142.333 -21.667 177 -65c30 -38 45 -100 45 -186v-247h-138zM358.003 213h-36.999c-98.667 0 -148 -23.333 -148 -70c0 -16.667 7.66699 -30 23 -40
c13.333 -8.66699 29.333 -13 48 -13c31.333 0 58.166 8 80.499 24s33.5 38.333 33.5 67v32z" />
    <glyph glyph-name="b" unicode="b" horiz-adv-x="630" 
d="M67 0l-0.000976562 756h150v-322h2c30.667 42.667 82 64 154 64c66.667 0 121 -26.333 163 -79c39.333 -49.333 59 -109.333 59 -180c0 -74 -22 -134.333 -66 -181s-101.667 -70 -173 -70c-31.333 0 -61.666 8.33301 -90.999 25c-26 14 -45.333 31 -58 51h-2v-64h-138z
M204.999 243c0 -36.667 10.667 -66.334 32 -89.001s50.666 -34 87.999 -34s66.666 11.333 87.999 34s32 52.334 32 89.001s-10.667 66.334 -32 89.001s-50.666 34 -87.999 34s-66.666 -11.333 -87.999 -34s-32 -52.334 -32 -89.001z" />
    <glyph glyph-name="c" unicode="c" horiz-adv-x="482" 
d="M481 433l-99.001 -103.998c-17.333 24.667 -42 37 -74 37c-37.333 0 -66.666 -11.333 -87.999 -34s-32 -52.334 -32 -89.001s10.667 -66.334 32 -89.001s50.666 -34 87.999 -34c28.667 0 53.334 12.333 74.001 37l99 -104c-42.667 -43.333 -100.334 -65 -173.001 -65
c-76.667 0 -140.334 23 -191.001 69c-52.667 48 -79 110 -79 186s26.333 138 79 186c50.667 46 114.334 69 191.001 69c72.667 0 130.334 -21.667 173.001 -65z" />
    <glyph glyph-name="d" unicode="d" horiz-adv-x="630" 
d="M563 756l-0.000976562 -756h-138v64h-2c-12.667 -20 -32 -37 -58 -51c-29.333 -16.667 -59.666 -25 -90.999 -25c-71.333 0 -129 23.333 -173 70s-66 107 -66 181c0 70.667 19.667 130.667 59 180c42 52.667 96.333 79 163 79c72 0 123.333 -21.333 154 -64h2v322h150z
M424.999 243c0 36.667 -10.667 66.334 -32 89.001s-50.666 34 -87.999 34s-66.666 -11.333 -87.999 -34s-32 -52.334 -32 -89.001s10.667 -66.334 32 -89.001s50.666 -34 87.999 -34s66.666 11.333 87.999 34s32 52.334 32 89.001z" />
    <glyph glyph-name="e" unicode="e" horiz-adv-x="574" 
d="M408 161l104.999 -77c-50.667 -64 -119 -96 -205 -96c-76.667 0 -140.334 23 -191.001 69c-52.667 48 -79 110 -79 186s26.333 138 79 186c50.667 46 114.334 69 191.001 69c70 0 125.5 -23 166.5 -69s61.5 -108 61.5 -186v-47h-348c6 -28.667 19.167 -51.5 39.5 -68.5
s44.833 -25.5 73.5 -25.5c42.667 0 78.334 19.667 107.001 59zM187.999 298h198.001c0.666992 25.333 -7.83301 47 -25.5 65s-39.834 27 -66.501 27c-31.333 0 -56.333 -9 -75 -27s-29 -39.667 -31 -65z" />
    <glyph glyph-name="f" unicode="f" horiz-adv-x="370" 
d="M105 0v366h-99v120h99v86c0 62 11.333 108 34 138c29.333 38.667 81.333 58 156 58c34.667 0 64 -3 88 -9l-7 -127c-18.667 6.66699 -35 10 -49 10c-25.333 0 -43.333 -5 -54 -15c-12 -12 -18 -33.333 -18 -64v-77h111v-120h-111v-366h-150z" />
    <glyph glyph-name="g" unicode="g" horiz-adv-x="630" 
d="M563 486l0.000976562 -445c0 -187.333 -93.667 -281 -281 -281c-103.333 0 -184.666 23.667 -243.999 71l83 124c49.333 -42 102 -63 158 -63c44 0 77.667 11.333 101 34c22 20.667 33 49 33 85v47h-2c-30.667 -42.667 -76.334 -64 -137.001 -64
c-71.333 0 -129 23.333 -173 70s-66 107 -66 181c0 68 19.667 126.333 59 175c42.667 52 97 78 163 78c39.333 0 74.666 -8.33301 105.999 -25c26.667 -14 46.667 -31 60 -51h2v64h138zM185.001 246c0 -32 11.667 -60 35 -84s51.666 -36 84.999 -36s61.666 12 84.999 36
s35 52 35 84s-11.667 60 -35 84s-51.666 36 -84.999 36s-61.666 -12 -84.999 -36s-35 -52 -35 -84z" />
    <glyph glyph-name="h" unicode="h" horiz-adv-x="574" 
d="M53 756h150v-336h2c8 20.667 23.333 38.334 46 53.001c26 16.667 56 25 90 25c70 0 119 -22 147 -66c22 -35.333 33 -90 33 -164v-268h-150v238c0 39.333 -3.33301 67.666 -10 84.999c-11.333 28.667 -34 43 -68 43c-60 0 -90 -41.333 -90 -124v-242h-150v756z" />
    <glyph glyph-name="i" unicode="i" 
d="M55 0v486h150v-486h-150zM43 639c0 24 8.5 44.5 25.5 61.5s37.5 25.5 61.5 25.5s44.5 -8.5 61.5 -25.5s25.5 -37.5 25.5 -61.5s-8.5 -44.5 -25.5 -61.5s-37.5 -25.5 -61.5 -25.5s-44.5 8.5 -61.5 25.5s-25.5 37.5 -25.5 61.5z" />
    <glyph glyph-name="j" unicode="j" 
d="M205 486v-522c0 -66 -13 -115.667 -39 -149c-28.667 -36.667 -75.667 -55 -141 -55c-30 0 -53.333 2.66699 -70 8l8 133c12 -6 25 -9 39 -9c35.333 0 53 32.667 53 98v496h150zM43 639c0 24 8.5 44.5 25.5 61.5s37.5 25.5 61.5 25.5s44.5 -8.5 61.5 -25.5
s25.5 -37.5 25.5 -61.5s-8.5 -44.5 -25.5 -61.5s-37.5 -25.5 -61.5 -25.5s-44.5 8.5 -61.5 25.5s-25.5 37.5 -25.5 61.5z" />
    <glyph glyph-name="k" unicode="k" horiz-adv-x="556" 
d="M53 0v756h150v-462l166 192h184l-193 -219l198 -267h-189l-164 246h-2v-246h-150z" />
    <glyph glyph-name="l" unicode="l" 
d="M55 0v756h150v-756h-150z" />
    <glyph glyph-name="m" unicode="m" horiz-adv-x="870" 
d="M53 0v486h144v-66h2c11.333 21.333 28.333 39 51 53c26.667 16.667 57 25 91 25c74.667 0 124.667 -29 150 -87c32.667 58 84 87 154 87c114.667 0 172 -70.333 172 -211v-287h-150v283c0 55.333 -22 83 -66 83c-60.667 0 -91 -36.333 -91 -109v-257h-150v257
c0 31.333 -2.66699 54 -8 68c-9.33301 27.333 -29 41 -59 41c-60 0 -90 -41.333 -90 -124v-242h-150z" />
    <glyph glyph-name="n" unicode="n" horiz-adv-x="574" 
d="M53 0v486.001h144v-66h2c11.333 21.333 28.333 39 51 53c26.667 16.667 57 25 91 25c70 0 119 -22 147 -66c22 -35.333 33 -90 33 -164v-268h-150v238c0 39.333 -3.33301 67.666 -10 84.999c-11.333 28.667 -34 43 -68 43c-60 0 -90 -41.333 -90 -124v-242h-150z" />
    <glyph glyph-name="o" unicode="o" horiz-adv-x="610" 
d="M35 243c0 76 26.333 138 79 186c50.667 46 114.334 69 191.001 69s140.334 -23 191.001 -69c52.667 -48 79 -110 79 -186s-25.833 -137.5 -77.5 -184.5s-115.834 -70.5 -192.501 -70.5s-140.334 23 -191.001 69c-52.667 48 -79 110 -79 186zM185 243
c0 -36.667 10.667 -66.334 32 -89.001s50.666 -34 87.999 -34s66.666 11.333 87.999 34s32 52.334 32 89.001s-10.667 66.334 -32 89.001s-50.666 34 -87.999 34s-66.666 -11.333 -87.999 -34s-32 -52.334 -32 -89.001z" />
    <glyph glyph-name="p" unicode="p" horiz-adv-x="630" 
d="M67 -228l0.000976562 714h138v-64h2c12.667 20 32 37 58 51c29.333 16.667 59.666 25 90.999 25c71.333 0 129 -23.333 173 -70s66 -107 66 -181c0 -70.667 -19.667 -130.667 -59 -180c-42 -52.667 -96.333 -79 -163 -79c-72 0 -123.333 21.333 -154 64h-2v-280h-150z
M205.001 243c0 -36.667 10.667 -66.334 32 -89.001s50.666 -34 87.999 -34s66.666 11.333 87.999 34s32 52.334 32 89.001s-10.667 66.334 -32 89.001s-50.666 34 -87.999 34s-66.666 -11.333 -87.999 -34s-32 -52.334 -32 -89.001z" />
    <glyph glyph-name="q" unicode="q" horiz-adv-x="630" 
d="M563 486l0.000976562 -714h-150v280h-2c-30.667 -42.667 -82 -64 -154 -64c-66.667 0 -121 26.333 -163 79c-39.333 49.333 -59 109.333 -59 180c0 74 22 134.333 66 181s101.667 70 173 70c31.333 0 61.666 -8.33301 90.999 -25c26 -14 45.333 -31 58 -51h2v64h138z
M425.001 243c0 36.667 -10.667 66.334 -32 89.001s-50.666 34 -87.999 34s-66.666 -11.333 -87.999 -34s-32 -52.334 -32 -89.001s10.667 -66.334 32 -89.001s50.666 -34 87.999 -34s66.666 11.333 87.999 34s32 52.334 32 89.001z" />
    <glyph glyph-name="r" unicode="r" horiz-adv-x="407" 
d="M53 0l-0.000976562 486h150v-78h2c32.667 60 79.334 90 140.001 90c22 0 38.667 -1.66699 50 -5v-137c-23.333 6.66699 -44.666 10 -63.999 10c-52.667 0 -88.334 -15 -107.001 -45c-14 -22.667 -21 -62 -21 -118v-203h-150z" />
    <glyph glyph-name="s" unicode="s" horiz-adv-x="463" 
d="M420 434l-92 -91c-22 27.333 -51 41 -87 41c-36.667 0 -55 -13.333 -55 -40c0 -18 22 -32 66 -42c61.333 -14 101.666 -26.333 120.999 -37c44 -24.667 66 -63.667 66 -117c0 -56.667 -24.333 -98.667 -73 -126c-39.333 -22.667 -89.666 -34 -150.999 -34
c-84 0 -147.667 22 -191 66l91 101c29.333 -35.333 64.666 -53 105.999 -53c45.333 0 68 11.667 68 35c0 20 -22 35 -66 45c-63.333 14.667 -103.666 26.667 -120.999 36c-44 24 -66 62.667 -66 116s21.333 95 64 125c37.333 26 84 39 140 39c80 0 140 -21.333 180 -64z" />
    <glyph glyph-name="t" unicode="t" horiz-adv-x="407" 
d="M384 486v-120h-132v-162c0 -30.667 3.66699 -52 11 -64c10 -17.333 30 -26 60 -26c30.667 0 51 4.66699 61 14v-125c-27.333 -10 -62.333 -15 -105 -15c-118 0 -177 49 -177 147v231h-96v120h96v144h150v-144h132z" />
    <glyph glyph-name="u" unicode="u" horiz-adv-x="574" 
d="M521 486v-486.001h-144v66h-2c-11.333 -21.333 -28.333 -39 -51 -53c-26.667 -16.667 -57 -25 -91 -25c-70 0 -119 22 -147 66c-22 35.333 -33 90 -33 164v268h150v-238c0 -39.333 3.33301 -67.666 10 -84.999c11.333 -28.667 34 -43 68 -43c60 0 90 41.333 90 124v242
h150z" />
    <glyph glyph-name="v" unicode="v" horiz-adv-x="556" 
d="M203 0l-201 486h162l123 -330h2l114 330h151l-192 -486h-159z" />
    <glyph glyph-name="w" unicode="w" horiz-adv-x="833" 
d="M173 0l-178 486h160l99 -305h2l83 305h164l90 -305h2l91 305h152l-173 -486h-148l-101 323h-2l-90 -323h-151z" />
    <glyph glyph-name="x" unicode="x" horiz-adv-x="556" 
d="M-8 0l192 260l-162 226h177l86 -132l83 132h167l-158 -226l187 -260h-177l-106 162l-114 -162h-175z" />
    <glyph glyph-name="y" unicode="y" horiz-adv-x="556" 
d="M553 486l-220.001 -564.999c-24 -61.333 -45.333 -101 -64 -119c-29.333 -28 -76.666 -42 -141.999 -42c-38.667 0 -76 6 -112 18l20 123c23.333 -10 46.666 -15 69.999 -15c31.333 0 54 7 68 21c8.66699 9.33301 19.334 29.666 32.001 60.999l11 28l-213 490h162
l125 -321h2l107 321h154z" />
    <glyph glyph-name="z" unicode="z" horiz-adv-x="500" 
d="M34 0v150l252 216h-246v120h420v-144l-264 -222h270v-120h-432z" />
    <glyph glyph-name="braceleft" unicode="{" horiz-adv-x="370" 
d="M356 -42v-113.999h-105c-38 0 -68.333 11.333 -91 34c-25.333 25.333 -38 62.666 -38 111.999v172c0 26.667 -15 46 -45 58c-18.667 7.33301 -39.667 11 -63 11v114c23.333 0 44.333 3.66699 63 11c30 12 45 31.333 45 58v173c0 96.667 43 145 129 145h105v-114h-49
c-43.333 0 -65 -21.333 -65 -64v-161c0 -40.667 -11.333 -69 -34 -85c-14 -10 -36 -16.333 -66 -19v-2c30 -2 52 -8 66 -18c22.667 -16 34 -44.333 34 -85v-162c0 -42.667 21.667 -64 65 -64h49z" />
    <glyph glyph-name="bar" unicode="|" horiz-adv-x="222" 
d="M48 -18v774h126v-774h-126z" />
    <glyph glyph-name="braceright" unicode="}" horiz-adv-x="370" 
d="M14 618l-0.000976562 113.999h108c36.667 0 66.334 -11.333 89.001 -34c24.667 -25.333 37 -62.666 37 -111.999v-172c0 -26.667 14.667 -46 44 -58c18 -7.33301 39.333 -11 64 -11v-114c-24.667 0 -46 -3.66699 -64 -11c-29.333 -12 -44 -31.333 -44 -58v-173
c0 -96.667 -43 -145 -129 -145h-105v114h49c43.333 0 65 21.333 65 64v161c0 40.667 11.333 69 34 85c14 10 36 16.333 66 19v2c-30 2 -52 8 -66 18c-22.667 16 -34 44.333 -34 85v162c0 42.667 -21.667 64 -65 64h-49z" />
    <glyph glyph-name="asciitilde" unicode="~" horiz-adv-x="666" 
d="M528 400l36 -108c-30 -57.333 -71.667 -86 -125 -86c-25.333 0 -62.333 10.667 -111 32c-54.667 24 -88.667 36 -102 36c-17.333 0 -34 -7.33301 -50 -22c-8.66699 -8 -21.334 -23.333 -38.001 -46l-36 108c30 57.333 71.667 86 125 86c25.333 0 62.333 -10.667 111 -32
c54.667 -24 88.667 -36 102 -36c17.333 0 34 7.33301 50 22c8.66699 8 21.334 23.333 38.001 46z" />
    <glyph glyph-name="exclamdown" unicode="&#xa1;" horiz-adv-x="444" 
d="M147 -222v474h150v-474h-150zM314 400c0 -25.333 -9 -47 -27 -65s-39.667 -27 -65 -27s-47 9 -65 27s-27 39.667 -27 65s9 47 27 65s39.667 27 65 27s47 -9 65 -27s27 -39.667 27 -65z" />
    <glyph glyph-name="cent" unicode="&#xa2;" horiz-adv-x="592" 
d="M310 -81l0.000976562 69c-70 4 -126.5 30 -169.5 78s-64.5 107 -64.5 177c0 70.667 21.167 128.667 63.5 174s99.166 72.333 170.499 81v66h60v-66c66 0 123.333 -20.667 172 -62l-96 -102c-24.667 25.333 -50 38 -76 38v-258c26 0 53.667 14.333 83 43l91 -107
c-42 -41.333 -100 -62 -174 -62v-69h-60zM310.001 114v258c-60 -11.333 -90 -54 -90 -128c0 -68 30 -111.333 90 -130z" />
    <glyph glyph-name="sterling" unicode="&#xa3;" horiz-adv-x="592" 
d="M48 0l-0.000976562 114h96v198h-96v102h96v71c0 64 21 118 63 162c46.667 48.667 108.334 73 185.001 73c89.333 0 159 -22.667 209 -68l-100 -107c-28.667 28.667 -59 43 -91 43c-77.333 0 -116 -41.667 -116 -125v-49h156v-102h-156v-198h253v-114h-499z" />
    <glyph glyph-name="currency" unicode="&#xa4;" horiz-adv-x="592" 
d="M36 153l49 49.002c-32.667 45.333 -49 96 -49 152s16.333 106.667 49 152l-49 49l60 59l49 -48c44.667 32 95 48 151 48s106.333 -16 151 -48l49 48l60 -59l-49 -49c32.667 -44.667 49 -95.334 49 -152.001s-16.333 -107.334 -49 -152.001l49 -49l-60 -59l-49 48
c-44.667 -32 -95 -48 -151 -48s-106.333 16 -151 48l-49 -48zM168 354.002c0 -37.333 12.5 -69 37.5 -95s55.167 -39 90.5 -39s65.5 13 90.5 39s37.5 57.667 37.5 95s-12.5 69 -37.5 95s-55.167 39 -90.5 39s-65.5 -13 -90.5 -39s-37.5 -57.667 -37.5 -95z" />
    <glyph glyph-name="yen" unicode="&#xa5;" horiz-adv-x="592" 
d="M218 0v158h-169v96h169v48l-12 20h-157v96h100l-185 290h182l150 -264l150 264h182l-185 -290h100v-96h-157l-12 -20v-48h169v-96h-169v-158h-156z" />
    <glyph glyph-name="brokenbar" unicode="&#xa6;" horiz-adv-x="222" 
d="M48 -18v280h126v-280h-126zM174 756v-280h-126v280h126z" />
    <glyph glyph-name="section" unicode="&#xa7;" horiz-adv-x="592" 
d="M517 617l-125.997 -72c-14.667 40.667 -45.334 61 -92.001 61c-17.333 0 -32 -4.33301 -44 -13c-14 -10 -21 -23.333 -21 -40c0 -25.333 27 -50 81 -74c88.667 -38 138.667 -60.667 150 -68c54 -34.667 81 -78 81 -130c0 -26.667 -7.83301 -52 -23.5 -76
s-35.834 -42 -60.501 -54c36.667 -29.333 55 -69 55 -119c0 -60 -27.333 -107 -82 -141c-46.667 -28 -101.334 -42 -164.001 -42c-116 0 -193.667 42 -233 126l128 63c5.33301 -22.667 19.333 -40.334 42 -53.001c20 -10.667 42.333 -16 67 -16c53.333 0 80 17.333 80 52
c0 24 -26 47 -78 69c-80.667 34.667 -129 57.334 -145 68.001c-52 34.667 -78 79.667 -78 135c0 62.667 29 112 87 148c-42 28 -63 66.333 -63 115c0 54.667 23.333 97.667 70 129c40.667 27.333 89 41 145 41c114 0 188.667 -36.333 224 -109zM272.003 239l102 -46.998
c22.667 13.333 34 33.666 34 60.999s-21.667 51.333 -65 72l-116 55c-23.333 -13.333 -35 -33 -35 -59c0 -21.333 8.66699 -39 26 -53c8.66699 -6.66699 26.667 -16.334 54 -29.001z" />
    <glyph glyph-name="dieresis" unicode="&#xa8;" 
d="M25 558c-23.333 0 -42.999 8.5 -58.999 25.5s-24 37.167 -24 60.5c0 22 8 41.167 24 57.5s35 24.5 57 24.5c23.333 0 43.666 -7.83301 60.999 -23.5s26 -35.167 26 -58.5c0 -24 -8.16699 -44.333 -24.5 -61s-36.5 -25 -60.5 -25zM233.001 558
c-23.333 0 -42.999 8.5 -58.999 25.5s-24 37.167 -24 60.5c0 22 8 41.167 24 57.5s35 24.5 57 24.5c23.333 0 43.666 -7.83301 60.999 -23.5s26 -35.167 26 -58.5c0 -24 -8.16699 -44.333 -24.5 -61s-36.5 -25 -60.5 -25z" />
    <glyph glyph-name="copyright" unicode="&#xa9;" horiz-adv-x="800" 
d="M494 300h94.001c-6.66699 -50 -27.334 -89 -62.001 -117c-32 -26.667 -70.667 -40 -116 -40c-61.333 0 -110.333 20.667 -147 62c-34.667 39.333 -52 90 -52 152c0 63.333 17.167 114.166 51.5 152.499s82.833 57.5 145.5 57.5c47.333 0 86.666 -12 117.999 -36
c34 -26.667 54.667 -64 62 -112h-94c-8 38.667 -34 58 -78 58c-64.667 0 -97 -39.333 -97 -118c0 -37.333 8.66699 -67.666 26 -90.999s40.333 -35 69 -35c50.667 0 77.334 22.333 80.001 67zM28.001 354c0 102.667 36.333 190.334 109 263.001s160.334 109 263.001 109
s190.334 -36.333 263.001 -109s109 -160.334 109 -263.001s-36.333 -190.334 -109 -263.001s-160.334 -109 -263.001 -109s-190.334 36.333 -263.001 109s-109 160.334 -109 263.001zM130.001 354c0 -77.333 26.333 -143.666 79 -198.999s116.334 -83 191.001 -83
s138.334 27.667 191.001 83s79 121.666 79 198.999s-26.333 143.666 -79 198.999s-116.334 83 -191.001 83s-138.334 -27.667 -191.001 -83s-79 -121.666 -79 -198.999z" />
    <glyph glyph-name="ordfeminine" unicode="&#xaa;" horiz-adv-x="349" 
d="M230 431v37h-2c-12.667 -28.667 -43.667 -43 -93 -43c-31.333 0 -57.333 7.66699 -78 23c-22.667 16 -34 38 -34 66c0 70 69 105 207 105c0 12.667 -5.16699 23.667 -15.5 33s-23.833 14 -40.5 14c-28.667 0 -55 -12 -79 -36l-52 49c36.667 31.333 83 47 139 47
c54 0 92.333 -13 115 -39c19.333 -22 29 -58 29 -108v-148h-96zM236 540v19h-18c-62 0 -93 -13.667 -93 -41c0 -18 14.333 -27 43 -27c18.667 0 34.667 5.16699 48 15.5s20 21.5 20 33.5z" />
    <glyph glyph-name="guillemotleft" unicode="&#xab;" horiz-adv-x="538" 
d="M268 422l-116 -173l116 -173l-91 -61l-159 234l159 234zM510 422l-116 -173l116 -173l-91 -61l-159 234l159 234z" />
    <glyph glyph-name="logicalnot" unicode="&#xac;" horiz-adv-x="666" 
d="M481 142v194h-422v126h548v-320h-126z" />
    <glyph glyph-name="minus" unicode="&#xad;" horiz-adv-x="666" 
d="M59 240v126h548v-126h-548z" />
    <glyph glyph-name="minus" unicode="&#x2212;" horiz-adv-x="666" 
d="M59 240v126h548v-126h-548z" />
    <glyph glyph-name="registered" unicode="&#xae;" horiz-adv-x="800" 
d="M257 163v390h138c110.667 0 166 -42 166 -126c0 -64.667 -30.333 -101 -91 -109l100 -155h-105l-89 150h-17v-150h-102zM358 475v-84h41c40 0 60 14 60 42s-20 42 -60 42h-41zM28 354c0 102.667 36.333 190.334 109 263.001s160.334 109 263.001 109
s190.334 -36.333 263.001 -109s109 -160.334 109 -263.001s-36.333 -190.334 -109 -263.001s-160.334 -109 -263.001 -109s-190.334 36.333 -263.001 109s-109 160.334 -109 263.001zM130 354c0 -77.333 26.333 -143.666 79 -198.999s116.334 -83 191.001 -83
s138.334 27.667 191.001 83s79 121.666 79 198.999s-26.333 143.666 -79 198.999s-116.334 83 -191.001 83s-138.334 -27.667 -191.001 -83s-79 -121.666 -79 -198.999z" />
    <glyph glyph-name="macron" unicode="&#xaf;" 
d="M300 687v-96h-340v96h340z" />
    <glyph glyph-name="macron" unicode="&#x2c9;" 
d="M300 687v-96h-340v96h340z" />
    <glyph glyph-name="degree" unicode="&#xb0;" horiz-adv-x="400" 
d="M200 460c24.667 0 45.5 8.5 62.5 25.5s25.5 37.833 25.5 62.5s-8.5 45.5 -25.5 62.5s-37.833 25.5 -62.5 25.5s-45.5 -8.5 -62.5 -25.5s-25.5 -37.833 -25.5 -62.5s8.5 -45.5 25.5 -62.5s37.833 -25.5 62.5 -25.5zM200 376c-47.333 0 -87.833 16.833 -121.5 50.5
s-50.5 74.167 -50.5 121.5s16.833 87.833 50.5 121.5s74.167 50.5 121.5 50.5s87.833 -16.833 121.5 -50.5s50.5 -74.167 50.5 -121.5s-16.833 -87.833 -50.5 -121.5s-74.167 -50.5 -121.5 -50.5z" />
    <glyph glyph-name="plusminus" unicode="&#xb1;" horiz-adv-x="666" 
d="M59 323v126h211v128h126v-128h211v-126h-211v-128h-126v128h-211zM59 29v126h548v-126h-548z" />
    <glyph glyph-name="twosuperior" unicode="&#xb2;" horiz-adv-x="385" 
d="M24 289v88.9971l186 158c28.667 24.667 43 43 43 55c0 26 -19.667 39 -59 39c-18.667 0 -34 -5.16699 -46 -15.5s-18.667 -23.166 -20 -38.499l-102 6c3.33301 46 21 81 53 105c30 22 70 33 120 33c48 0 87 -10.667 117 -32s45 -50.666 45 -87.999
c0 -31.333 -5.33301 -55.666 -16 -72.999c-7.33301 -11.333 -22.333 -26 -45 -44l-140 -108v-2h201v-84h-337z" />
    <glyph glyph-name="threesuperior" unicode="&#xb3;" horiz-adv-x="385" 
d="M143 468l-0.000976562 84h34c49.333 0 74 15 74 45c0 22 -18.667 33 -56 33c-35.333 0 -56.666 -14.667 -63.999 -44l-110 20c20 76 78 114 174 114c46 0 84 -9.33301 114 -28c33.333 -20.667 50 -49.334 50 -86.001c0 -52.667 -27.667 -83.667 -83 -93v-2
c28 -3.33301 50.333 -14.5 67 -33.5s25 -41.167 25 -66.5c0 -41.333 -17.333 -73.333 -52 -96c-32 -21.333 -73.333 -32 -124 -32c-98 0 -156.333 39.333 -175 118l109 22c7.33301 -33.333 29.333 -50 66 -50c45.333 0 68 16 68 48c0 20.667 -9.66699 34.334 -29 41.001
c-12 4 -33 6 -63 6h-25z" />
    <glyph glyph-name="acute" unicode="&#xb4;" 
d="M30 564l101 144h204l-173 -144h-132z" />
    <glyph glyph-name="mu" unicode="&#xb5;" horiz-adv-x="574" 
d="M521 486v-486.001h-144v66h-2c-11.333 -21.333 -28.333 -39 -51 -53c-26.667 -16.667 -57 -25 -91 -25c-10.667 0 -20.667 1 -30 3v-219h-150v714h150v-238c0 -39.333 3.33301 -67.666 10 -84.999c11.333 -28.667 34 -43 68 -43c60 0 90 41.333 90 124v242h150z" />
    <glyph glyph-name="mu" unicode="&#x3bc;" horiz-adv-x="574" 
d="M521 486v-486.001h-144v66h-2c-11.333 -21.333 -28.333 -39 -51 -53c-26.667 -16.667 -57 -25 -91 -25c-10.667 0 -20.667 1 -30 3v-219h-150v714h150v-238c0 -39.333 3.33301 -67.666 10 -84.999c11.333 -28.667 34 -43 68 -43c60 0 90 41.333 90 124v242h150z" />
    <glyph glyph-name="paragraph" unicode="&#xb6;" horiz-adv-x="620" 
d="M236 -133v491.999c-72 0 -127.167 15 -165.5 45s-57.5 72 -57.5 126c0 66.667 23.667 114.334 71 143.001c38.667 23.333 97 35 175 35h302v-841h-108v745h-109v-745h-108z" />
    <glyph glyph-name="periodcentered" unicode="&#xb7;" horiz-adv-x="296" 
d="M56 283c0 25.333 9 47 27 65s39.667 27 65 27s47 -9 65 -27s27 -39.667 27 -65s-9 -47 -27 -65s-39.667 -27 -65 -27s-47 9 -65 27s-27 39.667 -27 65z" />
    <glyph glyph-name="periodcentered" unicode="&#x2219;" horiz-adv-x="296" 
d="M56 283c0 25.333 9 47 27 65s39.667 27 65 27s47 -9 65 -27s27 -39.667 27 -65s-9 -47 -27 -65s-39.667 -27 -65 -27s-47 9 -65 27s-27 39.667 -27 65z" />
    <glyph glyph-name="cedilla" unicode="&#xb8;" 
d="M168 0l-40.999 -60c84 0 126 -27.667 126 -83c0 -32.667 -16.667 -58 -50 -76c-26.667 -14 -56.334 -21 -89.001 -21c-42 0 -83.667 10 -125 30l25 47c30 -11.333 55.667 -17 77 -17c44 0 66 10.667 66 32c0 10.667 -5.33301 19 -16 25s-22 9 -34 9
c-11.333 0 -23.333 -2.66699 -36 -8l-32 29l62 93h67z" />
    <glyph glyph-name="onesuperior" unicode="&#xb9;" horiz-adv-x="385" 
d="M183 289v317l-89 -75l-58 66l159 117h96v-425h-108z" />
    <glyph glyph-name="ordmasculine" unicode="&#xba;" horiz-adv-x="397" 
d="M23 575c0 44.667 16.667 81 50 109s75 42 125 42s91.833 -14 125.5 -42s50.5 -64.333 50.5 -109c0 -46 -16.667 -82.5 -50 -109.5s-75.333 -40.5 -126 -40.5s-92 13 -124 39c-34 28 -51 65 -51 111zM125 575c0 -18.667 6.66699 -34.334 20 -47.001s31 -19 53 -19
s39.833 6.33301 53.5 19s20.5 28.334 20.5 47.001s-6.83301 34.5 -20.5 47.5s-31.5 19.5 -53.5 19.5s-39.667 -6.5 -53 -19.5s-20 -28.833 -20 -47.5z" />
    <glyph glyph-name="guillemotright" unicode="&#xbb;" horiz-adv-x="538" 
d="M270 76l116 173l-116 173l91 61l159 -234l-159 -234zM28 76l116 173l-116 173l91 61l159 -234l-159 -234z" />
    <glyph glyph-name="onequarter" unicode="&#xbc;" horiz-adv-x="889" 
d="M716 0v85h-209v78l199 262h118v-256h57v-84h-57v-85h-108zM716 169v136h-2l-99 -136h101zM155 289v317l-89 -75l-58 66l159 117h96v-425h-108zM189 11l405 729l84 -47l-413 -725z" />
    <glyph glyph-name="onehalf" unicode="&#xbd;" horiz-adv-x="889" 
d="M155 289v317l-89 -75l-58 66l159 117h96v-425h-108zM544 0v88.9971l186 158c28.667 24.667 43 43 43 55c0 26 -19.667 39 -59 39c-18.667 0 -34 -5.16699 -46 -15.5s-18.667 -23.166 -20 -38.499l-102 6c3.33301 46 21 81 53 105c30 22 70 33 120 33
c48 0 87 -10.667 117 -32s45 -50.666 45 -87.999c0 -31.333 -5.33301 -55.666 -16 -72.999c-7.33301 -11.333 -22.333 -26 -45 -44l-140 -108v-2h201v-84h-337zM189 10.9971l405 729l84 -47l-413 -725z" />
    <glyph glyph-name="threequarters" unicode="&#xbe;" horiz-adv-x="889" 
d="M130 468l-0.00195312 84h34c49.333 0 74 15 74 45c0 22 -18.667 33 -56 33c-35.333 0 -56.666 -14.667 -63.999 -44l-109 20c18.667 76 76.334 114 173.001 114c46 0 84 -9.33301 114 -28c33.333 -20.667 50 -49.334 50 -86.001c0 -52.667 -27.667 -83.667 -83 -93v-2
c28 -3.33301 50.333 -14.5 67 -33.5s25 -41.167 25 -66.5c0 -41.333 -17.333 -73.333 -52 -96c-32 -21.333 -73.333 -32 -124 -32c-98 0 -156.333 39.333 -175 118l109 22c7.33301 -33.333 29.333 -50 66 -50c45.333 0 68 16 68 48c0 20.667 -9.66699 34.334 -29 41.001
c-12 4 -33 6 -63 6h-25zM719.998 0v85h-209v78l199 262h118v-256h57v-84h-57v-85h-108zM719.998 169v136h-2l-99 -136h101zM212.998 11l405 729l84 -47l-413 -725z" />
    <glyph glyph-name="questiondown" unicode="&#xbf;" horiz-adv-x="556" 
d="M340 252l0.00292969 -44c0 -37.333 -11.667 -67.333 -35 -90l-92 -84c-24 -24.667 -36 -46.667 -36 -66c0 -21.333 6.66699 -38.333 20 -51s30.666 -19 51.999 -19c30 0 53.5 8.33301 70.5 25s26.5 38 28.5 64l154 -10c-6.66699 -69.333 -32.334 -122.833 -77.001 -160.5
s-102.334 -56.5 -173.001 -56.5c-64 0 -116.667 16.667 -158 50c-44.667 36 -67 85 -67 147c0 38 8.83301 71 26.5 99s50.167 60.667 97.5 98c26 20.667 39 43.667 39 69v29h150zM357.003 400c0 -25.333 -9 -47 -27 -65s-39.667 -27 -65 -27s-47 9 -65 27s-27 39.667 -27 65
s9 47 27 65s39.667 27 65 27s47 -9 65 -27s27 -39.667 27 -65z" />
    <glyph glyph-name="Agrave" unicode="&#xc0;" horiz-adv-x="741" 
d="M-1 0l306 708h129l308 -708h-176l-61 150h-275l-59 -150h-172zM452 282l-87 220l-86 -220h173zM372 903l101 -144h-132l-173 144h204z" />
    <glyph glyph-name="Aacute" unicode="&#xc1;" horiz-adv-x="741" 
d="M-1 0l306 708h129l308 -708h-176l-61 150h-275l-59 -150h-172zM452 282l-87 220l-86 -220h173zM271 759l101 144h204l-173 -144h-132z" />
    <glyph glyph-name="Acircumflex" unicode="&#xc2;" horiz-adv-x="741" 
d="M-1 0l306 708h129l308 -708h-176l-61 150h-275l-59 -150h-172zM452 282l-87 220l-86 -220h173zM570 759h-138l-63 78l-62 -78h-135l119 144h163z" />
    <glyph glyph-name="Atilde" unicode="&#xc3;" horiz-adv-x="741" 
d="M-1 0l306 708h129l308 -708h-176l-61 150h-275l-59 -150h-172zM452 282l-87 220l-86 -220h173zM254 765h-79.002c6 38 19 69.333 39 94c24 29.333 53.333 44 88 44c23.333 0 52.333 -7 87 -21c24.667 -10 43.334 -15 56.001 -15c18.667 0 33.334 12 44.001 36h78
c-16 -92 -59.333 -138 -130 -138c-21.333 0 -47.333 7 -78 21s-51.667 21 -63 21c-19.333 0 -33.333 -14 -42 -42z" />
    <glyph glyph-name="Adieresis" unicode="&#xc4;" horiz-adv-x="741" 
d="M-1 0l306 708h129l308 -708h-176l-61 150h-275l-59 -150h-172zM452 282l-87 220l-86 -220h173zM266 753c-23.333 0 -42.999 8.5 -58.999 25.5s-24 37.167 -24 60.5c0 22 8 41.167 24 57.5s35 24.5 57 24.5c23.333 0 43.666 -7.83301 60.999 -23.5s26 -35.167 26 -58.5
c0 -24 -8.16699 -44.333 -24.5 -61s-36.5 -25 -60.5 -25zM474.001 753c-23.333 0 -42.999 8.5 -58.999 25.5s-24 37.167 -24 60.5c0 22 8 41.167 24 57.5s35 24.5 57 24.5c23.333 0 43.666 -7.83301 60.999 -23.5s26 -35.167 26 -58.5c0 -24 -8.16699 -44.333 -24.5 -61
s-36.5 -25 -60.5 -25z" />
    <glyph glyph-name="Aring" unicode="&#xc5;" horiz-adv-x="741" 
d="M-1 0l306 708h129l308 -708h-176l-61 150h-275l-59 -150h-172zM452 282l-87 220l-86 -220h173zM371 731c-30.667 0 -56.834 10.833 -78.501 32.5s-32.5 47.834 -32.5 78.501s10.833 56.834 32.5 78.501s47.834 32.5 78.501 32.5s56.834 -10.833 78.501 -32.5
s32.5 -47.834 32.5 -78.501s-10.833 -56.834 -32.5 -78.501s-47.834 -32.5 -78.501 -32.5zM320 842c0 -14 5 -26 15 -36s22 -15 36 -15s26 5 36 15s15 22 15 36s-5 26 -15 36s-22 15 -36 15s-26 -5 -36 -15s-15 -22 -15 -36z" />
    <glyph glyph-name="AE" unicode="&#xc6;" horiz-adv-x="1037" 
d="M534 0v150h-263l-95 -150h-191l449 708h538v-144h-282v-132h258v-144h-258v-144h294v-144h-450zM534 282v282h-17l-179 -282h196z" />
    <glyph glyph-name="Ccedilla" unicode="&#xc7;" horiz-adv-x="685" 
d="M655 622l-119.999 -98.001c-32.667 38.667 -77.334 58 -134.001 58c-59.333 0 -108.333 -21.5 -147 -64.5s-58 -97.5 -58 -163.5c0 -65.333 19.167 -119.666 57.5 -162.999s85.833 -65 142.5 -65c63.333 0 112 25.333 146 76l130 -97
c-28.667 -40.667 -66.667 -71.667 -114 -93c-44 -20 -91.333 -30 -142 -30c-112 0 -203.667 34 -275 102s-107 158 -107 270s35.667 202 107 270s163 102 275 102c105.333 0 185 -34.667 239 -104zM409.001 -0.000976562l-40.999 -60c84 0 126 -27.667 126 -83
c0 -32.667 -16.667 -58 -50 -76c-26.667 -14 -56.334 -21 -89.001 -21c-42 0 -83.667 10 -125 30l25 47c30 -11.333 55.667 -17 77 -17c44 0 66 10.667 66 32c0 10.667 -5.33301 19 -16 25s-22 9 -34 9c-11.333 0 -23.333 -2.66699 -36 -8l-32 29l62 93h67z" />
    <glyph glyph-name="Egrave" unicode="&#xc8;" horiz-adv-x="630" 
d="M78 0v708h481v-144h-325v-132h307v-144h-307v-144h343v-144h-499zM316 903l101 -144h-132l-173 144h204z" />
    <glyph glyph-name="Eacute" unicode="&#xc9;" horiz-adv-x="630" 
d="M78 0v708h481v-144h-325v-132h307v-144h-307v-144h343v-144h-499zM215 759l101 144h204l-173 -144h-132z" />
    <glyph glyph-name="Ecircumflex" unicode="&#xca;" horiz-adv-x="630" 
d="M78 0v708h481v-144h-325v-132h307v-144h-307v-144h343v-144h-499zM514 759h-138l-63 78l-62 -78h-135l119 144h163z" />
    <glyph glyph-name="Edieresis" unicode="&#xcb;" horiz-adv-x="630" 
d="M78 0v708h481v-144h-325v-132h307v-144h-307v-144h343v-144h-499zM210 753c-23.333 0 -42.999 8.5 -58.999 25.5s-24 37.167 -24 60.5c0 22 8 41.167 24 57.5s35 24.5 57 24.5c23.333 0 43.666 -7.83301 60.999 -23.5s26 -35.167 26 -58.5
c0 -24 -8.16699 -44.333 -24.5 -61s-36.5 -25 -60.5 -25zM418.001 753c-23.333 0 -42.999 8.5 -58.999 25.5s-24 37.167 -24 60.5c0 22 8 41.167 24 57.5s35 24.5 57 24.5c23.333 0 43.666 -7.83301 60.999 -23.5s26 -35.167 26 -58.5c0 -24 -8.16699 -44.333 -24.5 -61
s-36.5 -25 -60.5 -25z" />
    <glyph glyph-name="Igrave" unicode="&#xcc;" horiz-adv-x="296" 
d="M70 0v708h156v-708h-156zM149 903l101 -144h-132l-173 144h204z" />
    <glyph glyph-name="Iacute" unicode="&#xcd;" horiz-adv-x="296" 
d="M70 0v708h156v-708h-156zM48 759l101 144h204l-173 -144h-132z" />
    <glyph glyph-name="Icircumflex" unicode="&#xce;" horiz-adv-x="296" 
d="M70 0v708h156v-708h-156zM347 759h-138l-63 78l-62 -78h-135l119 144h163z" />
    <glyph glyph-name="Idieresis" unicode="&#xcf;" horiz-adv-x="296" 
d="M70 0v708h156v-708h-156zM43 753c-23.333 0 -42.999 8.5 -58.999 25.5s-24 37.167 -24 60.5c0 22 8 41.167 24 57.5s35 24.5 57 24.5c23.333 0 43.666 -7.83301 60.999 -23.5s26 -35.167 26 -58.5c0 -24 -8.16699 -44.333 -24.5 -61s-36.5 -25 -60.5 -25zM251.001 753
c-23.333 0 -42.999 8.5 -58.999 25.5s-24 37.167 -24 60.5c0 22 8 41.167 24 57.5s35 24.5 57 24.5c23.333 0 43.666 -7.83301 60.999 -23.5s26 -35.167 26 -58.5c0 -24 -8.16699 -44.333 -24.5 -61s-36.5 -25 -60.5 -25z" />
    <glyph glyph-name="Eth" unicode="&#xd0;" horiz-adv-x="759" 
d="M228 564v-144h198v-102h-198v-174h81c169.333 0 254 72 254 216c0 66 -24 117.333 -72 154c-44 33.333 -101 50 -171 50h-92zM72 0v318h-60v102h60v288h234c124 0 222.333 -27 295 -81c82.667 -61.333 124 -153 124 -275c0 -110 -40 -197.333 -120 -262
c-74 -60 -166.667 -90 -278 -90h-255z" />
    <glyph glyph-name="Ntilde" unicode="&#xd1;" horiz-adv-x="815" 
d="M72 0v708h212l301 -492h2v492h156v-708h-204l-309 504h-2v-504h-156zM291 765h-79.002c6 38 19 69.333 39 94c24 29.333 53.333 44 88 44c23.333 0 52.333 -7 87 -21c24.667 -10 43.334 -15 56.001 -15c18.667 0 33.334 12 44.001 36h78c-16 -92 -59.333 -138 -130 -138
c-21.333 0 -47.333 7 -78 21s-51.667 21 -63 21c-19.333 0 -33.333 -14 -42 -42z" />
    <glyph glyph-name="Ograve" unicode="&#xd2;" horiz-adv-x="832" 
d="M34 354c0 112 35.667 202 107 270s163 102 275 102s203.667 -34 275 -102s107 -158 107 -270s-35.667 -202 -107 -270s-163 -102 -275 -102s-203.667 34 -275 102s-107 158 -107 270zM196 354c0 -66.667 20.167 -121.334 60.5 -164.001s93.5 -64 159.5 -64
s119.167 21.333 159.5 64s60.5 97.334 60.5 164.001s-20.167 121.334 -60.5 164.001s-93.5 64 -159.5 64s-119.167 -21.333 -159.5 -64s-60.5 -97.334 -60.5 -164.001zM417 903l101 -144h-132l-173 144h204z" />
    <glyph glyph-name="Oacute" unicode="&#xd3;" horiz-adv-x="832" 
d="M34 354c0 112 35.667 202 107 270s163 102 275 102s203.667 -34 275 -102s107 -158 107 -270s-35.667 -202 -107 -270s-163 -102 -275 -102s-203.667 34 -275 102s-107 158 -107 270zM196 354c0 -66.667 20.167 -121.334 60.5 -164.001s93.5 -64 159.5 -64
s119.167 21.333 159.5 64s60.5 97.334 60.5 164.001s-20.167 121.334 -60.5 164.001s-93.5 64 -159.5 64s-119.167 -21.333 -159.5 -64s-60.5 -97.334 -60.5 -164.001zM316 759l101 144h204l-173 -144h-132z" />
    <glyph glyph-name="Ocircumflex" unicode="&#xd4;" horiz-adv-x="832" 
d="M34 354c0 112 35.667 202 107 270s163 102 275 102s203.667 -34 275 -102s107 -158 107 -270s-35.667 -202 -107 -270s-163 -102 -275 -102s-203.667 34 -275 102s-107 158 -107 270zM196 354c0 -66.667 20.167 -121.334 60.5 -164.001s93.5 -64 159.5 -64
s119.167 21.333 159.5 64s60.5 97.334 60.5 164.001s-20.167 121.334 -60.5 164.001s-93.5 64 -159.5 64s-119.167 -21.333 -159.5 -64s-60.5 -97.334 -60.5 -164.001zM615 759h-138l-63 78l-62 -78h-135l119 144h163z" />
    <glyph glyph-name="Otilde" unicode="&#xd5;" horiz-adv-x="832" 
d="M34 354c0 112 35.667 202 107 270s163 102 275 102s203.667 -34 275 -102s107 -158 107 -270s-35.667 -202 -107 -270s-163 -102 -275 -102s-203.667 34 -275 102s-107 158 -107 270zM196 354c0 -66.667 20.167 -121.334 60.5 -164.001s93.5 -64 159.5 -64
s119.167 21.333 159.5 64s60.5 97.334 60.5 164.001s-20.167 121.334 -60.5 164.001s-93.5 64 -159.5 64s-119.167 -21.333 -159.5 -64s-60.5 -97.334 -60.5 -164.001zM299 765h-79.002c6 38 19 69.333 39 94c24 29.333 53.333 44 88 44c23.333 0 52.333 -7 87 -21
c24.667 -10 43.334 -15 56.001 -15c18.667 0 33.334 12 44.001 36h78c-16 -92 -59.333 -138 -130 -138c-21.333 0 -47.333 7 -78 21s-51.667 21 -63 21c-19.333 0 -33.333 -14 -42 -42z" />
    <glyph glyph-name="Odieresis" unicode="&#xd6;" horiz-adv-x="832" 
d="M34 354c0 112 35.667 202 107 270s163 102 275 102s203.667 -34 275 -102s107 -158 107 -270s-35.667 -202 -107 -270s-163 -102 -275 -102s-203.667 34 -275 102s-107 158 -107 270zM196 354c0 -66.667 20.167 -121.334 60.5 -164.001s93.5 -64 159.5 -64
s119.167 21.333 159.5 64s60.5 97.334 60.5 164.001s-20.167 121.334 -60.5 164.001s-93.5 64 -159.5 64s-119.167 -21.333 -159.5 -64s-60.5 -97.334 -60.5 -164.001zM311 753c-23.333 0 -42.999 8.5 -58.999 25.5s-24 37.167 -24 60.5c0 22 8 41.167 24 57.5
s35 24.5 57 24.5c23.333 0 43.666 -7.83301 60.999 -23.5s26 -35.167 26 -58.5c0 -24 -8.16699 -44.333 -24.5 -61s-36.5 -25 -60.5 -25zM519.001 753c-23.333 0 -42.999 8.5 -58.999 25.5s-24 37.167 -24 60.5c0 22 8 41.167 24 57.5s35 24.5 57 24.5
c23.333 0 43.666 -7.83301 60.999 -23.5s26 -35.167 26 -58.5c0 -24 -8.16699 -44.333 -24.5 -61s-36.5 -25 -60.5 -25z" />
    <glyph glyph-name="multiply" unicode="&#xd7;" horiz-adv-x="666" 
d="M64 475l93 95l177 -175l172 174l89 -86l-173 -180l180 -173l-92 -93l-176 176l-177 -177l-89 86l174 181z" />
    <glyph glyph-name="Oslash" unicode="&#xd8;" horiz-adv-x="832" 
d="M34 -3l93 102c-62 67.333 -93 152.333 -93 255c0 112 35.667 202 107 270s163 102 275 102c87.333 0 163 -21.333 227 -64l92 100l55 -49l-90 -98c65.333 -67.333 98 -154.333 98 -261c0 -112 -35.667 -202 -107 -270s-163 -102 -275 -102c-91.333 0 -169 22.667 -233 68
l-93 -101zM235 217l304 331.001c-35.333 22.667 -76.333 34 -123 34c-66 0 -119.167 -21.333 -159.5 -64s-60.5 -97.334 -60.5 -164.001c0 -52 13 -97.667 39 -137zM592 497.001l-305 -333.002c36 -25.333 79 -38 129 -38c66 0 119.167 21.333 159.5 64
s60.5 97.334 60.5 164.001c0 56.667 -14.667 104.334 -44 143.001z" />
    <glyph glyph-name="Ugrave" unicode="&#xd9;" horiz-adv-x="741" 
d="M669 708l-0.00195312 -434.999c0 -86.667 -25 -156 -75 -208c-53.333 -55.333 -127.666 -83 -222.999 -83s-169.666 27.667 -222.999 83c-50.667 52 -76 121.333 -76 208v435h156v-429c0 -44 13.5 -80.5 40.5 -109.5s61.167 -43.5 102.5 -43.5
c40.667 0 74.5 14.667 101.5 44s40.5 65.666 40.5 108.999v429h156zM371.998 903.001l101 -144h-132l-173 144h204z" />
    <glyph glyph-name="Uacute" unicode="&#xda;" horiz-adv-x="741" 
d="M669 708l-0.00195312 -434.999c0 -86.667 -25 -156 -75 -208c-53.333 -55.333 -127.666 -83 -222.999 -83s-169.666 27.667 -222.999 83c-50.667 52 -76 121.333 -76 208v435h156v-429c0 -44 13.5 -80.5 40.5 -109.5s61.167 -43.5 102.5 -43.5
c40.667 0 74.5 14.667 101.5 44s40.5 65.666 40.5 108.999v429h156zM270.998 759.001l101 144h204l-173 -144h-132z" />
    <glyph glyph-name="Ucircumflex" unicode="&#xdb;" horiz-adv-x="741" 
d="M669 708l-0.00195312 -434.999c0 -86.667 -25 -156 -75 -208c-53.333 -55.333 -127.666 -83 -222.999 -83s-169.666 27.667 -222.999 83c-50.667 52 -76 121.333 -76 208v435h156v-429c0 -44 13.5 -80.5 40.5 -109.5s61.167 -43.5 102.5 -43.5
c40.667 0 74.5 14.667 101.5 44s40.5 65.666 40.5 108.999v429h156zM569.998 759.001h-138l-63 78l-62 -78h-135l119 144h163z" />
    <glyph glyph-name="Udieresis" unicode="&#xdc;" horiz-adv-x="741" 
d="M669 708l-0.00195312 -434.999c0 -86.667 -25 -156 -75 -208c-53.333 -55.333 -127.666 -83 -222.999 -83s-169.666 27.667 -222.999 83c-50.667 52 -76 121.333 -76 208v435h156v-429c0 -44 13.5 -80.5 40.5 -109.5s61.167 -43.5 102.5 -43.5
c40.667 0 74.5 14.667 101.5 44s40.5 65.666 40.5 108.999v429h156zM265.998 753.001c-23.333 0 -42.999 8.5 -58.999 25.5s-24 37.167 -24 60.5c0 22 8 41.167 24 57.5s35 24.5 57 24.5c23.333 0 43.666 -7.83301 60.999 -23.5s26 -35.167 26 -58.5
c0 -24 -8.16699 -44.333 -24.5 -61s-36.5 -25 -60.5 -25zM473.999 753.001c-23.333 0 -42.999 8.5 -58.999 25.5s-24 37.167 -24 60.5c0 22 8 41.167 24 57.5s35 24.5 57 24.5c23.333 0 43.666 -7.83301 60.999 -23.5s26 -35.167 26 -58.5c0 -24 -8.16699 -44.333 -24.5 -61
s-36.5 -25 -60.5 -25z" />
    <glyph glyph-name="Yacute" unicode="&#xdd;" horiz-adv-x="648" 
d="M246 0v302l-266 406h194l150 -265l159 265h185l-266 -406v-302h-156zM224 786l101 144h204l-173 -144h-132z" />
    <glyph glyph-name="Thorn" unicode="&#xde;" horiz-adv-x="630" 
d="M72 0v708h156v-126h107c179.333 0 269 -71.667 269 -215c0 -144.667 -87.333 -217 -262 -217h-114v-150h-156zM228 450v-168h104c73.333 0 110 28.333 110 85c0 55.333 -44.667 83 -134 83h-80z" />
    <glyph glyph-name="germandbls" unicode="&#xdf;" horiz-adv-x="630" 
d="M53 0l0.000976562 512.999c0 170 85.333 255 256 255c62.667 0 115.334 -14.667 158.001 -44c48.667 -33.333 73 -79.666 73 -138.999c0 -78.667 -34 -132 -102 -160v-2c50.667 -10 89.334 -33.5 116.001 -70.5s40 -82.167 40 -135.5c0 -70 -22.167 -125.667 -66.5 -167
s-101.5 -62 -171.5 -62c-30.667 0 -61.667 4 -93 12v122c17.333 -5.33301 33.666 -8 48.999 -8c39.333 0 72.166 10 98.499 30s39.5 49 39.5 87c0 81.333 -45.667 122 -137 122h-20v126h12c26 0 47.667 6.83301 65 20.5s26 33.167 26 58.5c0 24 -9 43 -27 57
s-39.333 21 -64 21c-30.667 0 -55.334 -8.83301 -74.001 -26.5s-28 -41.5 -28 -71.5v-538h-150z" />
    <glyph glyph-name="agrave" unicode="&#xe0;" horiz-adv-x="537" 
d="M358 0l0.00292969 61h-2c-30.667 -48.667 -82 -73 -154 -73c-48 0 -88.333 12.667 -121 38c-34.667 28 -52 65.333 -52 112c0 73.333 39.333 123 118 149c46 14.667 116.333 22 211 22c0 26 -9.33301 47 -28 63s-41.334 24 -68.001 24
c-46.667 0 -87.334 -19.333 -122.001 -58l-80 82c55.333 52 126.666 78 213.999 78c83.333 0 142.333 -21.667 177 -65c30 -38 45 -100 45 -186v-247h-138zM358.003 213h-36.999c-98.667 0 -148 -23.333 -148 -70c0 -16.667 7.66699 -30 23 -40
c13.333 -8.66699 29.333 -13 48 -13c31.333 0 58.166 8 80.499 24s33.5 38.333 33.5 67v32zM270.004 708l101 -144h-132l-173 144h204z" />
    <glyph glyph-name="aacute" unicode="&#xe1;" horiz-adv-x="537" 
d="M358 0l0.00292969 61h-2c-30.667 -48.667 -82 -73 -154 -73c-48 0 -88.333 12.667 -121 38c-34.667 28 -52 65.333 -52 112c0 73.333 39.333 123 118 149c46 14.667 116.333 22 211 22c0 26 -9.33301 47 -28 63s-41.334 24 -68.001 24
c-46.667 0 -87.334 -19.333 -122.001 -58l-80 82c55.333 52 126.666 78 213.999 78c83.333 0 142.333 -21.667 177 -65c30 -38 45 -100 45 -186v-247h-138zM358.003 213h-36.999c-98.667 0 -148 -23.333 -148 -70c0 -16.667 7.66699 -30 23 -40
c13.333 -8.66699 29.333 -13 48 -13c31.333 0 58.166 8 80.499 24s33.5 38.333 33.5 67v32zM169.004 564l101 144h204l-173 -144h-132z" />
    <glyph glyph-name="acircumflex" unicode="&#xe2;" horiz-adv-x="537" 
d="M358 0l0.00292969 61h-2c-30.667 -48.667 -82 -73 -154 -73c-48 0 -88.333 12.667 -121 38c-34.667 28 -52 65.333 -52 112c0 73.333 39.333 123 118 149c46 14.667 116.333 22 211 22c0 26 -9.33301 47 -28 63s-41.334 24 -68.001 24
c-46.667 0 -87.334 -19.333 -122.001 -58l-80 82c55.333 52 126.666 78 213.999 78c83.333 0 142.333 -21.667 177 -65c30 -38 45 -100 45 -186v-247h-138zM358.003 213h-36.999c-98.667 0 -148 -23.333 -148 -70c0 -16.667 7.66699 -30 23 -40
c13.333 -8.66699 29.333 -13 48 -13c31.333 0 58.166 8 80.499 24s33.5 38.333 33.5 67v32zM468.004 564h-138l-63 78l-62 -78h-135l119 144h163z" />
    <glyph glyph-name="atilde" unicode="&#xe3;" horiz-adv-x="537" 
d="M358 0l0.00292969 61h-2c-30.667 -48.667 -82 -73 -154 -73c-48 0 -88.333 12.667 -121 38c-34.667 28 -52 65.333 -52 112c0 73.333 39.333 123 118 149c46 14.667 116.333 22 211 22c0 26 -9.33301 47 -28 63s-41.334 24 -68.001 24
c-46.667 0 -87.334 -19.333 -122.001 -58l-80 82c55.333 52 126.666 78 213.999 78c83.333 0 142.333 -21.667 177 -65c30 -38 45 -100 45 -186v-247h-138zM358.003 213h-36.999c-98.667 0 -148 -23.333 -148 -70c0 -16.667 7.66699 -30 23 -40
c13.333 -8.66699 29.333 -13 48 -13c31.333 0 58.166 8 80.499 24s33.5 38.333 33.5 67v32zM152.004 570h-79.002c6 38 19 69.333 39 94c24 29.333 53.333 44 88 44c23.333 0 52.333 -7 87 -21c24.667 -10 43.334 -15 56.001 -15c18.667 0 33.334 12 44.001 36h78
c-16 -92 -59.333 -138 -130 -138c-21.333 0 -47.333 7 -78 21s-51.667 21 -63 21c-19.333 0 -33.333 -14 -42 -42z" />
    <glyph glyph-name="adieresis" unicode="&#xe4;" horiz-adv-x="537" 
d="M358 0l0.00292969 61h-2c-30.667 -48.667 -82 -73 -154 -73c-48 0 -88.333 12.667 -121 38c-34.667 28 -52 65.333 -52 112c0 73.333 39.333 123 118 149c46 14.667 116.333 22 211 22c0 26 -9.33301 47 -28 63s-41.334 24 -68.001 24
c-46.667 0 -87.334 -19.333 -122.001 -58l-80 82c55.333 52 126.666 78 213.999 78c83.333 0 142.333 -21.667 177 -65c30 -38 45 -100 45 -186v-247h-138zM358.003 213h-36.999c-98.667 0 -148 -23.333 -148 -70c0 -16.667 7.66699 -30 23 -40
c13.333 -8.66699 29.333 -13 48 -13c31.333 0 58.166 8 80.499 24s33.5 38.333 33.5 67v32zM164.004 558c-23.333 0 -42.999 8.5 -58.999 25.5s-24 37.167 -24 60.5c0 22 8 41.167 24 57.5s35 24.5 57 24.5c23.333 0 43.666 -7.83301 60.999 -23.5s26 -35.167 26 -58.5
c0 -24 -8.16699 -44.333 -24.5 -61s-36.5 -25 -60.5 -25zM372.005 558c-23.333 0 -42.999 8.5 -58.999 25.5s-24 37.167 -24 60.5c0 22 8 41.167 24 57.5s35 24.5 57 24.5c23.333 0 43.666 -7.83301 60.999 -23.5s26 -35.167 26 -58.5c0 -24 -8.16699 -44.333 -24.5 -61
s-36.5 -25 -60.5 -25z" />
    <glyph glyph-name="aring" unicode="&#xe5;" horiz-adv-x="537" 
d="M358 0l0.00292969 61h-2c-30.667 -48.667 -82 -73 -154 -73c-48 0 -88.333 12.667 -121 38c-34.667 28 -52 65.333 -52 112c0 73.333 39.333 123 118 149c46 14.667 116.333 22 211 22c0 26 -9.33301 47 -28 63s-41.334 24 -68.001 24
c-46.667 0 -87.334 -19.333 -122.001 -58l-80 82c55.333 52 126.666 78 213.999 78c83.333 0 142.333 -21.667 177 -65c30 -38 45 -100 45 -186v-247h-138zM358.003 213h-36.999c-98.667 0 -148 -23.333 -148 -70c0 -16.667 7.66699 -30 23 -40
c13.333 -8.66699 29.333 -13 48 -13c31.333 0 58.166 8 80.499 24s33.5 38.333 33.5 67v32zM269.004 545c-30.667 0 -56.834 10.833 -78.501 32.5s-32.5 47.834 -32.5 78.501s10.833 56.834 32.5 78.501s47.834 32.5 78.501 32.5s56.834 -10.833 78.501 -32.5
s32.5 -47.834 32.5 -78.501s-10.833 -56.834 -32.5 -78.501s-47.834 -32.5 -78.501 -32.5zM218.004 656c0 -14 5 -26 15 -36s22 -15 36 -15s26 5 36 15s15 22 15 36s-5 26 -15 36s-22 15 -36 15s-26 -5 -36 -15s-15 -22 -15 -36z" />
    <glyph glyph-name="ae" unicode="&#xe6;" horiz-adv-x="852" 
d="M140 338l-79.9971 82c55.333 52 126.666 78 213.999 78c65.333 0 118 -19.667 158 -59c40.667 39.333 95 59 163 59c70 0 125.5 -23 166.5 -69s61.5 -108 61.5 -186v-47h-348c6 -28.667 19.167 -51.5 39.5 -68.5s44.833 -25.5 73.5 -25.5
c42.667 0 78.334 19.667 107.001 59l105 -77c-50.667 -64 -119 -96 -205 -96c-92.667 0 -157.334 26.333 -194.001 79c-38 -52.667 -104.333 -79 -199 -79c-48 0 -88.333 12.667 -121 38c-34.667 28 -52 65.333 -52 112c0 68 36.667 114.333 110 139
c43.333 14 107.333 21 192 21h18c0 29.333 -7.83301 53 -23.5 71s-36.834 27 -63.501 27c-46.667 0 -87.334 -19.333 -122.001 -58zM173.003 139c0 -32.667 25.667 -49 77 -49c66 0 99 35.333 99 106h-18c-105.333 0 -158 -19 -158 -57zM475.003 298h198.001
c0.666992 25.333 -7.83301 47 -25.5 65s-39.834 27 -66.501 27c-31.333 0 -56.333 -9 -75 -27s-29 -39.667 -31 -65z" />
    <glyph glyph-name="ccedilla" unicode="&#xe7;" horiz-adv-x="482" 
d="M481 433l-99.001 -103.998c-17.333 24.667 -42 37 -74 37c-37.333 0 -66.666 -11.333 -87.999 -34s-32 -52.334 -32 -89.001s10.667 -66.334 32 -89.001s50.666 -34 87.999 -34c28.667 0 53.334 12.333 74.001 37l99 -104c-42.667 -43.333 -100.334 -65 -173.001 -65
c-76.667 0 -140.334 23 -191.001 69c-52.667 48 -79 110 -79 186s26.333 138 79 186c50.667 46 114.334 69 191.001 69c72.667 0 130.334 -21.667 173.001 -65zM306.999 0.00195312l-40.999 -60c84 0 126 -27.667 126 -83c0 -32.667 -16.667 -58 -50 -76
c-26.667 -14 -56.334 -21 -89.001 -21c-42 0 -83.667 10 -125 30l25 47c30 -11.333 55.667 -17 77 -17c44 0 66 10.667 66 32c0 10.667 -5.33301 19 -16 25s-22 9 -34 9c-11.333 0 -23.333 -2.66699 -36 -8l-32 29l62 93h67z" />
    <glyph glyph-name="egrave" unicode="&#xe8;" horiz-adv-x="574" 
d="M408 161l104.999 -77c-50.667 -64 -119 -96 -205 -96c-76.667 0 -140.334 23 -191.001 69c-52.667 48 -79 110 -79 186s26.333 138 79 186c50.667 46 114.334 69 191.001 69c70 0 125.5 -23 166.5 -69s61.5 -108 61.5 -186v-47h-348c6 -28.667 19.167 -51.5 39.5 -68.5
s44.833 -25.5 73.5 -25.5c42.667 0 78.334 19.667 107.001 59zM187.999 298h198.001c0.666992 25.333 -7.83301 47 -25.5 65s-39.834 27 -66.501 27c-31.333 0 -56.333 -9 -75 -27s-29 -39.667 -31 -65zM288 708l101 -144h-132l-173 144h204z" />
    <glyph glyph-name="eacute" unicode="&#xe9;" horiz-adv-x="574" 
d="M408 161l104.999 -77c-50.667 -64 -119 -96 -205 -96c-76.667 0 -140.334 23 -191.001 69c-52.667 48 -79 110 -79 186s26.333 138 79 186c50.667 46 114.334 69 191.001 69c70 0 125.5 -23 166.5 -69s61.5 -108 61.5 -186v-47h-348c6 -28.667 19.167 -51.5 39.5 -68.5
s44.833 -25.5 73.5 -25.5c42.667 0 78.334 19.667 107.001 59zM187.999 298h198.001c0.666992 25.333 -7.83301 47 -25.5 65s-39.834 27 -66.501 27c-31.333 0 -56.333 -9 -75 -27s-29 -39.667 -31 -65zM187 564l101 144h204l-173 -144h-132z" />
    <glyph glyph-name="ecircumflex" unicode="&#xea;" horiz-adv-x="574" 
d="M408 161l104.999 -77c-50.667 -64 -119 -96 -205 -96c-76.667 0 -140.334 23 -191.001 69c-52.667 48 -79 110 -79 186s26.333 138 79 186c50.667 46 114.334 69 191.001 69c70 0 125.5 -23 166.5 -69s61.5 -108 61.5 -186v-47h-348c6 -28.667 19.167 -51.5 39.5 -68.5
s44.833 -25.5 73.5 -25.5c42.667 0 78.334 19.667 107.001 59zM187.999 298h198.001c0.666992 25.333 -7.83301 47 -25.5 65s-39.834 27 -66.501 27c-31.333 0 -56.333 -9 -75 -27s-29 -39.667 -31 -65zM486 564h-138l-63 78l-62 -78h-135l119 144h163z" />
    <glyph glyph-name="edieresis" unicode="&#xeb;" horiz-adv-x="574" 
d="M408 161l104.999 -77c-50.667 -64 -119 -96 -205 -96c-76.667 0 -140.334 23 -191.001 69c-52.667 48 -79 110 -79 186s26.333 138 79 186c50.667 46 114.334 69 191.001 69c70 0 125.5 -23 166.5 -69s61.5 -108 61.5 -186v-47h-348c6 -28.667 19.167 -51.5 39.5 -68.5
s44.833 -25.5 73.5 -25.5c42.667 0 78.334 19.667 107.001 59zM187.999 298h198.001c0.666992 25.333 -7.83301 47 -25.5 65s-39.834 27 -66.501 27c-31.333 0 -56.333 -9 -75 -27s-29 -39.667 -31 -65zM182 558c-23.333 0 -42.999 8.5 -58.999 25.5s-24 37.167 -24 60.5
c0 22 8 41.167 24 57.5s35 24.5 57 24.5c23.333 0 43.666 -7.83301 60.999 -23.5s26 -35.167 26 -58.5c0 -24 -8.16699 -44.333 -24.5 -61s-36.5 -25 -60.5 -25zM390.001 558c-23.333 0 -42.999 8.5 -58.999 25.5s-24 37.167 -24 60.5c0 22 8 41.167 24 57.5
s35 24.5 57 24.5c23.333 0 43.666 -7.83301 60.999 -23.5s26 -35.167 26 -58.5c0 -24 -8.16699 -44.333 -24.5 -61s-36.5 -25 -60.5 -25z" />
    <glyph glyph-name="igrave" unicode="&#xec;" 
d="M55 0v486h150v-486h-150zM131 708l101 -144h-132l-173 144h204z" />
    <glyph glyph-name="iacute" unicode="&#xed;" 
d="M55 0v486h150v-486h-150zM30 564l101 144h204l-173 -144h-132z" />
    <glyph glyph-name="icircumflex" unicode="&#xee;" 
d="M55 0v486h150v-486h-150zM329 564h-138l-63 78l-62 -78h-135l119 144h163z" />
    <glyph glyph-name="idieresis" unicode="&#xef;" 
d="M55 0v486h150v-486h-150zM25 558c-23.333 0 -42.999 8.5 -58.999 25.5s-24 37.167 -24 60.5c0 22 8 41.167 24 57.5s35 24.5 57 24.5c23.333 0 43.666 -7.83301 60.999 -23.5s26 -35.167 26 -58.5c0 -24 -8.16699 -44.333 -24.5 -61s-36.5 -25 -60.5 -25zM233.001 558
c-23.333 0 -42.999 8.5 -58.999 25.5s-24 37.167 -24 60.5c0 22 8 41.167 24 57.5s35 24.5 57 24.5c23.333 0 43.666 -7.83301 60.999 -23.5s26 -35.167 26 -58.5c0 -24 -8.16699 -44.333 -24.5 -61s-36.5 -25 -60.5 -25z" />
    <glyph glyph-name="eth" unicode="&#xf0;" horiz-adv-x="610" 
d="M449 777l77 -67.001l-123 -51c49.333 -52 86 -99 110 -141c41.333 -73.333 62 -151.333 62 -234c0 -92 -23 -164 -69 -216c-48 -54 -115 -80.667 -201 -80c-76.667 0.666992 -140.334 24 -191.001 70c-52.667 47.333 -79 109 -79 185c0 74.667 26 136.667 78 186
c48.667 46 105.334 69 170.001 69c44 0 76.667 -8.66699 98 -26l2 2c-38.667 54.667 -75.667 97.667 -111 129l-106 -45l-72 68l108 46c-19.333 20.667 -42.333 40.334 -69 59.001l122 70c27.333 -21.333 54 -45.333 80 -72zM185 242.999
c0 -36.667 10.667 -66.334 32 -89.001s50.666 -34 87.999 -34s66.666 11.333 87.999 34s32 52.334 32 89.001s-10.667 66.334 -32 89.001s-50.666 34 -87.999 34s-66.666 -11.333 -87.999 -34s-32 -52.334 -32 -89.001z" />
    <glyph glyph-name="ntilde" unicode="&#xf1;" horiz-adv-x="574" 
d="M53 0v486.001h144v-66h2c11.333 21.333 28.333 39 51 53c26.667 16.667 57 25 91 25c70 0 119 -22 147 -66c22 -35.333 33 -90 33 -164v-268h-150v238c0 39.333 -3.33301 67.666 -10 84.999c-11.333 28.667 -34 43 -68 43c-60 0 -90 -41.333 -90 -124v-242h-150z
M170 570.001h-79.002c6 38 19 69.333 39 94c24 29.333 53.333 44 88 44c23.333 0 52.333 -7 87 -21c24.667 -10 43.334 -15 56.001 -15c18.667 0 33.334 12 44.001 36h78c-16 -92 -59.333 -138 -130 -138c-21.333 0 -47.333 7 -78 21s-51.667 21 -63 21
c-19.333 0 -33.333 -14 -42 -42z" />
    <glyph glyph-name="ograve" unicode="&#xf2;" horiz-adv-x="610" 
d="M35 243c0 76 26.333 138 79 186c50.667 46 114.334 69 191.001 69s140.334 -23 191.001 -69c52.667 -48 79 -110 79 -186s-25.833 -137.5 -77.5 -184.5s-115.834 -70.5 -192.501 -70.5s-140.334 23 -191.001 69c-52.667 48 -79 110 -79 186zM185 243
c0 -36.667 10.667 -66.334 32 -89.001s50.666 -34 87.999 -34s66.666 11.333 87.999 34s32 52.334 32 89.001s-10.667 66.334 -32 89.001s-50.666 34 -87.999 34s-66.666 -11.333 -87.999 -34s-32 -52.334 -32 -89.001zM306 708l101 -144h-132l-173 144h204z" />
    <glyph glyph-name="oacute" unicode="&#xf3;" horiz-adv-x="610" 
d="M35 243c0 76 26.333 138 79 186c50.667 46 114.334 69 191.001 69s140.334 -23 191.001 -69c52.667 -48 79 -110 79 -186s-25.833 -137.5 -77.5 -184.5s-115.834 -70.5 -192.501 -70.5s-140.334 23 -191.001 69c-52.667 48 -79 110 -79 186zM185 243
c0 -36.667 10.667 -66.334 32 -89.001s50.666 -34 87.999 -34s66.666 11.333 87.999 34s32 52.334 32 89.001s-10.667 66.334 -32 89.001s-50.666 34 -87.999 34s-66.666 -11.333 -87.999 -34s-32 -52.334 -32 -89.001zM205 564l101 144h204l-173 -144h-132z" />
    <glyph glyph-name="ocircumflex" unicode="&#xf4;" horiz-adv-x="610" 
d="M35 243c0 76 26.333 138 79 186c50.667 46 114.334 69 191.001 69s140.334 -23 191.001 -69c52.667 -48 79 -110 79 -186s-25.833 -137.5 -77.5 -184.5s-115.834 -70.5 -192.501 -70.5s-140.334 23 -191.001 69c-52.667 48 -79 110 -79 186zM185 243
c0 -36.667 10.667 -66.334 32 -89.001s50.666 -34 87.999 -34s66.666 11.333 87.999 34s32 52.334 32 89.001s-10.667 66.334 -32 89.001s-50.666 34 -87.999 34s-66.666 -11.333 -87.999 -34s-32 -52.334 -32 -89.001zM504 564h-138l-63 78l-62 -78h-135l119 144h163z" />
    <glyph glyph-name="otilde" unicode="&#xf5;" horiz-adv-x="610" 
d="M35 243c0 76 26.333 138 79 186c50.667 46 114.334 69 191.001 69s140.334 -23 191.001 -69c52.667 -48 79 -110 79 -186s-25.833 -137.5 -77.5 -184.5s-115.834 -70.5 -192.501 -70.5s-140.334 23 -191.001 69c-52.667 48 -79 110 -79 186zM185 243
c0 -36.667 10.667 -66.334 32 -89.001s50.666 -34 87.999 -34s66.666 11.333 87.999 34s32 52.334 32 89.001s-10.667 66.334 -32 89.001s-50.666 34 -87.999 34s-66.666 -11.333 -87.999 -34s-32 -52.334 -32 -89.001zM188 570h-79.002c6 38 19 69.333 39 94
c24 29.333 53.333 44 88 44c23.333 0 52.333 -7 87 -21c24.667 -10 43.334 -15 56.001 -15c18.667 0 33.334 12 44.001 36h78c-16 -92 -59.333 -138 -130 -138c-21.333 0 -47.333 7 -78 21s-51.667 21 -63 21c-19.333 0 -33.333 -14 -42 -42z" />
    <glyph glyph-name="odieresis" unicode="&#xf6;" horiz-adv-x="610" 
d="M35 243c0 76 26.333 138 79 186c50.667 46 114.334 69 191.001 69s140.334 -23 191.001 -69c52.667 -48 79 -110 79 -186s-25.833 -137.5 -77.5 -184.5s-115.834 -70.5 -192.501 -70.5s-140.334 23 -191.001 69c-52.667 48 -79 110 -79 186zM185 243
c0 -36.667 10.667 -66.334 32 -89.001s50.666 -34 87.999 -34s66.666 11.333 87.999 34s32 52.334 32 89.001s-10.667 66.334 -32 89.001s-50.666 34 -87.999 34s-66.666 -11.333 -87.999 -34s-32 -52.334 -32 -89.001zM200 558c-23.333 0 -42.999 8.5 -58.999 25.5
s-24 37.167 -24 60.5c0 22 8 41.167 24 57.5s35 24.5 57 24.5c23.333 0 43.666 -7.83301 60.999 -23.5s26 -35.167 26 -58.5c0 -24 -8.16699 -44.333 -24.5 -61s-36.5 -25 -60.5 -25zM408.001 558c-23.333 0 -42.999 8.5 -58.999 25.5s-24 37.167 -24 60.5
c0 22 8 41.167 24 57.5s35 24.5 57 24.5c23.333 0 43.666 -7.83301 60.999 -23.5s26 -35.167 26 -58.5c0 -24 -8.16699 -44.333 -24.5 -61s-36.5 -25 -60.5 -25z" />
    <glyph glyph-name="divide" unicode="&#xf7;" horiz-adv-x="666" 
d="M59 240v126h548v-126h-548zM247 114c0 23.333 8.5 43.5 25.5 60.5s37.167 25.5 60.5 25.5s43.5 -8.5 60.5 -25.5s25.5 -37.167 25.5 -60.5s-8.5 -43.5 -25.5 -60.5s-37.167 -25.5 -60.5 -25.5s-43.5 8.5 -60.5 25.5s-25.5 37.167 -25.5 60.5zM247 492
c0 23.333 8.5 43.5 25.5 60.5s37.167 25.5 60.5 25.5s43.5 -8.5 60.5 -25.5s25.5 -37.167 25.5 -60.5s-8.5 -43.5 -25.5 -60.5s-37.167 -25.5 -60.5 -25.5s-43.5 8.5 -60.5 25.5s-25.5 37.167 -25.5 60.5z" />
    <glyph glyph-name="oslash" unicode="&#xf8;" horiz-adv-x="610" 
d="M26 6l70 69.999c-40.667 44.667 -61 100.334 -61 167.001c0 76 26.333 138 79 186c50.667 46 114.334 69 191.001 69c62.667 0 117.667 -16.333 165 -49l67 67l47 -45l-66 -66c38 -44 57 -98 57 -162c0 -76 -25.833 -137.5 -77.5 -184.5s-115.834 -70.5 -192.501 -70.5
c-60 0 -113 15.333 -159 46l-73 -73zM200 179.999l169.999 170.001c-18 10.667 -39.667 16 -65 16c-37.333 0 -66.666 -11.333 -87.999 -34s-32 -52.334 -32 -89.001c0 -24 5 -45 15 -63zM412.999 300l-166.999 -166.001c17.333 -9.33301 37 -14 59 -14
c37.333 0 66.666 11.333 87.999 34s32 52.334 32 89.001c0 21.333 -4 40.333 -12 57z" />
    <glyph glyph-name="ugrave" unicode="&#xf9;" horiz-adv-x="574" 
d="M521 486v-486.001h-144v66h-2c-11.333 -21.333 -28.333 -39 -51 -53c-26.667 -16.667 -57 -25 -91 -25c-70 0 -119 22 -147 66c-22 35.333 -33 90 -33 164v268h150v-238c0 -39.333 3.33301 -67.666 10 -84.999c11.333 -28.667 34 -43 68 -43c60 0 90 41.333 90 124v242
h150zM288 707.999l101 -144h-132l-173 144h204z" />
    <glyph glyph-name="uacute" unicode="&#xfa;" horiz-adv-x="574" 
d="M521 486v-486.001h-144v66h-2c-11.333 -21.333 -28.333 -39 -51 -53c-26.667 -16.667 -57 -25 -91 -25c-70 0 -119 22 -147 66c-22 35.333 -33 90 -33 164v268h150v-238c0 -39.333 3.33301 -67.666 10 -84.999c11.333 -28.667 34 -43 68 -43c60 0 90 41.333 90 124v242
h150zM187 563.999l101 144h204l-173 -144h-132z" />
    <glyph glyph-name="ucircumflex" unicode="&#xfb;" horiz-adv-x="574" 
d="M521 486v-486.001h-144v66h-2c-11.333 -21.333 -28.333 -39 -51 -53c-26.667 -16.667 -57 -25 -91 -25c-70 0 -119 22 -147 66c-22 35.333 -33 90 -33 164v268h150v-238c0 -39.333 3.33301 -67.666 10 -84.999c11.333 -28.667 34 -43 68 -43c60 0 90 41.333 90 124v242
h150zM486 563.999h-138l-63 78l-62 -78h-135l119 144h163z" />
    <glyph glyph-name="udieresis" unicode="&#xfc;" horiz-adv-x="574" 
d="M521 486v-486.001h-144v66h-2c-11.333 -21.333 -28.333 -39 -51 -53c-26.667 -16.667 -57 -25 -91 -25c-70 0 -119 22 -147 66c-22 35.333 -33 90 -33 164v268h150v-238c0 -39.333 3.33301 -67.666 10 -84.999c11.333 -28.667 34 -43 68 -43c60 0 90 41.333 90 124v242
h150zM182 557.999c-23.333 0 -42.999 8.5 -58.999 25.5s-24 37.167 -24 60.5c0 22 8 41.167 24 57.5s35 24.5 57 24.5c23.333 0 43.666 -7.83301 60.999 -23.5s26 -35.167 26 -58.5c0 -24 -8.16699 -44.333 -24.5 -61s-36.5 -25 -60.5 -25zM390.001 557.999
c-23.333 0 -42.999 8.5 -58.999 25.5s-24 37.167 -24 60.5c0 22 8 41.167 24 57.5s35 24.5 57 24.5c23.333 0 43.666 -7.83301 60.999 -23.5s26 -35.167 26 -58.5c0 -24 -8.16699 -44.333 -24.5 -61s-36.5 -25 -60.5 -25z" />
    <glyph glyph-name="yacute" unicode="&#xfd;" horiz-adv-x="556" 
d="M553 486l-220.001 -564.999c-24 -61.333 -45.333 -101 -64 -119c-29.333 -28 -76.666 -42 -141.999 -42c-38.667 0 -76 6 -112 18l20 123c23.333 -10 46.666 -15 69.999 -15c31.333 0 54 7 68 21c8.66699 9.33301 19.334 29.666 32.001 60.999l11 28l-213 490h162
l125 -321h2l107 321h154zM177.999 564.001l101 144h204l-173 -144h-132z" />
    <glyph glyph-name="thorn" unicode="&#xfe;" horiz-adv-x="630" 
d="M67 -228v984h150v-322h2c11.333 19.333 30 34.833 56 46.5s53 17.5 81 17.5c71.333 0 129 -23.333 173 -70s66 -107 66 -181c0 -70.667 -19.667 -130.667 -59 -180c-42 -52.667 -96.333 -79 -163 -79c-72 0 -123.333 21.333 -154 64h-2v-280h-150zM205 243
c0 -36.667 10.667 -66.334 32 -89.001s50.666 -34 87.999 -34s66.666 11.333 87.999 34s32 52.334 32 89.001s-10.667 66.334 -32 89.001s-50.666 34 -87.999 34s-66.666 -11.333 -87.999 -34s-32 -52.334 -32 -89.001z" />
    <glyph glyph-name="ydieresis" unicode="&#xff;" horiz-adv-x="556" 
d="M553 486l-220.001 -564.999c-24 -61.333 -45.333 -101 -64 -119c-29.333 -28 -76.666 -42 -141.999 -42c-38.667 0 -76 6 -112 18l20 123c23.333 -10 46.666 -15 69.999 -15c31.333 0 54 7 68 21c8.66699 9.33301 19.334 29.666 32.001 60.999l11 28l-213 490h162
l125 -321h2l107 321h154zM172.999 558.001c-23.333 0 -42.999 8.5 -58.999 25.5s-24 37.167 -24 60.5c0 22 8 41.167 24 57.5s35 24.5 57 24.5c23.333 0 43.666 -7.83301 60.999 -23.5s26 -35.167 26 -58.5c0 -24 -8.16699 -44.333 -24.5 -61s-36.5 -25 -60.5 -25z
M381 558.001c-23.333 0 -42.999 8.5 -58.999 25.5s-24 37.167 -24 60.5c0 22 8 41.167 24 57.5s35 24.5 57 24.5c23.333 0 43.666 -7.83301 60.999 -23.5s26 -35.167 26 -58.5c0 -24 -8.16699 -44.333 -24.5 -61s-36.5 -25 -60.5 -25z" />
    <glyph glyph-name="dotlessi" unicode="&#x131;" 
d="M55 0v486h150v-486h-150z" />
    <glyph glyph-name="Lslash" unicode="&#x141;" horiz-adv-x="537" 
d="M78 0v160l-60 -52v132l60 52v416h156v-281l210 185v-130l-210 -184v-154h289v-144h-445z" />
    <glyph glyph-name="lslash" unicode="&#x142;" 
d="M55 0v248l-60 -61v129l60 61v379h150v-229l60 61v-129l-60 -61v-398h-150z" />
    <glyph glyph-name="OE" unicode="&#x152;" horiz-adv-x="1018" 
d="M665 564v-132h264v-144h-264v-144h300v-144h-531c-106.667 0 -197 28 -271 84c-86 64.667 -129 154.667 -129 270c0 111.333 38 199 114 263c71.333 60.667 164 91 278 91h527v-144h-288zM509 144v420h-51c-79.333 0 -142.333 -17.333 -189 -52
c-48.667 -37.333 -73 -90 -73 -158s24.333 -120.333 73 -157c46.667 -35.333 109.667 -53 189 -53h51z" />
    <glyph glyph-name="oe" unicode="&#x153;" horiz-adv-x="944" 
d="M778 161l104.999 -77c-50.667 -64 -119 -96 -205 -96c-84.667 0 -148 23 -190 69c-44 -46 -104.667 -69 -182 -69s-141.333 23 -192 69c-52.667 48 -79 110 -79 186s26.333 138 79 186c50.667 46 114.667 69 192 69c73.333 0 134 -24.333 182 -73
c46.667 48.667 110 73 190 73c70 0 125.5 -23 166.5 -69s61.5 -108 61.5 -186v-47h-348c6 -28.667 19.167 -51.5 39.5 -68.5s44.833 -25.5 73.5 -25.5c42.667 0 78.334 19.667 107.001 59zM305.999 366c-37.333 0 -66.833 -11.1709 -88.5 -33.5039
s-32.5 -52.166 -32.5 -89.499s10.833 -67.166 32.5 -89.499s51.167 -33.5 88.5 -33.5s66.666 11.333 87.999 34s32 52.334 32 89.001s-10.667 66.334 -32 89.001s-50.666 34 -87.999 34zM557.999 297.996h198.001c0.666992 25.333 -7.83301 47 -25.5 65
s-39.834 27 -66.501 27c-31.333 0 -56.333 -9 -75 -27s-29 -39.667 -31 -65z" />
    <glyph glyph-name="Scaron" unicode="&#x160;" horiz-adv-x="574" 
d="M529 652l-106.999 -117c-24.667 31.333 -62.334 47 -113.001 47c-26 0 -49 -5.66699 -69 -17c-24 -13.333 -36 -32 -36 -56c0 -33.333 28.333 -59.333 85 -78c90 -30 142 -49.333 156 -58c56.667 -34 85 -86.667 85 -158c0 -75.333 -27.333 -134 -82 -176
c-49.333 -38 -113 -57 -191 -57c-94.667 0 -174 29.667 -238 89l111 122c34 -44.667 79.333 -67 136 -67c28 0 52.333 6 73 18c23.333 14 35 32.667 35 56c0 34 -28.667 61.333 -86 82c-96 34.667 -149.333 55 -160 61c-57.333 34.667 -86 85.667 -86 153
c0 72 27.667 129.333 83 172c50.667 38.667 113 58 187 58c88.667 0 161 -24.667 217 -74zM84.001 930h138l63 -78l62 78h135l-119 -144h-163z" />
    <glyph glyph-name="scaron" unicode="&#x161;" horiz-adv-x="463" 
d="M420 434l-92 -91c-22 27.333 -51 41 -87 41c-36.667 0 -55 -13.333 -55 -40c0 -18 22 -32 66 -42c61.333 -14 101.666 -26.333 120.999 -37c44 -24.667 66 -63.667 66 -117c0 -56.667 -24.333 -98.667 -73 -126c-39.333 -22.667 -89.666 -34 -150.999 -34
c-84 0 -147.667 22 -191 66l91 101c29.333 -35.333 64.666 -53 105.999 -53c45.333 0 68 11.667 68 35c0 20 -22 35 -66 45c-63.333 14.667 -103.666 26.667 -120.999 36c-44 24 -66 62.667 -66 116s21.333 95 64 125c37.333 26 84 39 140 39c80 0 140 -21.333 180 -64z
M29 708h138l63 -78l62 78h135l-119 -144h-163z" />
    <glyph glyph-name="Ydieresis" unicode="&#x178;" horiz-adv-x="648" 
d="M246 0v302l-266 406h194l150 -265l159 265h185l-266 -406v-302h-156zM219 780c-23.333 0 -42.999 8.5 -58.999 25.5s-24 37.167 -24 60.5c0 22 8 41.167 24 57.5s35 24.5 57 24.5c23.333 0 43.666 -7.83301 60.999 -23.5s26 -35.167 26 -58.5
c0 -24 -8.16699 -44.333 -24.5 -61s-36.5 -25 -60.5 -25zM427.001 780c-23.333 0 -42.999 8.5 -58.999 25.5s-24 37.167 -24 60.5c0 22 8 41.167 24 57.5s35 24.5 57 24.5c23.333 0 43.666 -7.83301 60.999 -23.5s26 -35.167 26 -58.5c0 -24 -8.16699 -44.333 -24.5 -61
s-36.5 -25 -60.5 -25z" />
    <glyph glyph-name="Zcaron" unicode="&#x17d;" horiz-adv-x="630" 
d="M35 0v144l359 426h-346v138h535v-138l-352 -426h364v-144h-560zM112 930h138l63 -78l62 78h135l-119 -144h-163z" />
    <glyph glyph-name="zcaron" unicode="&#x17e;" horiz-adv-x="500" 
d="M34 0v150l252 216h-246v120h420v-144l-264 -222h270v-120h-432zM47 708h138l63 -78l62 78h135l-119 -144h-163z" />
    <glyph glyph-name="florin" unicode="&#x192;" horiz-adv-x="592" 
d="M496 434v-102h-146l-58 -292c-24 -119.333 -91 -179 -201 -179c-38 0 -75 8 -111 24l52 119c12.667 -7.33301 28 -11 46 -11c20.667 0 36.5 7.16699 47.5 21.5s20.167 38.833 27.5 73.5l50 244h-114v102h134l18 91c14.667 74 36 125 64 153s72.667 42 134 42
c44 0 87.333 -10 130 -30l-53 -113c-16.667 7.33301 -34 11 -52 11c-23.333 0 -40.833 -6.33301 -52.5 -19s-20.5 -34 -26.5 -64l-15 -71h126z" />
    <glyph glyph-name="circumflex" unicode="&#x2c6;" 
d="M329 564h-138l-63 78l-62 -78h-135l119 144h163z" />
    <glyph glyph-name="caron" unicode="&#x2c7;" 
d="M-73 708h138l63 -78l62 78h135l-119 -144h-163z" />
    <glyph glyph-name="breve" unicode="&#x2d8;" 
d="M-54 708l80.001 0.000976562c7.33301 -32 42 -48 104 -48c30.667 0 52.667 2.66699 66 8c19.333 6.66699 32.333 20 39 40h79c-5.33301 -48.667 -25.333 -85.334 -60 -110.001c-32 -22.667 -73.333 -34 -124 -34c-52 0 -93.667 11 -125 33
c-36.667 24.667 -56.334 61.667 -59.001 111z" />
    <glyph glyph-name="dotaccent" unicode="&#x2d9;" 
d="M129 558c-23.333 0 -42.999 8.5 -58.999 25.5s-24 37.167 -24 60.5c0 22 8 41.167 24 57.5s35 24.5 57 24.5c23.333 0 43.666 -7.83301 60.999 -23.5s26 -35.167 26 -58.5c0 -24 -8.16699 -44.333 -24.5 -61s-36.5 -25 -60.5 -25z" />
    <glyph glyph-name="ring" unicode="&#x2da;" 
d="M130 545c-30.667 0 -56.834 10.833 -78.501 32.5s-32.5 47.834 -32.5 78.501s10.833 56.834 32.5 78.501s47.834 32.5 78.501 32.5s56.834 -10.833 78.501 -32.5s32.5 -47.834 32.5 -78.501s-10.833 -56.834 -32.5 -78.501s-47.834 -32.5 -78.501 -32.5zM79 656
c0 -14 5 -26 15 -36s22 -15 36 -15s26 5 36 15s15 22 15 36s-5 26 -15 36s-22 15 -36 15s-26 -5 -36 -15s-15 -22 -15 -36z" />
    <glyph glyph-name="ogonek" unicode="&#x2db;" 
d="M177 -145l28.002 -53.002c-36.667 -28 -73 -42 -109 -42c-28.667 0 -53.334 8.33301 -74.001 25s-31 39.334 -31 68.001c0 26 12 55.333 36 88c19.333 26.667 42.333 50.334 69 71.001h68c-20 -16.667 -38 -37 -54 -61c-19.333 -28 -29 -52.333 -29 -73
c0 -11.333 4.16699 -21.833 12.5 -31.5s18.166 -14.5 29.499 -14.5c18 0 36 7.66699 54 23z" />
    <glyph glyph-name="tilde" unicode="&#x2dc;" 
d="M13 570h-79.002c6 38 19 69.333 39 94c24 29.333 53.333 44 88 44c23.333 0 52.333 -7 87 -21c24.667 -10 43.334 -15 56.001 -15c18.667 0 33.334 12 44.001 36h78c-16 -92 -59.333 -138 -130 -138c-21.333 0 -47.333 7 -78 21s-51.667 21 -63 21
c-19.333 0 -33.333 -14 -42 -42z" />
    <glyph glyph-name="hungarumlaut" unicode="&#x2dd;" 
d="M-102 564l101 144h204l-173 -144h-132zM162 564l101 144h204l-173 -144h-132z" />
    <glyph glyph-name="endash" unicode="&#x2013;" horiz-adv-x="500" 
d="M0 189v120h500v-120h-500z" />
    <glyph glyph-name="emdash" unicode="&#x2014;" horiz-adv-x="1000" 
d="M0 189v120h1000v-120h-1000z" />
    <glyph glyph-name="quoteleft" unicode="&#x2018;" horiz-adv-x="296" 
d="M39 426l90 282h128l-74 -282h-144z" />
    <glyph glyph-name="quoteright" unicode="&#x2019;" horiz-adv-x="296" 
d="M257 708l-90 -282h-128l74 282h144z" />
    <glyph glyph-name="quotesinglbase" unicode="&#x201a;" horiz-adv-x="296" 
d="M257 156l-90 -282h-128l74 282h144z" />
    <glyph glyph-name="quotedblleft" unicode="&#x201c;" horiz-adv-x="520" 
d="M44 426l90 282h128l-74 -282h-144zM258 426l90 282h128l-74 -282h-144z" />
    <glyph glyph-name="quotedblright" unicode="&#x201d;" horiz-adv-x="520" 
d="M476 708l-90 -282h-128l74 282h144zM262 708l-90 -282h-128l74 282h144z" />
    <glyph glyph-name="quotedblbase" unicode="&#x201e;" horiz-adv-x="520" 
d="M476 156l-90 -282h-128l74 282h144zM262 156l-90 -282h-128l74 282h144z" />
    <glyph glyph-name="dagger" unicode="&#x2020;" horiz-adv-x="592" 
d="M224 -133v505h-190v126h190v210h138v-210h196v-126h-196v-505h-138z" />
    <glyph glyph-name="daggerdbl" unicode="&#x2021;" horiz-adv-x="592" 
d="M227 -133v180h-193v120h193v241h-193v120h193v180h138v-180h193v-120h-193v-241h193v-120h-193v-180h-138z" />
    <glyph glyph-name="bullet" unicode="&#x2022;" horiz-adv-x="500" 
d="M73 354c0 49.333 17.333 91.166 52 125.499s76.334 51.5 125.001 51.5c49.333 0 91.166 -17.167 125.499 -51.5s51.5 -76.166 51.5 -125.499c0 -48.667 -17.167 -90.334 -51.5 -125.001s-76.166 -52 -125.499 -52c-48.667 0 -90.334 17.333 -125.001 52
s-52 76.334 -52 125.001z" />
    <glyph glyph-name="ellipsis" unicode="&#x2026;" horiz-adv-x="1000" 
d="M75 86c0 25.333 9 47 27 65s39.667 27 65 27s47 -9 65 -27s27 -39.667 27 -65s-9 -47 -27 -65s-39.667 -27 -65 -27s-47 9 -65 27s-27 39.667 -27 65zM408 86c0 25.333 9 47 27 65s39.667 27 65 27s47 -9 65 -27s27 -39.667 27 -65s-9 -47 -27 -65s-39.667 -27 -65 -27
s-47 9 -65 27s-27 39.667 -27 65zM741 86c0 25.333 9 47 27 65s39.667 27 65 27s47 -9 65 -27s27 -39.667 27 -65s-9 -47 -27 -65s-39.667 -27 -65 -27s-47 9 -65 27s-27 39.667 -27 65z" />
    <glyph glyph-name="perthousand" unicode="&#x2030;" horiz-adv-x="1167" 
d="M395 165c0 48.667 17.167 90.167 51.5 124.5s75.833 51.5 124.5 51.5s90.167 -17.167 124.5 -51.5s51.5 -75.833 51.5 -124.5s-17.167 -90.334 -51.5 -125.001s-75.833 -52 -124.5 -52s-90.167 17.333 -124.5 52s-51.5 76.334 -51.5 125.001zM782 165
c0 48.667 17.167 90.167 51.5 124.5s75.833 51.5 124.5 51.5s90.334 -17.167 125.001 -51.5s52 -75.833 52 -124.5s-17.333 -90.334 -52 -125.001s-76.334 -52 -125.001 -52s-90.167 17.333 -124.5 52s-51.5 76.334 -51.5 125.001zM32 544
c0 48.667 17.167 90.167 51.5 124.5s75.833 51.5 124.5 51.5s90.334 -17.167 125.001 -51.5s52 -75.833 52 -124.5s-17.333 -90.334 -52 -125.001s-76.334 -52 -125.001 -52s-90.167 17.333 -124.5 52s-51.5 76.334 -51.5 125.001zM128 544c0 -22 7.83301 -41 23.5 -57
s34.5 -24 56.5 -24s41 8 57 24s24 35 24 57s-8 40.833 -24 56.5s-35 23.5 -57 23.5s-40.833 -7.83301 -56.5 -23.5s-23.5 -34.5 -23.5 -56.5zM491 165c0 -22 7.83301 -41 23.5 -57s34.5 -24 56.5 -24s40.833 8 56.5 24s23.5 35 23.5 57s-7.83301 40.833 -23.5 56.5
s-34.5 23.5 -56.5 23.5s-40.833 -7.83301 -56.5 -23.5s-23.5 -34.5 -23.5 -56.5zM878 165c0 -22 7.83301 -41 23.5 -57s34.5 -24 56.5 -24s41 8 57 24s24 35 24 57s-8 40.833 -24 56.5s-35 23.5 -57 23.5s-40.833 -7.83301 -56.5 -23.5s-23.5 -34.5 -23.5 -56.5zM147 11
l405 729l84 -47l-413 -725z" />
    <glyph glyph-name="guilsinglleft" unicode="&#x2039;" horiz-adv-x="296" 
d="M268 422l-116 -173l116 -173l-91 -61l-159 234l159 234z" />
    <glyph glyph-name="guilsinglright" unicode="&#x203a;" horiz-adv-x="296" 
d="M28 76l116 173l-116 173l91 61l159 -234l-159 -234z" />
    <glyph glyph-name="fraction" unicode="&#x2044;" horiz-adv-x="167" 
d="M-161 11l405 729l84 -47l-413 -725z" />
    <glyph glyph-name="trademark" unicode="&#x2122;" horiz-adv-x="1000" 
d="M159 296v316h-119v96h346v-96h-119v-316h-108zM474 296v412h145l98 -268l98 268h145v-412h-108v268h-2l-98 -268h-70l-98 268h-2v-268h-108z" />
    <glyph glyph-name="fi" unicode="&#xf001;" horiz-adv-x="630" 
d="M425 0v486h150v-486h-150zM413 639c0 24 8.5 44.5 25.5 61.5s37.5 25.5 61.5 25.5s44.5 -8.5 61.5 -25.5s25.5 -37.5 25.5 -61.5s-8.5 -44.5 -25.5 -61.5s-37.5 -25.5 -61.5 -25.5s-44.5 8.5 -61.5 25.5s-25.5 37.5 -25.5 61.5zM105 0v366h-99v120h99v86
c0 62 11.333 108 34 138c29.333 38.667 81.333 58 156 58c34.667 0 64 -3 88 -9l-7 -127c-18.667 6.66699 -35 10 -49 10c-25.333 0 -43.333 -5 -54 -15c-12 -12 -18 -33.333 -18 -64v-77h111v-120h-111v-366h-150z" />
    <glyph glyph-name="fl" unicode="&#xf002;" horiz-adv-x="630" 
d="M425 0v756h150v-756h-150zM105 0v366h-99v120h99v86c0 62 11.333 108 34 138c29.333 38.667 81.333 58 156 58c34.667 0 64 -3 88 -9l-7 -127c-18.667 6.66699 -35 10 -49 10c-25.333 0 -43.333 -5 -54 -15c-12 -12 -18 -33.333 -18 -64v-77h111v-120h-111v-366h-150z
" />
    <glyph glyph-name=".null" horiz-adv-x="0" 
 />
    <glyph glyph-name="nonmarkingreturn" horiz-adv-x="296" 
 />
    <glyph glyph-name="glyph217" horiz-adv-x="296" 
 />
    </font>
</defs>
</svg>
