<?xml version="1.0" standalone="no"?>
<!DOCTYPE svg PUBLIC "-//W3C//DTD SVG 1.1//EN" "http://www.w3.org/Graphics/SVG/1.1/DTD/svg11.dtd" >
<svg>
<metadata>
Created by FontForge 20090914 at Fri May 17 10:28:42 2013
 By www-data
Copyright (c) 1989 Adobe Systems Incorporated.  All Rights Reserved.Avenir is a registered trademark of Linotype AG and/or its subsidiaries.
</metadata>
<defs>
<font id="Avenir-Heavy" horiz-adv-x="260" >
  <font-face 
    font-family="Avenir Heavy"
    font-weight="800"
    font-stretch="normal"
    units-per-em="1000"
    panose-1="0 0 9 0 0 0 0 0 0 0"
    ascent="800"
    descent="-200"
    x-height="480"
    cap-height="708"
    bbox="-166 -240.002 1160 938.999"
    underline-thickness="50"
    underline-position="-75"
    unicode-range="U+0020-U+F002"
  />
<missing-glyph horiz-adv-x="500" 
d="M63 0v766h375v-766h-375zM125 63h250v641h-250v-641z" />
    <glyph glyph-name=".notdef" horiz-adv-x="500" 
d="M63 0v766h375v-766h-375zM125 63h250v641h-250v-641z" />
    <glyph glyph-name="space" unicode=" " horiz-adv-x="296" 
 />
    <glyph glyph-name="exclam" unicode="!" horiz-adv-x="296" 
d="M208 708v-486h-120v486h120zM68 70c0 21.333 7.83301 39.666 23.5 54.999s34.5 23 56.5 23s40.833 -7.33301 56.5 -22s23.5 -32.667 23.5 -54s-7.83301 -39.666 -23.5 -54.999s-34.5 -23 -56.5 -23c-21.333 0 -40 7.33301 -56 22s-24 32.667 -24 54z" />
    <glyph glyph-name="quotedbl" unicode="&#x22;" horiz-adv-x="519" 
d="M120 444v264h102v-264h-102zM297 444v264h102v-264h-102z" />
    <glyph glyph-name="numbersign" unicode="#" horiz-adv-x="592" 
d="M107 0l30 209h-90v84h101l18 122h-90v84h101l30 209h88l-30 -209h103l30 209h87l-30 -209h90v-84h-102l-17 -122h90v-84h-100l-31 -209h-87l30 209h-104l-30 -209h-87zM356 415h-103l-17 -122h103z" />
    <glyph glyph-name="dollar" unicode="$" horiz-adv-x="592" 
d="M318 786v-66.002h9c78.667 0 144 -23 196 -69l-83 -93c-34 36 -74.667 54 -122 54v-200l4 -1c71.333 -18 123 -38.333 155 -61c46.667 -33.333 70 -80.666 70 -141.999c0 -63.333 -22.333 -114.666 -67 -153.999c-41.333 -36.667 -95.333 -58.334 -162 -65.001v-72h-54
v71c-98 -1.33301 -175.667 28.334 -233 89.001l91 93c30.667 -43.333 78 -68 142 -74v211l-5 1c-140.667 28 -211 96.333 -211 205c0 56.667 22 104.667 66 144c40.667 35.333 90.667 56 150 62v67h54zM264 426.998v182.999c-25.333 -4 -46.333 -13.667 -63 -29
c-18 -17.333 -27 -38 -27 -62c0 -26.667 9 -47 27 -61c6.66699 -5.33301 27.667 -15.666 63 -30.999zM318 290.997v-195c68.667 14 103 48.333 103 103c0 26 -11.333 46.667 -34 62c-12 8.66699 -35 18.667 -69 30z" />
    <glyph glyph-name="percent" unicode="%" horiz-adv-x="907" 
d="M505 174c0 51.333 18.167 95.166 54.5 131.499s80.166 54.5 131.499 54.5s95.166 -18.167 131.499 -54.5s54.5 -80.166 54.5 -131.499s-18.167 -95.166 -54.5 -131.499s-80.166 -54.5 -131.499 -54.5s-95.166 18.167 -131.499 54.5s-54.5 80.166 -54.5 131.499zM781 174
c0 25.333 -8.66699 46.666 -26 63.999s-38.666 26 -63.999 26c-24.667 0 -45.834 -8.66699 -63.501 -26s-26.5 -38.666 -26.5 -63.999c0 -24.667 8.83301 -45.834 26.5 -63.501s38.834 -26.5 63.501 -26.5c25.333 0 46.666 8.83301 63.999 26.5s26 38.834 26 63.501zM30 534
c0 51.333 18.167 95.166 54.5 131.499s80.166 54.5 131.499 54.5s95.166 -18.167 131.499 -54.5s54.5 -80.166 54.5 -131.499s-18.167 -95.166 -54.5 -131.499s-80.166 -54.5 -131.499 -54.5s-95.166 18.167 -131.499 54.5s-54.5 80.166 -54.5 131.499zM306 534
c0 25.333 -8.66699 46.666 -26 63.999s-38.666 26 -63.999 26c-24.667 0 -45.834 -8.66699 -63.501 -26s-26.5 -38.666 -26.5 -63.999c0 -24.667 8.83301 -45.834 26.5 -63.501s38.834 -26.5 63.501 -26.5c25.333 0 46.666 8.83301 63.999 26.5s26 38.834 26 63.501zM205 6
l416 734l83 -38l-416 -734z" />
    <glyph glyph-name="ampersand" unicode="&#x26;" horiz-adv-x="741" 
d="M716 372l-141.999 -205l153 -167h-155l-75 81c-56 -66 -125.667 -99 -209 -99c-66 0 -121.667 17.667 -167 53c-48.667 38.667 -73 90.334 -73 155.001c0 45.333 15 86.333 45 123c27.333 33.333 63.333 58.666 108 75.999c-28 30.667 -47 55.334 -57 74.001
c-16 28 -24 57.667 -24 89c0 55.333 20.333 99 61 131c37.333 28.667 84.666 43 141.999 43s104 -13.333 140 -40c40 -30.667 60 -73.334 60 -128.001c0 -73.333 -47 -134.333 -141 -183l114 -123l79 120h141zM325.001 618c-23.333 0 -43.333 -6.66797 -60 -20.001
s-25 -30.333 -25 -51c0 -26.667 22.333 -61 67 -103c64 34.667 96 70.667 96 108c0 18.667 -7.5 34.334 -22.5 47.001s-33.5 19 -55.5 19zM422.001 159.999l-145 157.999c-31.333 -18.667 -53.333 -34.667 -66 -48c-20.667 -21.333 -31 -45.666 -31 -72.999
c0 -30.667 11 -56.167 33 -76.5s48.333 -30.5 79 -30.5c38.667 0 82 23.333 130 70z" />
    <glyph glyph-name="quotesingle" unicode="'" horiz-adv-x="296" 
d="M97 444v264h102v-264h-102z" />
    <glyph glyph-name="parenleft" unicode="(" horiz-adv-x="296" 
d="M194 732l85 -51.999l-1 -4c-85.333 -118.667 -128 -248 -128 -388c0 -140.667 42.667 -270.334 128 -389.001l-84 -55c-97.333 134.667 -146 282.667 -146 444s48.667 309.333 146 444z" />
    <glyph glyph-name="parenright" unicode=")" horiz-adv-x="296" 
d="M102 -156l-85 52l1 4c85.333 118.667 128 248 128 388s-42.667 269.333 -128 388l84 56c97.333 -134.667 146 -282.667 146 -444s-48.667 -309.333 -146 -444z" />
    <glyph glyph-name="asterisk" unicode="*" horiz-adv-x="463" 
d="M274 708v-142l135 44l26 -80l-136 -44l86 -117l-69 -50l-86 118l-84 -115l-67 51l86 113l-137 47l26 80l136 -47v142h84z" />
    <glyph glyph-name="plus" unicode="+" horiz-adv-x="666" 
d="M62 354h220v220h102v-220h220v-102h-220v-220h-102v220h-220v102z" />
    <glyph glyph-name="comma" unicode="," horiz-adv-x="296" 
d="M38 -126l70 264h122l-85 -264h-107z" />
    <glyph glyph-name="hyphen" unicode="-" horiz-adv-x="315" 
d="M281 297v-102h-247v102h247z" />
    <glyph glyph-name="hyphen" unicode="&#x2010;" horiz-adv-x="315" 
d="M281 297v-102h-247v102h247z" />
    <glyph glyph-name="period" unicode="." horiz-adv-x="296" 
d="M68 70c0 21.333 7.83301 39.666 23.5 54.999s34.5 23 56.5 23s40.833 -7.33301 56.5 -22s23.5 -32.667 23.5 -54s-7.83301 -39.666 -23.5 -54.999s-34.5 -23 -56.5 -23c-21.333 0 -40 7.33301 -56 22s-24 32.667 -24 54z" />
    <glyph glyph-name="slash" unicode="/" horiz-adv-x="389" 
d="M386 726l-312 -774l-83 30l312 776z" />
    <glyph glyph-name="zero" unicode="0" horiz-adv-x="592" 
d="M40 354c0 145.333 32.667 248.333 98 309c42 38 94.667 57 158 57s116 -19 158 -57c65.333 -60.667 98 -163.667 98 -309s-32.667 -248.333 -98 -309c-42 -38 -94.667 -57 -158 -57s-116 19 -158 57c-65.333 60.667 -98 163.667 -98 309zM160 354
c0 -64 7.66699 -117 23 -159c22.667 -62 60.334 -93 113.001 -93s90.334 31 113.001 93c15.333 42 23 95 23 159s-7.66699 117 -23 159c-22.667 62 -60.334 93 -113.001 93s-90.334 -31 -113.001 -93c-15.333 -42 -23 -95 -23 -159z" />
    <glyph glyph-name="one" unicode="1" horiz-adv-x="592" 
d="M268 0v570l-133 -123l-70 83l214 178h109v-708h-120z" />
    <glyph glyph-name="two" unicode="2" horiz-adv-x="592" 
d="M59 0v126.998l275 266c48.667 47.333 73 87.333 73 120c0 28 -10 50.5 -30 67.5s-44.333 25.5 -73 25.5c-29.333 0 -53.833 -8.66699 -73.5 -26s-31.5 -40.666 -35.5 -69.999l-126 10c6 64 30.667 113.667 74 149c41.333 34 95 51 161 51
c67.333 0 121.333 -16.333 162 -49c44.667 -36 67 -86.667 67 -152c0 -71.333 -36.333 -140.666 -109 -207.999l-219 -203h328v-108h-474z" />
    <glyph glyph-name="three" unicode="3" horiz-adv-x="592" 
d="M222 315v108.001h31c42.667 0 74 5 94 15c29.333 15.333 44 42.333 44 81c0 27.333 -9.5 49.666 -28.5 66.999s-43.167 26 -72.5 26c-52.667 0 -88 -26 -106 -78l-127 34c14.667 50.667 43.334 89 86.001 115c39.333 24.667 86.333 37 141 37
c64.667 0 117.667 -16 159 -48c45.333 -34 68 -81 68 -141c0 -38.667 -10.833 -72.667 -32.5 -102s-51.167 -48.666 -88.5 -57.999v-2c44 -6 78 -24.833 102 -56.5s36 -70.167 36 -115.5c0 -64.667 -24 -116.334 -72 -155.001c-44.667 -36 -100.334 -54 -167.001 -54
c-132.667 0 -213.667 55.333 -243 166l128 34c16 -61.333 54.333 -92 115 -92c32.667 0 60.667 10.5 84 31.5s35 47.5 35 79.5c0 72 -52.333 108 -157 108h-29z" />
    <glyph glyph-name="four" unicode="4" horiz-adv-x="592" 
d="M335 0v144h-301v119l285 445h136v-456h103v-108h-103v-144h-120zM335 252v286h-2l-177 -286h179z" />
    <glyph glyph-name="five" unicode="5" horiz-adv-x="592" 
d="M505 708v-108h-285l-3 -141c19.333 6 44.666 9 75.999 9c70 0 126.833 -21.5 170.5 -64.5s65.5 -99.833 65.5 -170.5c0 -74.667 -24.167 -134.167 -72.5 -178.5s-109.5 -66.5 -183.5 -66.5c-120 0 -196.333 54 -229 162l126 34c17.333 -54.667 56 -82 116 -82
c36 0 65.5 11.5 88.5 34.5s34.5 51.833 34.5 86.5c0 46.667 -16.667 82 -50 106c-29.333 20.667 -68 31 -116 31c-53.333 0 -102.666 -11.333 -147.999 -34l7 382h403z" />
    <glyph glyph-name="six" unicode="6" horiz-adv-x="592" 
d="M291 708h145.999l-170 -262l2 -2c14 8 36 12 66 12c61.333 0 112.166 -22 152.499 -66s60.5 -97.333 60.5 -160c0 -72.667 -23.667 -131.167 -71 -175.5s-107.666 -66.5 -180.999 -66.5c-75.333 0 -135.666 21.333 -180.999 64c-47.333 44 -71 103 -71 177
c0 60 22 124.667 66 194zM169.999 231c0 -35.333 12.667 -65.666 38 -90.999s55.666 -38 90.999 -38s65.666 12.667 90.999 38s38 55.666 38 90.999s-12.667 65.666 -38 90.999s-55.666 38 -90.999 38s-65.666 -12.667 -90.999 -38s-38 -55.666 -38 -90.999z" />
    <glyph glyph-name="seven" unicode="7" horiz-adv-x="592" 
d="M42 594v114h481v-110l-283 -598h-141l289 594h-346z" />
    <glyph glyph-name="eight" unicode="8" horiz-adv-x="592" 
d="M296 720c62 0 113.331 -16 153.998 -48c42 -34.667 63 -80.667 63 -138c0 -38.667 -9.16699 -72.334 -27.5 -101.001s-44.833 -48 -79.5 -58v-2c35.333 -7.33301 65.666 -27.333 90.999 -60s38 -70 38 -112c0 -67.333 -23.333 -120.333 -70 -159
c-43.333 -36 -99.666 -54 -168.999 -54s-125.666 18 -168.999 54c-46.667 38.667 -70 91.667 -70 159c0 42 12.833 79.333 38.5 112s55.834 52.667 90.501 60v2c-34.667 10 -61.167 29.333 -79.5 58s-27.5 62.334 -27.5 101.001c0 57.333 21.333 103.333 64 138
c40 32 91 48 153 48zM295.998 618c-29.333 0 -52.833 -9.16797 -70.5 -27.501s-26.5 -41.166 -26.5 -68.499c0 -28.667 8.83301 -52.334 26.5 -71.001s41.167 -28 70.5 -28c26.667 0 49.5 9.5 68.5 28.5s28.5 42.5 28.5 70.5c0 26.667 -9.33301 49.334 -28 68.001
s-41.667 28 -69 28zM295.998 326.999c-33.333 0 -61.5 -10.5 -84.5 -31.5s-34.5 -47.5 -34.5 -79.5c0 -33.333 11.167 -60.666 33.5 -81.999s50.833 -32 85.5 -32s63.167 10.667 85.5 32s33.5 48.666 33.5 81.999c0 32 -11.5 58.5 -34.5 79.5s-51.167 31.5 -84.5 31.5z" />
    <glyph glyph-name="nine" unicode="9" horiz-adv-x="592" 
d="M301 0h-145.999l170 262l-2 2c-14 -8 -36 -12 -66 -12c-61.333 0 -112.166 22 -152.499 66s-60.5 97.333 -60.5 160c0 72.667 23.667 131.167 71 175.5s107.666 66.5 180.999 66.5c75.333 0 136.166 -21.667 182.499 -65s69.5 -102 69.5 -176
c0 -60 -22 -124.667 -66 -194zM422.001 477c0 35.333 -12.667 65.666 -38 90.999s-55.666 38 -90.999 38s-65.666 -12.667 -90.999 -38s-38 -55.666 -38 -90.999s12.667 -65.666 38 -90.999s55.666 -38 90.999 -38s65.666 12.667 90.999 38s38 55.666 38 90.999z" />
    <glyph glyph-name="colon" unicode=":" horiz-adv-x="296" 
d="M68 70c0 21.333 7.83301 39.666 23.5 54.999s34.5 23 56.5 23s40.833 -7.33301 56.5 -22s23.5 -32.667 23.5 -54s-7.83301 -39.666 -23.5 -54.999s-34.5 -23 -56.5 -23c-21.333 0 -40 7.33301 -56 22s-24 32.667 -24 54zM68 409c0 21.333 7.83301 39.666 23.5 54.999
s34.5 23 56.5 23s40.833 -7.33301 56.5 -22s23.5 -32.667 23.5 -54s-7.83301 -39.666 -23.5 -54.999s-34.5 -23 -56.5 -23c-21.333 0 -40 7.33301 -56 22s-24 32.667 -24 54z" />
    <glyph glyph-name="semicolon" unicode=";" horiz-adv-x="296" 
d="M38 -126l70 264h122l-85 -264h-107zM68 409c0 21.333 7.83301 39.666 23.5 54.999s34.5 23 56.5 23s40.833 -7.33301 56.5 -22s23.5 -32.667 23.5 -54s-7.83301 -39.666 -23.5 -54.999s-34.5 -23 -56.5 -23c-21.333 0 -40 7.33301 -56 22s-24 32.667 -24 54z" />
    <glyph glyph-name="less" unicode="&#x3c;" horiz-adv-x="666" 
d="M586 42l-506 225v72l506 225v-110l-338 -151l338 -151v-110z" />
    <glyph glyph-name="equal" unicode="=" horiz-adv-x="666" 
d="M62 444h542v-102h-542v102zM62 264h542v-102h-542v102z" />
    <glyph glyph-name="greater" unicode="&#x3e;" horiz-adv-x="666" 
d="M80 564l506 -225v-72l-506 -225v110l338 151l-338 151v110z" />
    <glyph glyph-name="question" unicode="?" horiz-adv-x="519" 
d="M330 209h-120.001v55c0 28 4 49.667 12 65c5.33301 12 19.333 29.333 42 52l77 78c16.667 16.667 25 38.334 25 65.001c0 26 -8.5 47.167 -25.5 63.5s-38.5 24.5 -64.5 24.5c-27.333 0 -50.166 -9.33301 -68.499 -28s-28.833 -42 -31.5 -70l-128 10
c7.33301 62.667 32 112 74 148s95 54 159 54c61.333 0 111.333 -16.667 150 -50c40.667 -35.333 61 -83.666 61 -144.999c0 -38.667 -11 -73.334 -33 -104.001c-10.667 -16 -36 -42.667 -76 -80c-22 -20.667 -35.333 -35.334 -40 -44.001c-8.66699 -13.333 -13 -32 -13 -56
v-38zM189.999 70c0 21.333 7.83301 39.666 23.5 54.999s34.5 23 56.5 23s40.833 -7.33301 56.5 -22s23.5 -32.667 23.5 -54s-7.83301 -39.666 -23.5 -54.999s-34.5 -23 -56.5 -23c-21.333 0 -40 7.33301 -56 22s-24 32.667 -24 54z" />
    <glyph glyph-name="at" unicode="@" horiz-adv-x="800" 
d="M401 456c-32.667 0 -58.501 -11.667 -77.501 -35s-28.5 -52 -28.5 -86c0 -61.333 27.667 -92 83 -92c34.667 0 60.334 13.333 77.001 40c13.333 21.333 20 48.333 20 81c0 61.333 -24.667 92 -74 92zM616.999 133h110.002c-35.333 -48.667 -79.833 -86 -133.5 -112
s-111.5 -39 -173.5 -39c-108 0 -199.667 35.167 -275 105.5s-113 158.833 -113 265.5c0 106 37.167 194.667 111.5 266s164.5 107 270.5 107c94.667 0 175.667 -28.333 243 -85c74 -62 111 -143.333 111 -244c0 -92 -29.333 -159.333 -88 -202c-39.333 -28 -84 -42 -134 -42
c-51.333 0 -77.666 18 -78.999 54h-2c-34.667 -36 -77.334 -54 -128.001 -54c-42.667 0 -77.334 15.667 -104.001 47s-40 71.666 -40 120.999c0 61.333 18 113.333 54 156c37.333 46 86 69 146 69c53.333 0 89.333 -19 108 -57h2l8 45h94l-37 -197c-6 -32 -9 -51 -9 -57
c0 -24.667 9 -37 27 -37c23.333 0 43 12 59 36c18 26.667 27 64.334 27 113.001c0 78 -24.333 138.667 -73 182c-46.667 41.333 -109.334 62 -188.001 62c-82.667 0 -149.5 -26.5 -200.5 -79.5s-76.5 -120.833 -76.5 -203.5c0 -86 28 -154.667 84 -206
c54 -50 124 -75 210 -75c74.667 0 137.667 20.333 189 61z" />
    <glyph glyph-name="A" unicode="A" horiz-adv-x="722" 
d="M0 0l308 708h109l305 -708h-144l-66 162h-307l-64 -162h-141zM248 270h220l-109 288z" />
    <glyph glyph-name="B" unicode="B" horiz-adv-x="648" 
d="M79 0l-0.000976562 708.001h276c60 0 109.667 -13.667 149 -41c45.333 -31.333 68 -77 68 -137c0 -78.667 -41 -130.334 -123 -155.001v-2c44.667 -5.33301 81.334 -23.833 110.001 -55.5s43 -70.167 43 -115.5c0 -71.333 -28 -124.333 -84 -159
c-46 -28.667 -107.333 -43 -184 -43h-255zM204.999 600.001v-180h115c84 0 126 29.667 126 89c0 60.667 -45.667 91 -137 91h-104zM204.999 312.001v-204h116c103.333 0 155 34.667 155 104c0 36 -12 61.667 -36 77s-62 23 -114 23h-121z" />
    <glyph glyph-name="C" unicode="C" horiz-adv-x="685" 
d="M663 614l-98.001 -72.001c-44 46.667 -93.667 70 -149 70c-72 0 -130.5 -24.167 -175.5 -72.5s-67.5 -108.5 -67.5 -180.5c0 -76.667 22.5 -139.667 67.5 -189s103.5 -74 175.5 -74c61.333 0 114.333 28.667 159 86l104 -74c-61.333 -84 -149.333 -126 -264 -126
c-110 0 -199.833 34 -269.5 102s-104.5 157 -104.5 267c0 112.667 34.833 203.334 104.5 272.001s159.5 103 269.5 103c100.667 0 183.334 -37.333 248.001 -112z" />
    <glyph glyph-name="D" unicode="D" horiz-adv-x="759" 
d="M79 0v708h279c100 0 183.333 -29 250 -87c73.333 -64.667 110 -153.667 110 -267c0 -112 -41.333 -201.333 -124 -268c-71.333 -57.333 -155 -86 -251 -86h-264zM205 114l94 0.000976562c85.333 0 153 18.667 203 56c56 41.333 84 102.666 84 183.999
c0 82 -25 143.667 -75 185c-45.333 36.667 -109 55 -191 55h-115v-480z" />
    <glyph glyph-name="E" unicode="E" horiz-adv-x="611" 
d="M79 0v708h469v-114h-343v-174h325v-114h-325v-192h361v-114h-487z" />
    <glyph glyph-name="F" unicode="F" horiz-adv-x="574" 
d="M79 0v708h457v-114h-331v-186h312v-114h-312v-294h-126z" />
    <glyph glyph-name="G" unicode="G" horiz-adv-x="778" 
d="M708 414l0.000976562 -362.001c-87.333 -46.667 -185 -70 -293 -70c-110 0 -199.833 34 -269.5 102s-104.5 157 -104.5 267c0 112.667 34.833 203.334 104.5 272.001s159.5 103 269.5 103c119.333 0 212.333 -29.667 279 -89l-93 -94c-47.333 46 -109 69 -185 69
c-72 0 -130.5 -24.167 -175.5 -72.5s-67.5 -108.5 -67.5 -180.5c0 -76.667 22.5 -139.667 67.5 -189s103.5 -74 175.5 -74c67.333 0 122.666 12.333 165.999 37v167h-145v114h271z" />
    <glyph glyph-name="H" unicode="H" horiz-adv-x="741" 
d="M79 0v708h126v-282h331v282h126v-708h-126v312h-331v-312h-126z" />
    <glyph glyph-name="I" unicode="I" horiz-adv-x="278" 
d="M76 0v708h126v-708h-126z" />
    <glyph glyph-name="J" unicode="J" horiz-adv-x="500" 
d="M426 708l-0.00195312 -512c0 -60 -17.667 -109.667 -53 -149c-39.333 -43.333 -92.666 -65 -159.999 -65c-117.333 0 -186.666 54.333 -207.999 163l118 28c4 -23.333 13.5 -42 28.5 -56s33.5 -21 55.5 -21c62 0 93 45.667 93 137v475h126z" />
    <glyph glyph-name="K" unicode="K" horiz-adv-x="685" 
d="M79 0v708h126v-300h6l293 300h170l-331 -327l353 -381h-177l-307 348h-7v-348h-126z" />
    <glyph glyph-name="L" unicode="L" horiz-adv-x="519" 
d="M79 0v708h126v-594h301v-114h-427z" />
    <glyph glyph-name="M" unicode="M" horiz-adv-x="926" 
d="M82 0v708h192l189 -496l191 496h190v-708h-120v588h-2l-215 -588h-88l-215 588h-2v-588h-120z" />
    <glyph glyph-name="N" unicode="N" horiz-adv-x="796" 
d="M79 0v708h167l345 -528h-2l2 2v526h126v-708h-160l-350 543h-2v-543h-126z" />
    <glyph glyph-name="O" unicode="O" horiz-adv-x="833" 
d="M41 351c0 112 35 202.669 105 272.002c69.333 67.333 159 101.666 269 102.999c111.333 1.33301 202 -32 272 -100s105 -158.333 105 -271c0 -110 -35 -199.333 -105 -268s-160.667 -103.667 -272 -105c-109.333 -0.666992 -199 33.166 -269 101.499
s-105 157.5 -105 267.5zM173 359.002c0 -76.667 22.5 -139.667 67.5 -189s103.5 -74 175.5 -74c72.667 0 131.5 24.667 176.5 74s67.5 112.333 67.5 189c0 72 -22.667 132.167 -68 180.5s-104 72.5 -176 72.5s-130.5 -24.167 -175.5 -72.5s-67.5 -108.5 -67.5 -180.5z" />
    <glyph glyph-name="P" unicode="P" horiz-adv-x="611" 
d="M79 0v707.999h238c174 0 261 -68.333 261 -205c0 -81.333 -28.333 -138.666 -85 -171.999c-44 -25.333 -110 -38 -198 -38h-90v-293h-126zM205 400.999l76 -0.000976562c50 0 86.667 4.66699 110 14c36.667 14.667 55 43.334 55 86.001c0 66 -50.333 99 -151 99h-90v-199
z" />
    <glyph glyph-name="Q" unicode="Q" horiz-adv-x="852" 
d="M839 102l0.000976562 -102h-412c-112.667 0 -204.334 32.667 -275.001 98c-74 68 -111 158.333 -111 271c0 102.667 36.667 188.334 110 257.001c72 66.667 159.333 100 262 100s190 -33.333 262 -100c73.333 -68.667 110 -154.334 110 -257.001
c0 -120 -49.667 -208.333 -149 -265v-2h203zM410.001 612c-68.667 0 -125.334 -23.333 -170.001 -70s-67 -105.334 -67 -176.001c0 -72.667 22.667 -132.834 68 -180.501s102.333 -71.5 171 -71.5c70 0 127.667 23.833 173 71.5s68 107.834 68 180.501
c0 70.667 -22.667 129.334 -68 176.001s-103.666 70 -174.999 70z" />
    <glyph glyph-name="R" unicode="R" horiz-adv-x="630" 
d="M79 0v707.999h246c176 0 264 -67.667 264 -203c0 -52 -14.333 -95.167 -43 -129.5s-69 -55.166 -121 -62.499l188 -313h-152l-164 300h-92v-300h-126zM205 407.999l98 -0.000976562c47.333 0 82 5 104 15c33.333 14.667 50 42.334 50 83.001c0 62.667 -47.667 94 -143 94
h-109v-192z" />
    <glyph glyph-name="S" unicode="S" horiz-adv-x="574" 
d="M518 653l-92.001 -97c-26.667 37.333 -68 56 -124 56c-32 0 -58.667 -7 -80 -21c-24 -16 -36 -39.333 -36 -70c0 -37.333 29 -66.666 87 -87.999c98.667 -36.667 152.667 -57.667 162 -63c58 -36 87 -90 87 -162c0 -72.667 -25.667 -129.334 -77 -170.001
c-47.333 -37.333 -108 -56 -182 -56c-100.667 0 -178 32 -232 96l95 92c32.667 -49.333 79.334 -74 140.001 -74c32 0 60 8 84 24c26.667 18 40 42.333 40 73c0 41.333 -29 73 -87 95c-106 40.667 -160 61.667 -162 63c-58 35.333 -87 89 -87 161
c0 68.667 27 122.667 81 162c48.667 34.667 108.667 52 180 52c84 0 151.667 -24.333 203 -73z" />
    <glyph glyph-name="T" unicode="T" horiz-adv-x="574" 
d="M224 0v594h-217v114h560v-114h-217v-594h-126z" />
    <glyph glyph-name="U" unicode="U" horiz-adv-x="722" 
d="M646 708v-448c0 -84 -26.833 -151.333 -80.5 -202s-121.834 -76 -204.501 -76s-150.334 25 -203.001 75c-54.667 51.333 -82 119 -82 203v448h126v-444c0 -42 11.333 -77.667 34 -107c28.667 -36.667 70.334 -55 125.001 -55s96.334 18.333 125.001 55
c22.667 29.333 34 65 34 107v444h126z" />
    <glyph glyph-name="V" unicode="V" horiz-adv-x="667" 
d="M275 0l-278 708h145l193 -535l199 535h136l-286 -708h-109z" />
    <glyph glyph-name="W" unicode="W" horiz-adv-x="981" 
d="M209 0l-209 708h138l133 -510h2l159 510h124l156 -510h2l139 510h128l-206 -708h-120l-164 539h-2l-164 -539h-116z" />
    <glyph glyph-name="X" unicode="X" horiz-adv-x="685" 
d="M0 0l252 370l-236 338h159l167 -262l165 262h153l-232 -338l257 -370h-160l-187 299l-186 -299h-152z" />
    <glyph glyph-name="Y" unicode="Y" horiz-adv-x="630" 
d="M252 0v303l-266 405h158l174 -282l176 282h150l-266 -405v-303h-126z" />
    <glyph glyph-name="Z" unicode="Z" horiz-adv-x="611" 
d="M35 0v114l378 480h-372v114h529v-114l-381 -480h387v-114h-541z" />
    <glyph glyph-name="bracketleft" unicode="[" horiz-adv-x="278" 
d="M258 732v-78h-90v-732h90v-78h-192v888h192z" />
    <glyph glyph-name="backslash" unicode="\" horiz-adv-x="389" 
d="M3 726l83 32l312 -776l-83 -30z" />
    <glyph glyph-name="bracketright" unicode="]" horiz-adv-x="278" 
d="M20 -156v78h90v732h-90v78h192v-888h-192z" />
    <glyph glyph-name="asciicircum" unicode="^" horiz-adv-x="666" 
d="M187 343h-118l223 365h82l223 -365h-118l-147 239z" />
    <glyph glyph-name="underscore" unicode="_" horiz-adv-x="500" 
d="M500 -125h-500v50h500v-50z" />
    <glyph glyph-name="grave" unicode="`" 
d="M78 708l99 -144h-94l-141 144h136z" />
    <glyph glyph-name="a" unicode="a" horiz-adv-x="537" 
d="M368 0v66h-3c-32.667 -52 -84 -78 -154 -78c-48 0 -88.333 12 -121 36c-36 26.667 -54 62.667 -54 108c0 68.667 35.333 116 106 142c45.333 16.667 110.666 25 195.999 25h30v13c0 28.667 -10 50.834 -30 66.501s-46.667 23.5 -80 23.5c-50 0 -92.667 -16.667 -128 -50
l-63 63c50.667 51.333 118.667 77 204 77c88.667 0 148.334 -27.333 179.001 -82c17.333 -30.667 26 -75.334 26 -134.001v-276h-108zM361 188v27h-25c-120 0 -180 -24.667 -180 -74c0 -20.667 9 -36.667 27 -48c16 -10 35 -15 57 -15c80.667 0 121 36.667 121 110z" />
    <glyph glyph-name="b" unicode="b" horiz-adv-x="630" 
d="M68 0l0.000976562 756.001h120v-337h3c39.333 48.667 93.666 73 162.999 73c68 0 123.667 -24 167 -72s65 -108 65 -180c0 -72.667 -21 -132.334 -63 -179.001c-44 -48.667 -102 -73 -174 -73c-76 0 -131 28 -165 84h-2v-72h-114zM466.001 240.001
c0 39.333 -12.332 72.666 -36.999 99.999c-26.667 29.333 -61.334 44 -104.001 44s-76.834 -14.167 -102.501 -42.5s-38.5 -62.166 -38.5 -101.499s12.667 -72.666 38 -99.999c26 -29.333 60.333 -44 103 -44s77.334 14.667 104.001 44c24.667 27.333 37 60.666 37 99.999z
" />
    <glyph glyph-name="c" unicode="c" horiz-adv-x="482" 
d="M479 419l-82.999 -83.002c-30.667 32 -61 48 -91 48c-42.667 0 -76.834 -14.167 -102.501 -42.5s-38.5 -62.166 -38.5 -101.499s12.667 -72.666 38 -99.999c26 -29.333 60.333 -44 103 -44c39.333 0 70.333 15 93 45l80 -86c-22 -22 -51.667 -39.333 -89 -52
c-30 -10 -58 -15 -84 -15c-74 0 -136 23.5 -186 70.5s-75 107.5 -75 181.5s25.333 135 76 183c49.333 46 111 69 185 69c72 0 130 -24.333 174 -73z" />
    <glyph glyph-name="d" unicode="d" horiz-adv-x="630" 
d="M448 0l0.000976562 71.999h-2c-34 -56 -89 -84 -165 -84c-72 0 -130 24.333 -174 73c-42 46.667 -63 106.334 -63 179.001c0 72 21.667 132 65 180s99 72 167 72c69.333 0 123.666 -24.333 162.999 -73h3v337h120v-756h-114zM164.001 239.999
c0 -39.333 12.668 -72.666 38.001 -99.999c26 -29.333 60.333 -44 103 -44s77.334 14.667 104.001 44c24.667 27.333 37 60.666 37 99.999s-12.333 72.666 -37 99.999c-26.667 29.333 -61.334 44 -104.001 44s-76.834 -14.167 -102.501 -42.5s-38.5 -62.166 -38.5 -101.499z
" />
    <glyph glyph-name="e" unicode="e" horiz-adv-x="574" 
d="M530 198l-366 0.000976562c4 -34.667 18 -62.334 42 -83.001s53 -31 87 -31c50.667 0 93.667 21.667 129 65l86 -65c-52 -64 -119.667 -96 -203 -96c-74 0 -136 23.5 -186 70.5s-75 107.5 -75 181.5s25.333 135 76 183c49.333 46 111 69 185 69c68 0 122.5 -23 163.5 -69
s61.5 -110 61.5 -192v-33zM164 288.001h246.003c-0.666992 35.333 -11.834 63.166 -33.501 83.499s-51.167 30.5 -88.5 30.5c-34.667 0 -62.834 -10.167 -84.501 -30.5s-34.834 -48.166 -39.501 -83.499z" />
    <glyph glyph-name="f" unicode="f" horiz-adv-x="352" 
d="M111 0l0.00195312 378h-99v102h99v68c0 73.333 11.333 126.666 34 159.999c27.333 40 75.666 60 144.999 60c27.333 0 52.666 -2.33301 75.999 -7l-8 -102c-20 4.66699 -36.667 7 -50 7c-30.667 0 -51.667 -9.66699 -63 -29c-9.33301 -15.333 -14 -38.666 -14 -69.999
v-87h111v-102h-111v-378h-120z" />
    <glyph glyph-name="g" unicode="g" horiz-adv-x="630" 
d="M448 480h114.001v-437c0 -89.333 -21.667 -158 -65 -206c-46.667 -51.333 -115.334 -77 -206.001 -77c-98.667 0 -178 26.333 -238 79l72 98c50 -46 105 -69 165 -69c101.333 0 152 53.667 152 161v35h-2c-34.667 -46.667 -87 -70 -157 -70
c-70.667 0 -128.167 23.667 -172.5 71s-66.5 105.666 -66.5 174.999c0 72.667 21.5 132.834 64.5 180.501s100.5 71.5 172.5 71.5c76 0 131 -28 165 -84h2v72zM306.001 384c-42 0 -76.167 -13.168 -102.5 -39.501s-39.5 -60.833 -39.5 -103.5
c0 -38.667 13.5 -71.5 40.5 -98.5s60.5 -40.5 100.5 -40.5c43.333 0 78 13.333 104 40s39 60.334 39 101.001c0 42 -12.833 76 -38.5 102s-60.167 39 -103.5 39z" />
    <glyph glyph-name="h" unicode="h" horiz-adv-x="574" 
d="M188 756l-0.000976562 -343h2c25.333 52.667 72.333 79 141 79c60 0 105.333 -19.333 136 -58c26 -32.667 39 -76.334 39 -131.001v-303h-120v243c0 94 -29.333 141 -88 141c-37.333 0 -65.666 -12.333 -84.999 -37c-16.667 -21.333 -25 -49.666 -25 -84.999v-262h-120
v756h120z" />
    <glyph glyph-name="i" unicode="i" 
d="M70 0v480h120v-480h-120zM53 643c0 19.333 7.33301 36.1699 22 50.5029s32.667 21.5 54 21.5c22 0 40.5 -6.83301 55.5 -20.5s22.5 -30.834 22.5 -51.501s-7.5 -37.834 -22.5 -51.501s-33.5 -20.5 -55.5 -20.5c-21.333 0 -39.333 7.16699 -54 21.5s-22 31.166 -22 50.499
z" />
    <glyph glyph-name="j" unicode="j" 
d="M70 480h119.998v-509c0 -68.667 -10 -119 -30 -151c-24.667 -40 -68.667 -60 -132 -60c-25.333 0 -47 3 -65 9l9 104c14.667 -3.33301 27.334 -5 38.001 -5c26.667 0 44.334 11.333 53.001 34c4.66699 13.333 7 36 7 68v510zM52.998 643
c0 19.333 7.33301 36.1699 22 50.5029s32.667 21.5 54 21.5c22 0 40.5 -6.83301 55.5 -20.5s22.5 -30.834 22.5 -51.501s-7.5 -37.834 -22.5 -51.501s-33.5 -20.5 -55.5 -20.5c-21.333 0 -39.333 7.16699 -54 21.5s-22 31.166 -22 50.499z" />
    <glyph glyph-name="k" unicode="k" horiz-adv-x="537" 
d="M68 0v756h120v-475l185 199h154l-206 -218l219 -262h-159l-191 245h-2v-245h-120z" />
    <glyph glyph-name="l" unicode="l" 
d="M70 0v756h120v-756h-120z" />
    <glyph glyph-name="m" unicode="m" horiz-adv-x="870" 
d="M63 0v479.999h114v-75h2c27.333 58 76.333 87 147 87c75.333 0 125.333 -29.667 150 -89c34 59.333 86.667 89 158 89c115.333 0 173 -68.667 173 -206v-286h-120v272c0 74.667 -29.667 112 -89 112c-34.667 0 -61.334 -13 -80.001 -39c-15.333 -22 -23 -50.333 -23 -85
v-260h-120v286c0 65.333 -27.333 98 -82 98c-37.333 0 -65.666 -12.333 -84.999 -37c-16.667 -21.333 -25 -49.666 -25 -84.999v-262h-120z" />
    <glyph glyph-name="n" unicode="n" horiz-adv-x="574" 
d="M68 0l-0.000976562 480h114v-77h2c27.333 59.333 76.333 89 147 89c60 0 105.333 -19.333 136 -58c26 -32.667 39 -76.334 39 -131.001v-303h-120v243c0 94 -29.333 141 -88 141c-37.333 0 -65.666 -12.333 -84.999 -37c-16.667 -21.333 -25 -49.666 -25 -84.999v-262
h-120z" />
    <glyph glyph-name="o" unicode="o" horiz-adv-x="610" 
d="M44 240c0 74 25.333 135 76 183c49.333 46 111 69 185 69s135.667 -23 185 -69c50.667 -48 76 -109 76 -183s-25 -134.5 -75 -181.5s-112 -70.5 -186 -70.5s-136 23.5 -186 70.5s-75 107.5 -75 181.5zM164 240c0 -39.333 12.668 -72.666 38.001 -99.999
c26 -29.333 60.333 -44 103 -44s77.334 14.667 104.001 44c24.667 27.333 37 60.666 37 99.999s-12.333 72.666 -37 99.999c-26.667 29.333 -61.334 44 -104.001 44s-76.834 -14.167 -102.501 -42.5s-38.5 -62.166 -38.5 -101.499z" />
    <glyph glyph-name="p" unicode="p" horiz-adv-x="630" 
d="M68 -228l-0.000976562 708.001h114v-72h2c34 56 89 84 165 84c72 0 130 -24.333 174 -73c42 -46.667 63 -106.334 63 -179.001c0 -72 -21.667 -132 -65 -180s-99 -72 -167 -72c-69.333 0 -123.666 24.333 -162.999 73h-3v-289h-120zM465.999 240.001
c0 39.333 -12.332 72.666 -36.999 99.999c-26.667 29.333 -61.334 44 -104.001 44s-76.834 -14.167 -102.501 -42.5s-38.5 -62.166 -38.5 -101.499s12.667 -72.666 38 -99.999c26 -29.333 60.333 -44 103 -44s77.334 14.667 104.001 44c24.667 27.333 37 60.666 37 99.999z
" />
    <glyph glyph-name="q" unicode="q" horiz-adv-x="630" 
d="M562 480l-0.000976562 -708.001h-120v289h-3c-39.333 -48.667 -93.666 -73 -162.999 -73c-68 0 -123.667 24 -167 72s-65 108 -65 180c0 72.667 21.5 132.834 64.5 180.501s100.5 71.5 172.5 71.5c76 0 131 -28 165 -84h2v72h114zM163.999 239.999
c0 -39.333 12.668 -72.666 38.001 -99.999c26 -29.333 60.333 -44 103 -44s77.334 14.667 104.001 44c24.667 27.333 37 60.666 37 99.999s-12.333 72.666 -37 99.999c-26.667 29.333 -61.334 44 -104.001 44s-76.834 -14.167 -102.501 -42.5s-38.5 -62.166 -38.5 -101.499z
" />
    <glyph glyph-name="r" unicode="r" horiz-adv-x="389" 
d="M68 0l0.000976562 480h120v-76h2c28 58.667 75.333 88 142 88c12.667 0 27 -2.33301 43 -7v-116c-24 6 -43.333 9 -58 9c-48.667 0 -84.334 -17 -107.001 -51c-14.667 -22 -22 -45.333 -22 -70v-257h-120z" />
    <glyph glyph-name="s" unicode="s" horiz-adv-x="444" 
d="M404 419l-80 -72c-23.333 32.667 -54.666 49 -93.999 49c-18 0 -33.667 -4 -47 -12c-15.333 -9.33301 -23 -22.333 -23 -39c0 -22 22.333 -38.333 67 -49c67.333 -16.667 109 -29 125 -37c44.667 -24 67 -63 67 -117c0 -52.667 -22.333 -92.667 -67 -120
c-37.333 -22.667 -84 -34 -140 -34c-80.667 0 -143 24.667 -187 74l80 75c36 -39.333 74 -59 114 -59c20 0 37.667 4.33301 53 13c18 10.667 27 24.667 27 42c0 26 -22.333 44.667 -67 56c-74 19.333 -115.667 31.333 -125 36c-44.667 22 -67 59.333 -67 112
c0 50 20 89.333 60 118c35.333 24.667 79.666 37 132.999 37c78 0 135 -24.333 171 -73z" />
    <glyph glyph-name="t" unicode="t" horiz-adv-x="389" 
d="M111 378h-99v102h99v139h120v-139h132v-102h-132v-210c0 -52 22.333 -78 67 -78c30 0 51.667 5 65 15v-101c-22 -10.667 -53.667 -16 -95 -16c-60.667 0 -102.667 14.333 -126 43c-20.667 24.667 -31 67 -31 127v220z" />
    <glyph glyph-name="u" unicode="u" horiz-adv-x="574" 
d="M506 480l0.000976562 -480h-114v77h-2c-27.333 -59.333 -76.333 -89 -147 -89c-60 0 -105.333 19.333 -136 58c-26 32.667 -39 76.334 -39 131.001v303h120v-243c0 -94 29.333 -141 88 -141c37.333 0 65.666 12.333 84.999 37c16.667 21.333 25 49.666 25 84.999v262h120
z" />
    <glyph glyph-name="v" unicode="v" horiz-adv-x="519" 
d="M199 0l-196 480h131l128 -336h2l129 336h123l-189 -480h-128z" />
    <glyph glyph-name="w" unicode="w" horiz-adv-x="796" 
d="M170 0l-167 480h130l104 -336h2l97 336h130l104 -336h2l100 336h121l-163 -480h-119l-114 328h-2l-101 -328h-124z" />
    <glyph glyph-name="x" unicode="x" horiz-adv-x="537" 
d="M-1 0l193 258l-166 222h146l96 -144l104 144h137l-164 -222l193 -258h-146l-125 172l-126 -172h-142z" />
    <glyph glyph-name="y" unicode="y" horiz-adv-x="519" 
d="M208 -4l-204.999 484h132l134 -333h2l120 333h125l-227 -583c-18.667 -48 -40.334 -82 -65.001 -102c-28 -23.333 -67.333 -35 -118 -35c-31.333 0 -62 4 -92 12l15 108c22 -8 42.333 -12 61 -12c28 0 48.667 5.66699 62 17c11.333 9.33301 22.333 27.333 33 54z" />
    <glyph glyph-name="z" unicode="z" horiz-adv-x="482" 
d="M34 0v111l257 273h-245v96h390v-109l-260 -275h272v-96h-414z" />
    <glyph glyph-name="braceleft" unicode="{" horiz-adv-x="278" 
d="M0 244v87.999c20.667 0 40 4.66699 58 14c24 12.667 36 31.334 36 56.001v198c0 40.667 16 74 48 100c26 21.333 52.667 32 80 32h91v-84h-55c-41.333 0 -62 -23.333 -62 -70v-188c0 -59.333 -32.667 -93 -98 -101v-2c65.333 -6 98 -41.667 98 -107v-182
c0 -46.667 20.667 -70 62 -70h55v-84h-91c-27.333 0 -54 10.667 -80 32c-32 26 -48 59.333 -48 100v191c0 27.333 -12 48 -36 62c-18 10 -37.333 15 -58 15z" />
    <glyph glyph-name="bar" unicode="|" horiz-adv-x="222" 
d="M60 -18v774h102v-774h-102z" />
    <glyph glyph-name="braceright" unicode="}" horiz-adv-x="278" 
d="M278 332v-87.999c-20.667 0 -39.667 -4.66699 -57 -14c-24.667 -12.667 -37 -31.334 -37 -56.001v-198c0 -40.667 -16 -74 -48 -100c-26 -21.333 -52.667 -32 -80 -32h-91v84h55c41.333 0 62 23.333 62 70v188c0 59.333 32.667 93 98 101v2c-65.333 6 -98 41.667 -98 107
v182c0 46.667 -20.667 70 -62 70h-55v84h91c27.333 0 54 -10.667 80 -32c32 -26 48 -59.333 48 -100v-191c0 -27.333 12.333 -48 37 -62c17.333 -10 36.333 -15 57 -15z" />
    <glyph glyph-name="asciitilde" unicode="~" horiz-adv-x="666" 
d="M529 385l35.9971 -84c-20 -28 -36.667 -47.667 -50 -59c-22.667 -18 -47.667 -27 -75 -27c-28 0 -62 11 -102 33c-42 23.333 -80.333 35 -115 35c-34 0 -62.667 -22.667 -86 -68l-36 84c30 57.333 70.667 86 122 86c28.667 0 67.334 -10.667 116.001 -32
c54.667 -24 88.334 -36 101.001 -36c18 0 35 7.33301 51 22c8.66699 8 21.334 23.333 38.001 46z" />
    <glyph glyph-name="exclamdown" unicode="&#xa1;" horiz-adv-x="296" 
d="M88 -222v487h120v-487h-120zM228 416c0 -21.333 -7.83301 -39.666 -23.5 -54.999s-34.5 -23 -56.5 -23s-40.833 7.33301 -56.5 22s-23.5 32.667 -23.5 54s7.83301 39.666 23.5 54.999s34.5 23 56.5 23c21.333 0 40 -7.33301 56 -22s24 -32.667 24 -54z" />
    <glyph glyph-name="cent" unicode="&#xa2;" horiz-adv-x="592" 
d="M354 559l-0.00195312 -66.998c76.667 -2.66699 133.334 -25.667 170.001 -69l-77 -78c-26.667 28 -57.667 43 -93 45v-300c37.333 0 69.666 15.333 96.999 46l73 -79c-40 -43.333 -96.667 -66.333 -170 -69v-72h-54v72c-67.333 6 -121.166 32.5 -161.499 79.5
s-60.5 104.833 -60.5 173.5c0 69.333 19.833 126.166 59.5 170.499s93.834 71.166 162.501 80.499v67h54zM299.998 90.002v299.002c-72 -14.667 -108 -64.334 -108 -149.001c0 -36 9 -67.333 27 -94c19.333 -28.667 46.333 -47.334 81 -56.001z" />
    <glyph glyph-name="sterling" unicode="&#xa3;" horiz-adv-x="592" 
d="M66 0v96h102v219h-102v84h102v100c0 57.333 18 106.666 54 147.999c42.667 48.667 102 73 178 73c80 0 143.667 -21.333 191 -64l-81 -87c-30.667 28.667 -66 43 -106 43c-35.333 0 -63.5 -12.167 -84.5 -36.5s-31.5 -53.166 -31.5 -86.499v-90h162v-84h-162v-219h253
v-96h-475z" />
    <glyph glyph-name="currency" unicode="&#xa4;" horiz-adv-x="592" 
d="M96 95l-60 60l49 49c-32.667 44 -49 94.333 -49 151c0 55.333 16.333 105.666 49 150.999l-49 49l60 59l49 -48c44.667 32 95 48 151 48s106.333 -16 151 -48l49 48l60 -59l-49 -49c32.667 -44.667 49 -95 49 -151c0 -55.333 -16.333 -105.666 -49 -150.999l49 -49
l-60 -60l-49 49c-44 -32.667 -94.333 -49 -151 -49c-56 0 -106.333 16.333 -151 49zM150 355c0 -46 13.167 -82.833 39.5 -110.5s61.833 -41.5 106.5 -41.5s80.167 13.833 106.5 41.5s39.5 64.5 39.5 110.5s-13.167 82.667 -39.5 110s-61.833 41 -106.5 41
s-80.167 -13.667 -106.5 -41s-39.5 -64 -39.5 -110z" />
    <glyph glyph-name="yen" unicode="&#xa5;" horiz-adv-x="592" 
d="M236 0v177h-170v78h170v48l-19 34h-151v78h108l-162 293h135l155 -294l149 294h129l-162 -293h108v-78h-151l-19 -34v-48h170v-78h-170v-177h-120z" />
    <glyph glyph-name="brokenbar" unicode="&#xa6;" horiz-adv-x="222" 
d="M60 -18v304h102v-304h-102zM60 452v304h102v-304h-102z" />
    <glyph glyph-name="section" unicode="&#xa7;" horiz-adv-x="593" 
d="M503 625l-105 -58.9971c-14.667 42.667 -46.334 64 -95.001 64c-22 0 -40.333 -5.33301 -55 -16c-17.333 -12 -26 -28.667 -26 -50c0 -29.333 26 -56.333 78 -81c90.667 -42.667 138.667 -66 144 -70c52 -34.667 78 -79 78 -133c0 -27.333 -8 -52.5 -24 -75.5
s-36.333 -40.5 -61 -52.5c40.667 -30 61 -69.667 61 -119c0 -56.667 -24 -101.334 -72 -134.001c-42 -28.667 -92.333 -43 -151 -43c-111.333 0 -185.333 41 -222 123l107 52c6.66699 -24 21.334 -42.333 44.001 -55c20 -12 43.333 -18 70 -18c24 0 44.333 4.66699 61 14
c20.667 11.333 31 28.333 31 51c0 29.333 -26 55.666 -78 78.999c-91.333 42 -139.333 64.333 -144 67c-52 33.333 -78 76.666 -78 129.999c0 64 32 113.333 96 148c-44 28 -66 66 -66 114c0 52 21.667 93.333 65 124c38.667 27.333 85 41 139 41
c101.333 0 169 -33.667 203 -101zM265 239.003l97 -45.002c30.667 16.667 46 40 46 70c0 22 -8.66699 40.667 -26 56c-10 8.66699 -28.333 19.334 -55 32.001l-89 42c-38.667 -18 -58 -41.333 -58 -70c0 -21.333 9.33301 -39.333 28 -54
c9.33301 -7.33301 28.333 -17.666 57 -30.999z" />
    <glyph glyph-name="dieresis" unicode="&#xa8;" 
d="M-50 636c0 19.333 7.33301 36.1699 22 50.5029s32.667 21.5 54 21.5c22 0 40.5 -6.83301 55.5 -20.5s22.5 -30.834 22.5 -51.501s-7.5 -37.834 -22.5 -51.501s-33.5 -20.5 -55.5 -20.5c-21.333 0 -39.333 7.16699 -54 21.5s-22 31.166 -22 50.499zM156 636.004
c0 19.333 7.33301 36.1699 22 50.5029s32.667 21.5 54 21.5c22 0 40.5 -6.83301 55.5 -20.5s22.5 -30.834 22.5 -51.501s-7.5 -37.834 -22.5 -51.501s-33.5 -20.5 -55.5 -20.5c-21.333 0 -39.333 7.16699 -54 21.5s-22 31.166 -22 50.499z" />
    <glyph glyph-name="copyright" unicode="&#xa9;" horiz-adv-x="800" 
d="M494 297l94 0.00195312c-6.66699 -48.667 -27.334 -86.667 -62.001 -114c-32 -26.667 -70.667 -40 -116 -40c-61.333 0 -110.333 20.667 -147 62c-34.667 39.333 -52 90 -52 152c0 63.333 17.167 114.166 51.5 152.499s82.833 57.5 145.5 57.5c46.667 0 86 -12 118 -36
c34 -26 54.667 -62.333 62 -109h-94c-8 40.667 -34 61 -78 61c-72.667 0 -109 -41.333 -109 -124c0 -38.667 9.33301 -70.334 28 -95.001s45 -37 79 -37c50.667 0 77.334 23.333 80.001 70zM28 354.002c0 102.667 36.333 190.334 109 263.001s160.334 109 263.001 109
s190.334 -36.333 263.001 -109s109 -160.334 109 -263.001s-36.333 -190.334 -109 -263.001s-160.334 -109 -263.001 -109s-190.334 36.333 -263.001 109s-109 160.334 -109 263.001zM124 354.002c0 -80.667 26.667 -148.834 80 -204.501s118.666 -83.5 195.999 -83.5
s142.666 27.833 195.999 83.5s80 123.834 80 204.501s-26.667 148.834 -80 204.501s-118.666 83.5 -195.999 83.5s-142.666 -27.833 -195.999 -83.5s-80 -123.834 -80 -204.501z" />
    <glyph glyph-name="ordfeminine" unicode="&#xaa;" horiz-adv-x="349" 
d="M243 431v39h-2c-18 -30 -52.333 -45 -103 -45c-25.333 0 -48 5.66699 -68 17c-28 15.333 -42 39 -42 71c0 66.667 66 100 198 100h17v8c0 22 -23 33 -69 33c-30 0 -57.667 -10.667 -83 -32l-43 53c34 30 80 45 138 45c90 0 135 -40 135 -120v-169h-78zM239 553h-28
c-66 0 -99 -12.333 -99 -37c0 -20.667 16.667 -31 50 -31c51.333 0 77 20.667 77 62v6z" />
    <glyph glyph-name="guillemotleft" unicode="&#xab;" horiz-adv-x="519" 
d="M257 421l-115 -173l116 -175l-76 -51l-152 226l152 224zM480 421l-115 -173l116 -175l-76 -51l-152 226l152 224z" />
    <glyph glyph-name="logicalnot" unicode="&#xac;" horiz-adv-x="666" 
d="M502 147v195h-440v102h542v-297h-102z" />
    <glyph glyph-name="minus" unicode="&#xad;" horiz-adv-x="666" 
d="M62 354h542v-102h-542v102z" />
    <glyph glyph-name="minus" unicode="&#x2212;" horiz-adv-x="666" 
d="M62 354h542v-102h-542v102z" />
    <glyph glyph-name="registered" unicode="&#xae;" horiz-adv-x="800" 
d="M257 163v390h125c117.333 0 176 -38.333 176 -115c0 -32.667 -9.33301 -60.667 -28 -84c-17.333 -20.667 -37.333 -32.667 -60 -36l100 -155h-105l-89 150h-23v-150h-96zM352 475v-84h47c42 0 63 14 63 42s-21 42 -63 42h-47zM28 354
c0 102.667 36.333 190.334 109 263.001s160.334 109 263.001 109s190.334 -36.333 263.001 -109s109 -160.334 109 -263.001s-36.333 -190.334 -109 -263.001s-160.334 -109 -263.001 -109s-190.334 36.333 -263.001 109s-109 160.334 -109 263.001zM124 354
c0 -80.667 26.667 -148.834 80 -204.501s118.666 -83.5 195.999 -83.5s142.666 27.833 195.999 83.5s80 123.834 80 204.501s-26.667 148.834 -80 204.501s-118.666 83.5 -195.999 83.5s-142.666 -27.833 -195.999 -83.5s-80 -123.834 -80 -204.501z" />
    <glyph glyph-name="macron" unicode="&#xaf;" 
d="M290 673v-78h-320v78h320z" />
    <glyph glyph-name="macron" unicode="&#x2c9;" 
d="M290 673v-78h-320v78h320z" />
    <glyph glyph-name="degree" unicode="&#xb0;" horiz-adv-x="400" 
d="M40 560c0 44 15.667 81.667 47 113s69 47 113 47s81.667 -15.667 113 -47s47 -69 47 -113s-15.667 -81.667 -47 -113s-69 -47 -113 -47s-81.667 15.667 -113 47s-47 69 -47 113zM118 560c0 -22.667 8 -42 24 -58s35.333 -24 58 -24s42 8 58 24s24 35.333 24 58
s-8 42 -24 58s-35.333 24 -58 24s-42 -8 -58 -24s-24 -35.333 -24 -58z" />
    <glyph glyph-name="plusminus" unicode="&#xb1;" horiz-adv-x="666" 
d="M283 431v143h102v-143h219v-102h-219v-143h-102v143h-221v102h221zM62 32v102h542v-102h-542z" />
    <glyph glyph-name="twosuperior" unicode="&#xb2;" horiz-adv-x="385" 
d="M31 289l-0.00195312 95l180 152c27.333 23.333 41 41.666 41 54.999c0 26 -18.667 39 -56 39c-17.333 0 -31.666 -5.16699 -42.999 -15.5s-17.666 -23.166 -18.999 -38.499l-96 6c6 92 60.333 138 163 138c46 0 83 -11 111 -33s42 -53.667 42 -95
c0 -42.667 -19.333 -79 -58 -109l-140 -108v-2h198v-84h-323z" />
    <glyph glyph-name="threesuperior" unicode="&#xb3;" horiz-adv-x="385" 
d="M146 468l-0.00292969 84h32c46.667 0 70 15 70 45c0 22 -17.667 33 -53 33c-33.333 0 -53.666 -14.667 -60.999 -44l-103 20c18 76 72.667 114 164 114c43.333 0 79.333 -9.33301 108 -28c31.333 -20.667 47 -49.334 47 -86.001c0 -52.667 -26.333 -83.667 -79 -93v-2
c26.667 -3.33301 47.834 -14.5 63.501 -33.5s23.5 -41.167 23.5 -66.5c0 -41.333 -16.333 -73.333 -49 -96c-30 -21.333 -69 -32 -117 -32c-92.667 0 -147.667 39.333 -165 118l103 22c6.66699 -33.333 27.334 -50 62.001 -50c42.667 0 64 16 64 48
c0 20.667 -9 34.334 -27 41.001c-11.333 4 -31.333 6 -60 6h-23z" />
    <glyph glyph-name="acute" unicode="&#xb4;" 
d="M83 564l99 144h136l-141 -144h-94z" />
    <glyph glyph-name="mu" unicode="&#xb5;" horiz-adv-x="574" 
d="M68 480l120.001 0.000976562v-243c0 -94 29.333 -141 88 -141c37.333 0 65.666 12.333 84.999 37c16.667 21.333 25 49.666 25 84.999v262h120v-480h-114v77h-2c-27.333 -59.333 -76.333 -89 -147 -89c-22 0 -40.333 2.33301 -55 7v-223h-120v708z" />
    <glyph glyph-name="mu" unicode="&#x3bc;" horiz-adv-x="574" 
d="M68 480l120.001 0.000976562v-243c0 -94 29.333 -141 88 -141c37.333 0 65.666 12.333 84.999 37c16.667 21.333 25 49.666 25 84.999v262h120v-480h-114v77h-2c-27.333 -59.333 -76.333 -89 -147 -89c-22 0 -40.333 2.33301 -55 7v-223h-120v708z" />
    <glyph glyph-name="paragraph" unicode="&#xb6;" horiz-adv-x="600" 
d="M246 -126v464c-64 0 -115.833 17 -155.5 51s-59.5 77.667 -59.5 131c0 125.333 77.667 188 233 188h269v-834h-90v762h-107v-762h-90z" />
    <glyph glyph-name="periodcentered" unicode="&#xb7;" horiz-adv-x="296" 
d="M68 291c0 21.333 7.83301 39.666 23.5 54.999s34.5 23 56.5 23s40.833 -7.33301 56.5 -22s23.5 -32.667 23.5 -54s-7.83301 -39.666 -23.5 -54.999s-34.5 -23 -56.5 -23c-21.333 0 -40 7.33301 -56 22s-24 32.667 -24 54z" />
    <glyph glyph-name="periodcentered" unicode="&#x2219;" horiz-adv-x="296" 
d="M68 291c0 21.333 7.83301 39.666 23.5 54.999s34.5 23 56.5 23s40.833 -7.33301 56.5 -22s23.5 -32.667 23.5 -54s-7.83301 -39.666 -23.5 -54.999s-34.5 -23 -56.5 -23c-21.333 0 -40 7.33301 -56 22s-24 32.667 -24 54z" />
    <glyph glyph-name="cedilla" unicode="&#xb8;" 
d="M219 0l-42 -60.001c38 0 65.667 -4.33301 83 -13c25.333 -12 38 -35.333 38 -70c0 -33.333 -15.667 -58.666 -47 -75.999c-25.333 -14 -56 -21 -92 -21c-37.333 0 -72.666 9.33301 -105.999 28l22 46c25.333 -13.333 52.666 -20 81.999 -20c38 0 57 14 57 42
c0 24 -17 36 -51 36c-10.667 0 -23 -2.33301 -37 -7l-27 25l62 90h58z" />
    <glyph glyph-name="onesuperior" unicode="&#xb9;" horiz-adv-x="385" 
d="M179 289v317l-84 -75l-55 66l150 117h91v-425h-102z" />
    <glyph glyph-name="ordmasculine" unicode="&#xba;" horiz-adv-x="397" 
d="M197 425c-47.333 0 -86.999 13.833 -118.999 41.5s-47.667 62.834 -47 105.501c0.666992 43.333 16.667 78.833 48 106.5s70.666 41.5 117.999 41.5c48 0 88.167 -13.833 120.5 -41.5s48.5 -63.167 48.5 -106.5c0 -42.667 -16.167 -77.834 -48.5 -105.501
s-72.5 -41.5 -120.5 -41.5zM197.001 497c26 0 47.333 8.33301 64 25c14 14.667 21 31.334 21 50.001c0 19.333 -7 36.333 -21 51c-16.667 16.667 -38 25 -64 25s-46.5 -7.83301 -61.5 -23.5s-22.5 -33.167 -22.5 -52.5c0 -18.667 7 -35.334 21 -50.001
c16 -16.667 37 -25 63 -25z" />
    <glyph glyph-name="guillemotright" unicode="&#xbb;" horiz-adv-x="519" 
d="M262 73l115 173l-116 175l76 51l152 -226l-152 -224zM39 73l115 173l-116 175l76 51l152 -226l-152 -224z" />
    <glyph glyph-name="onequarter" unicode="&#xbc;" horiz-adv-x="889" 
d="M168 289v317l-84 -75l-55 66l150 117h91v-425h-102zM705 0v85h-198v78l188 262h112v-256h53v-84h-53v-85h-102zM705 169l-1 136l-95 -136h96zM184 6l416 734l83 -38l-416 -734z" />
    <glyph glyph-name="onehalf" unicode="&#xbd;" horiz-adv-x="889" 
d="M171 289v317l-84 -75l-55 66l150 117h91v-425h-102zM535 0l-0.00195312 95l179 152c27.333 23.333 41 41.666 41 54.999c0 26 -18.667 39 -56 39c-17.333 0 -31.666 -5.16699 -42.999 -15.5s-17.666 -23.166 -18.999 -38.499l-96 6c6 92 60.333 138 163 138
c46 0 83 -11 111 -33s42 -53.667 42 -95c0 -42.667 -19.333 -79 -58 -109l-140 -108v-2h198v-84h-322zM185.998 6l416 734l83 -38l-416 -734z" />
    <glyph glyph-name="threequarters" unicode="&#xbe;" horiz-adv-x="889" 
d="M715 157v178h-2l-118 -178h120zM142 468l-0.00292969 84h32c46.667 0 70 15 70 45c0 22 -17.667 33 -53 33c-33.333 0 -53.666 -14.667 -60.999 -44l-103 20c18 76 72.667 114 164 114c43.333 0 79.333 -9.33301 108 -28c31.333 -20.667 47 -49.334 47 -86.001
c0 -52.667 -26.333 -83.667 -79 -93v-2c26.667 -3.33301 47.834 -14.5 63.501 -33.5s23.5 -41.167 23.5 -66.5c0 -41.333 -16.333 -73.333 -49 -96c-30 -21.333 -69 -32 -117 -32c-92.667 0 -147.667 39.333 -165 118l103 22c6.66699 -33.333 27.334 -50 62.001 -50
c42.667 0 64 16 64 48c0 20.667 -9 34.334 -27 41.001c-11.333 4 -31.333 6 -60 6h-23zM711.997 0v85h-198v78l188 262h112v-256h52v-84h-52v-85h-102zM210.997 6l416 734l83 -38l-416 -734z" />
    <glyph glyph-name="questiondown" unicode="&#xbf;" horiz-adv-x="519" 
d="M189 277h120.001v-55c0 -28 -4 -49.667 -12 -65c-5.33301 -12 -19.333 -29.333 -42 -52l-77 -78c-16.667 -16.667 -25 -38.334 -25 -65.001c0 -26 8.5 -47.167 25.5 -63.5s38.5 -24.5 64.5 -24.5c27.333 0 50.166 9.33301 68.499 28s28.833 42 31.5 70l128 -10
c-7.33301 -62.667 -32 -112 -74 -148s-95 -54 -159 -54c-61.333 0 -111.333 16.667 -150 50c-40.667 35.333 -61 83.666 -61 144.999c0 38.667 11 73.334 33 104.001c10.667 16 36 42.667 76 80c22 20.667 35.333 35.334 40 44.001c8.66699 13.333 13 32 13 56v38z
M329.001 416c0 -21.333 -7.83301 -39.666 -23.5 -54.999s-34.5 -23 -56.5 -23s-40.833 7.33301 -56.5 22s-23.5 32.667 -23.5 54s7.83301 39.666 23.5 54.999s34.5 23 56.5 23c21.333 0 40 -7.33301 56 -22s24 -32.667 24 -54z" />
    <glyph glyph-name="Agrave" unicode="&#xc0;" horiz-adv-x="722" 
d="M0 0l308 708h109l305 -708h-144l-66 162h-307l-64 -162h-141zM248 270h220l-109 288zM309 900l99 -144h-94l-141 144h136z" />
    <glyph glyph-name="Aacute" unicode="&#xc1;" horiz-adv-x="722" 
d="M0 0l308 708h109l305 -708h-144l-66 162h-307l-64 -162h-141zM248 270h220l-109 288zM314 756l99 144h136l-141 -144h-94z" />
    <glyph glyph-name="Acircumflex" unicode="&#xc2;" horiz-adv-x="722" 
d="M0 0l308 708h109l305 -708h-144l-66 162h-307l-64 -162h-141zM248 270h220l-109 288zM543 756h-114l-69 90l-69 -90h-112l115 144h135z" />
    <glyph glyph-name="Atilde" unicode="&#xc3;" horiz-adv-x="722" 
d="M0 0l308 708h109l305 -708h-144l-66 162h-307l-64 -162h-141zM248 270h220l-109 288zM243 760h-66.001c14.667 84.667 52 127 112 127c20 0 46.833 -6.16699 80.5 -18.5s54.834 -18.5 63.501 -18.5c22 0 37.333 14 46 42h66c-14.667 -84.667 -52 -127 -112 -127
c-20 0 -46.833 6.33301 -80.5 19s-54.834 19 -63.501 19c-21.333 0 -36.666 -14.333 -45.999 -43z" />
    <glyph glyph-name="Adieresis" unicode="&#xc4;" horiz-adv-x="722" 
d="M0 0l308 708h109l305 -708h-144l-66 162h-307l-64 -162h-141zM248 270h220l-109 288zM181 828c0 19.333 7.33301 36.1699 22 50.5029s32.667 21.5 54 21.5c22 0 40.5 -6.83301 55.5 -20.5s22.5 -30.834 22.5 -51.501s-7.5 -37.834 -22.5 -51.501s-33.5 -20.5 -55.5 -20.5
c-21.333 0 -39.333 7.16699 -54 21.5s-22 31.166 -22 50.499zM387 828.004c0 19.333 7.33301 36.1699 22 50.5029s32.667 21.5 54 21.5c22 0 40.5 -6.83301 55.5 -20.5s22.5 -30.834 22.5 -51.501s-7.5 -37.834 -22.5 -51.501s-33.5 -20.5 -55.5 -20.5
c-21.333 0 -39.333 7.16699 -54 21.5s-22 31.166 -22 50.499z" />
    <glyph glyph-name="Aring" unicode="&#xc5;" horiz-adv-x="722" 
d="M0 0l308 708h109l305 -708h-144l-66 162h-307l-64 -162h-141zM248 270h220l-109 288zM466 837c0 -29.333 -10.001 -53.668 -30.001 -73.001s-45 -29 -75 -29c-29.333 0 -54.166 9.66699 -74.499 29s-30.5 43.333 -30.5 72c0 29.333 10 53.833 30 73.5s45 29.5 75 29.5
s55 -9.66699 75 -29s30 -43.666 30 -72.999zM417.999 836.998c0 15.333 -5.66699 28.166 -17 38.499s-24.666 15.5 -39.999 15.5s-28.666 -5.16699 -39.999 -15.5s-17 -23.166 -17 -38.499s5.66699 -28.166 17 -38.499s24.666 -15.5 39.999 -15.5
s28.666 5.16699 39.999 15.5s17 23.166 17 38.499z" />
    <glyph glyph-name="AE" unicode="&#xc6;" horiz-adv-x="1000" 
d="M529 0v186h-268l-114 -186h-153l453 708h496v-114h-288v-174h270v-114h-270v-192h300v-114h-426zM327 294h202v300h-15z" />
    <glyph glyph-name="Ccedilla" unicode="&#xc7;" horiz-adv-x="685" 
d="M663 614l-98.001 -72.001c-44 46.667 -93.667 70 -149 70c-72 0 -130.5 -24.167 -175.5 -72.5s-67.5 -108.5 -67.5 -180.5c0 -76.667 22.5 -139.667 67.5 -189s103.5 -74 175.5 -74c61.333 0 114.333 28.667 159 86l104 -74c-61.333 -84 -149.333 -126 -264 -126
c-110 0 -199.833 34 -269.5 102s-104.5 157 -104.5 267c0 112.667 34.833 203.334 104.5 272.001s159.5 103 269.5 103c100.667 0 183.334 -37.333 248.001 -112zM431.999 -0.000976562l-42 -60.001c38 0 65.667 -4.33301 83 -13c25.333 -12 38 -35.333 38 -70
c0 -33.333 -15.667 -58.666 -47 -75.999c-25.333 -14 -56 -21 -92 -21c-37.333 0 -72.666 9.33301 -105.999 28l22 46c25.333 -13.333 52.666 -20 81.999 -20c38 0 57 14 57 42c0 24 -17 36 -51 36c-10.667 0 -23 -2.33301 -37 -7l-27 25l62 90h58z" />
    <glyph glyph-name="Egrave" unicode="&#xc8;" horiz-adv-x="611" 
d="M79 0v708h469v-114h-343v-174h325v-114h-325v-192h361v-114h-487zM254 900l99 -144h-94l-141 144h136z" />
    <glyph glyph-name="Eacute" unicode="&#xc9;" horiz-adv-x="611" 
d="M79 0v708h469v-114h-343v-174h325v-114h-325v-192h361v-114h-487zM259 756l99 144h136l-141 -144h-94z" />
    <glyph glyph-name="Ecircumflex" unicode="&#xca;" horiz-adv-x="611" 
d="M79 0v708h469v-114h-343v-174h325v-114h-325v-192h361v-114h-487zM488 756h-114l-69 90l-69 -90h-112l115 144h135z" />
    <glyph glyph-name="Edieresis" unicode="&#xcb;" horiz-adv-x="611" 
d="M79 0v708h469v-114h-343v-174h325v-114h-325v-192h361v-114h-487zM126 828c0 19.333 7.33301 36.1699 22 50.5029s32.667 21.5 54 21.5c22 0 40.5 -6.83301 55.5 -20.5s22.5 -30.834 22.5 -51.501s-7.5 -37.834 -22.5 -51.501s-33.5 -20.5 -55.5 -20.5
c-21.333 0 -39.333 7.16699 -54 21.5s-22 31.166 -22 50.499zM332 828.004c0 19.333 7.33301 36.1699 22 50.5029s32.667 21.5 54 21.5c22 0 40.5 -6.83301 55.5 -20.5s22.5 -30.834 22.5 -51.501s-7.5 -37.834 -22.5 -51.501s-33.5 -20.5 -55.5 -20.5
c-21.333 0 -39.333 7.16699 -54 21.5s-22 31.166 -22 50.499z" />
    <glyph glyph-name="Igrave" unicode="&#xcc;" horiz-adv-x="278" 
d="M76 0v708h126v-708h-126zM87 900l99 -144h-94l-141 144h136z" />
    <glyph glyph-name="Iacute" unicode="&#xcd;" horiz-adv-x="278" 
d="M76 0v708h126v-708h-126zM92 756l99 144h136l-141 -144h-94z" />
    <glyph glyph-name="Icircumflex" unicode="&#xce;" horiz-adv-x="278" 
d="M76 0v708h126v-708h-126zM321 756h-114l-69 90l-69 -90h-112l115 144h135z" />
    <glyph glyph-name="Idieresis" unicode="&#xcf;" horiz-adv-x="278" 
d="M76 0v708h126v-708h-126zM-41 828c0 19.333 7.33301 36.1699 22 50.5029s32.667 21.5 54 21.5c22 0 40.5 -6.83301 55.5 -20.5s22.5 -30.834 22.5 -51.501s-7.5 -37.834 -22.5 -51.501s-33.5 -20.5 -55.5 -20.5c-21.333 0 -39.333 7.16699 -54 21.5
s-22 31.166 -22 50.499zM165 828.004c0 19.333 7.33301 36.1699 22 50.5029s32.667 21.5 54 21.5c22 0 40.5 -6.83301 55.5 -20.5s22.5 -30.834 22.5 -51.501s-7.5 -37.834 -22.5 -51.501s-33.5 -20.5 -55.5 -20.5c-21.333 0 -39.333 7.16699 -54 21.5
s-22 31.166 -22 50.499z" />
    <glyph glyph-name="Eth" unicode="&#xd0;" horiz-adv-x="759" 
d="M79 0v324h-66v84h66v300h279c100 0 183.333 -29 250 -87c73.333 -64.667 110 -153.667 110 -267c0 -112 -41.333 -201.333 -124 -268c-71.333 -57.333 -155 -86 -251 -86h-264zM205 114l94 0.000976562c85.333 0 153 18.667 203 56c56 41.333 84 102.666 84 183.999
c0 82 -25 143.667 -75 185c-45.333 36.667 -109 55 -191 55h-115v-186h216v-84h-216v-210z" />
    <glyph glyph-name="Ntilde" unicode="&#xd1;" horiz-adv-x="796" 
d="M79 0v708h167l345 -528h-2l2 2v526h126v-708h-160l-350 543h-2v-543h-126zM280 760h-66.001c14.667 84.667 52 127 112 127c20 0 46.833 -6.16699 80.5 -18.5s54.834 -18.5 63.501 -18.5c22 0 37.333 14 46 42h66c-14.667 -84.667 -52 -127 -112 -127
c-20 0 -46.833 6.33301 -80.5 19s-54.834 19 -63.501 19c-21.333 0 -36.666 -14.333 -45.999 -43z" />
    <glyph glyph-name="Ograve" unicode="&#xd2;" horiz-adv-x="833" 
d="M41 351c0 112 35 202.669 105 272.002c69.333 67.333 159 101.666 269 102.999c111.333 1.33301 202 -32 272 -100s105 -158.333 105 -271c0 -110 -35 -199.333 -105 -268s-160.667 -103.667 -272 -105c-109.333 -0.666992 -199 33.166 -269 101.499
s-105 157.5 -105 267.5zM173 359.002c0 -76.667 22.5 -139.667 67.5 -189s103.5 -74 175.5 -74c72.667 0 131.5 24.667 176.5 74s67.5 112.333 67.5 189c0 72 -22.667 132.167 -68 180.5s-104 72.5 -176 72.5s-130.5 -24.167 -175.5 -72.5s-67.5 -108.5 -67.5 -180.5z
M365 900.002l99 -144h-94l-141 144h136z" />
    <glyph glyph-name="Oacute" unicode="&#xd3;" horiz-adv-x="833" 
d="M41 351c0 112 35 202.669 105 272.002c69.333 67.333 159 101.666 269 102.999c111.333 1.33301 202 -32 272 -100s105 -158.333 105 -271c0 -110 -35 -199.333 -105 -268s-160.667 -103.667 -272 -105c-109.333 -0.666992 -199 33.166 -269 101.499
s-105 157.5 -105 267.5zM173 359.002c0 -76.667 22.5 -139.667 67.5 -189s103.5 -74 175.5 -74c72.667 0 131.5 24.667 176.5 74s67.5 112.333 67.5 189c0 72 -22.667 132.167 -68 180.5s-104 72.5 -176 72.5s-130.5 -24.167 -175.5 -72.5s-67.5 -108.5 -67.5 -180.5z
M370 756.002l99 144h136l-141 -144h-94z" />
    <glyph glyph-name="Ocircumflex" unicode="&#xd4;" horiz-adv-x="833" 
d="M41 351c0 112 35 202.669 105 272.002c69.333 67.333 159 101.666 269 102.999c111.333 1.33301 202 -32 272 -100s105 -158.333 105 -271c0 -110 -35 -199.333 -105 -268s-160.667 -103.667 -272 -105c-109.333 -0.666992 -199 33.166 -269 101.499
s-105 157.5 -105 267.5zM173 359.002c0 -76.667 22.5 -139.667 67.5 -189s103.5 -74 175.5 -74c72.667 0 131.5 24.667 176.5 74s67.5 112.333 67.5 189c0 72 -22.667 132.167 -68 180.5s-104 72.5 -176 72.5s-130.5 -24.167 -175.5 -72.5s-67.5 -108.5 -67.5 -180.5z
M599 756.002h-114l-69 90l-69 -90h-112l115 144h135z" />
    <glyph glyph-name="Otilde" unicode="&#xd5;" horiz-adv-x="833" 
d="M41 351c0 112 35 202.669 105 272.002c69.333 67.333 159 101.666 269 102.999c111.333 1.33301 202 -32 272 -100s105 -158.333 105 -271c0 -110 -35 -199.333 -105 -268s-160.667 -103.667 -272 -105c-109.333 -0.666992 -199 33.166 -269 101.499
s-105 157.5 -105 267.5zM173 359.002c0 -76.667 22.5 -139.667 67.5 -189s103.5 -74 175.5 -74c72.667 0 131.5 24.667 176.5 74s67.5 112.333 67.5 189c0 72 -22.667 132.167 -68 180.5s-104 72.5 -176 72.5s-130.5 -24.167 -175.5 -72.5s-67.5 -108.5 -67.5 -180.5z
M299 760.002h-66.001c14.667 84.667 52 127 112 127c20 0 46.833 -6.16699 80.5 -18.5s54.834 -18.5 63.501 -18.5c22 0 37.333 14 46 42h66c-14.667 -84.667 -52 -127 -112 -127c-20 0 -46.833 6.33301 -80.5 19s-54.834 19 -63.501 19
c-21.333 0 -36.666 -14.333 -45.999 -43z" />
    <glyph glyph-name="Odieresis" unicode="&#xd6;" horiz-adv-x="833" 
d="M41 351c0 112 35 202.669 105 272.002c69.333 67.333 159 101.666 269 102.999c111.333 1.33301 202 -32 272 -100s105 -158.333 105 -271c0 -110 -35 -199.333 -105 -268s-160.667 -103.667 -272 -105c-109.333 -0.666992 -199 33.166 -269 101.499
s-105 157.5 -105 267.5zM173 359.002c0 -76.667 22.5 -139.667 67.5 -189s103.5 -74 175.5 -74c72.667 0 131.5 24.667 176.5 74s67.5 112.333 67.5 189c0 72 -22.667 132.167 -68 180.5s-104 72.5 -176 72.5s-130.5 -24.167 -175.5 -72.5s-67.5 -108.5 -67.5 -180.5z
M237 828.002c0 19.333 7.33301 36.1699 22 50.5029s32.667 21.5 54 21.5c22 0 40.5 -6.83301 55.5 -20.5s22.5 -30.834 22.5 -51.501s-7.5 -37.834 -22.5 -51.501s-33.5 -20.5 -55.5 -20.5c-21.333 0 -39.333 7.16699 -54 21.5s-22 31.166 -22 50.499zM443 828.006
c0 19.333 7.33301 36.1699 22 50.5029s32.667 21.5 54 21.5c22 0 40.5 -6.83301 55.5 -20.5s22.5 -30.834 22.5 -51.501s-7.5 -37.834 -22.5 -51.501s-33.5 -20.5 -55.5 -20.5c-21.333 0 -39.333 7.16699 -54 21.5s-22 31.166 -22 50.499z" />
    <glyph glyph-name="multiply" unicode="&#xd7;" horiz-adv-x="666" 
d="M150 557l183 -183l182 182l70 -70l-181 -181l185 -186l-74 -74l-183 181l-181 -181l-74 73l185 182l-184 186z" />
    <glyph glyph-name="Oslash" unicode="&#xd8;" horiz-adv-x="833" 
d="M219 197l340 370c-41.333 30 -89 45 -143 45c-72 0 -130.5 -24.167 -175.5 -72.5s-67.5 -108.5 -67.5 -180.5c0 -61.333 15.333 -115.333 46 -162zM606 521l-342 -373c43.333 -34.667 94 -52 152 -52c72.667 0 131.5 24.667 176.5 74s67.5 112.333 67.5 189
c0 64.667 -18 118.667 -54 162zM732 755l49 -43l-86 -94c64.667 -68 97 -155.667 97 -263c0 -110 -35 -199.333 -105 -268s-160.667 -103.667 -272 -105c-90.667 -1.33301 -169.334 23.334 -236.001 74.001l-85 -92l-50 43l87 94c-60 67.333 -90 150.666 -90 249.999
c0 112.667 34.833 203.167 104.5 271.5s159.5 102.833 269.5 103.5c88.667 0.666992 165.334 -21 230.001 -65z" />
    <glyph glyph-name="Ugrave" unicode="&#xd9;" horiz-adv-x="722" 
d="M646 708v-448c0 -84 -26.833 -151.333 -80.5 -202s-121.834 -76 -204.501 -76s-150.334 25 -203.001 75c-54.667 51.333 -82 119 -82 203v448h126v-444c0 -42 11.333 -77.667 34 -107c28.667 -36.667 70.334 -55 125.001 -55s96.334 18.333 125.001 55
c22.667 29.333 34 65 34 107v444h126zM309 900l99 -144h-94l-141 144h136z" />
    <glyph glyph-name="Uacute" unicode="&#xda;" horiz-adv-x="722" 
d="M646 708v-448c0 -84 -26.833 -151.333 -80.5 -202s-121.834 -76 -204.501 -76s-150.334 25 -203.001 75c-54.667 51.333 -82 119 -82 203v448h126v-444c0 -42 11.333 -77.667 34 -107c28.667 -36.667 70.334 -55 125.001 -55s96.334 18.333 125.001 55
c22.667 29.333 34 65 34 107v444h126zM314 756l99 144h136l-141 -144h-94z" />
    <glyph glyph-name="Ucircumflex" unicode="&#xdb;" horiz-adv-x="722" 
d="M646 708v-448c0 -84 -26.833 -151.333 -80.5 -202s-121.834 -76 -204.501 -76s-150.334 25 -203.001 75c-54.667 51.333 -82 119 -82 203v448h126v-444c0 -42 11.333 -77.667 34 -107c28.667 -36.667 70.334 -55 125.001 -55s96.334 18.333 125.001 55
c22.667 29.333 34 65 34 107v444h126zM543 756h-114l-69 90l-69 -90h-112l115 144h135z" />
    <glyph glyph-name="Udieresis" unicode="&#xdc;" horiz-adv-x="722" 
d="M646 708v-448c0 -84 -26.833 -151.333 -80.5 -202s-121.834 -76 -204.501 -76s-150.334 25 -203.001 75c-54.667 51.333 -82 119 -82 203v448h126v-444c0 -42 11.333 -77.667 34 -107c28.667 -36.667 70.334 -55 125.001 -55s96.334 18.333 125.001 55
c22.667 29.333 34 65 34 107v444h126zM181 828c0 19.333 7.33301 36.1699 22 50.5029s32.667 21.5 54 21.5c22 0 40.5 -6.83301 55.5 -20.5s22.5 -30.834 22.5 -51.501s-7.5 -37.834 -22.5 -51.501s-33.5 -20.5 -55.5 -20.5c-21.333 0 -39.333 7.16699 -54 21.5
s-22 31.166 -22 50.499zM387 828.004c0 19.333 7.33301 36.1699 22 50.5029s32.667 21.5 54 21.5c22 0 40.5 -6.83301 55.5 -20.5s22.5 -30.834 22.5 -51.501s-7.5 -37.834 -22.5 -51.501s-33.5 -20.5 -55.5 -20.5c-21.333 0 -39.333 7.16699 -54 21.5
s-22 31.166 -22 50.499z" />
    <glyph glyph-name="Yacute" unicode="&#xdd;" horiz-adv-x="630" 
d="M252 0v303l-266 405h158l174 -282l176 282h150l-266 -405v-303h-126zM268 756l99 144h136l-141 -144h-94z" />
    <glyph glyph-name="Thorn" unicode="&#xde;" horiz-adv-x="611" 
d="M79 0v707.999h126v-137h112c174 0 261 -68.333 261 -205c0 -81.333 -28.333 -138.666 -85 -171.999c-44 -25.333 -110 -38 -198 -38h-90v-156h-126zM205 263.999l76 -0.000976562c50 0 86.667 4.66699 110 14c36.667 14.667 55 43.334 55 86.001c0 66 -50.333 99 -151 99
h-90v-199z" />
    <glyph glyph-name="germandbls" unicode="&#xdf;" horiz-adv-x="611" 
d="M56 0v511.002c0 89.333 19.667 154.5 59 195.5s99.666 61.5 180.999 61.5c61.333 0 112 -15.333 152 -46c43.333 -34 65 -80.333 65 -139c0 -76 -35.333 -128.667 -106 -158v-2c51.333 -6.66699 91.333 -29.667 120 -69c26.667 -36 40 -81.333 40 -136
c0 -68 -22 -123.333 -66 -166s-100.333 -64 -169 -64c-30 0 -58 3.66699 -84 11v101c14.667 -6.66699 33 -10 55 -10c42.667 0 77.334 12.5 104.001 37.5s40 58.5 40 100.5c0 46 -13.833 81.333 -41.5 106s-64.5 37 -110.5 37h-14v102h8c30 0 54.833 8.5 74.5 25.5
s29.5 39.833 29.5 68.5c0 27.333 -9.83301 49.666 -29.5 66.999s-43.5 26 -71.5 26c-38.667 0 -68 -11.667 -88 -35c-18.667 -20.667 -28 -49.334 -28 -86.001v-539h-120z" />
    <glyph glyph-name="agrave" unicode="&#xe0;" horiz-adv-x="537" 
d="M368 0v66h-3c-32.667 -52 -84 -78 -154 -78c-48 0 -88.333 12 -121 36c-36 26.667 -54 62.667 -54 108c0 68.667 35.333 116 106 142c45.333 16.667 110.666 25 195.999 25h30v13c0 28.667 -10 50.834 -30 66.501s-46.667 23.5 -80 23.5c-50 0 -92.667 -16.667 -128 -50
l-63 63c50.667 51.333 118.667 77 204 77c88.667 0 148.334 -27.333 179.001 -82c17.333 -30.667 26 -75.334 26 -134.001v-276h-108zM361 188v27h-25c-120 0 -180 -24.667 -180 -74c0 -20.667 9 -36.667 27 -48c16 -10 35 -15 57 -15c80.667 0 121 36.667 121 110zM217 708
l99 -144h-94l-141 144h136z" />
    <glyph glyph-name="aacute" unicode="&#xe1;" horiz-adv-x="537" 
d="M368 0v66h-3c-32.667 -52 -84 -78 -154 -78c-48 0 -88.333 12 -121 36c-36 26.667 -54 62.667 -54 108c0 68.667 35.333 116 106 142c45.333 16.667 110.666 25 195.999 25h30v13c0 28.667 -10 50.834 -30 66.501s-46.667 23.5 -80 23.5c-50 0 -92.667 -16.667 -128 -50
l-63 63c50.667 51.333 118.667 77 204 77c88.667 0 148.334 -27.333 179.001 -82c17.333 -30.667 26 -75.334 26 -134.001v-276h-108zM361 188v27h-25c-120 0 -180 -24.667 -180 -74c0 -20.667 9 -36.667 27 -48c16 -10 35 -15 57 -15c80.667 0 121 36.667 121 110zM222 564
l99 144h136l-141 -144h-94z" />
    <glyph glyph-name="acircumflex" unicode="&#xe2;" horiz-adv-x="537" 
d="M368 0v66h-3c-32.667 -52 -84 -78 -154 -78c-48 0 -88.333 12 -121 36c-36 26.667 -54 62.667 -54 108c0 68.667 35.333 116 106 142c45.333 16.667 110.666 25 195.999 25h30v13c0 28.667 -10 50.834 -30 66.501s-46.667 23.5 -80 23.5c-50 0 -92.667 -16.667 -128 -50
l-63 63c50.667 51.333 118.667 77 204 77c88.667 0 148.334 -27.333 179.001 -82c17.333 -30.667 26 -75.334 26 -134.001v-276h-108zM361 188v27h-25c-120 0 -180 -24.667 -180 -74c0 -20.667 9 -36.667 27 -48c16 -10 35 -15 57 -15c80.667 0 121 36.667 121 110zM451 564
h-114l-69 90l-69 -90h-112l115 144h135z" />
    <glyph glyph-name="atilde" unicode="&#xe3;" horiz-adv-x="537" 
d="M368 0v66h-3c-32.667 -52 -84 -78 -154 -78c-48 0 -88.333 12 -121 36c-36 26.667 -54 62.667 -54 108c0 68.667 35.333 116 106 142c45.333 16.667 110.666 25 195.999 25h30v13c0 28.667 -10 50.834 -30 66.501s-46.667 23.5 -80 23.5c-50 0 -92.667 -16.667 -128 -50
l-63 63c50.667 51.333 118.667 77 204 77c88.667 0 148.334 -27.333 179.001 -82c17.333 -30.667 26 -75.334 26 -134.001v-276h-108zM361 188v27h-25c-120 0 -180 -24.667 -180 -74c0 -20.667 9 -36.667 27 -48c16 -10 35 -15 57 -15c80.667 0 121 36.667 121 110zM151 568
h-66.001c14.667 84.667 52 127 112 127c20 0 46.833 -6.16699 80.5 -18.5s54.834 -18.5 63.501 -18.5c22 0 37.333 14 46 42h66c-14.667 -84.667 -52 -127 -112 -127c-20 0 -46.833 6.33301 -80.5 19s-54.834 19 -63.501 19c-21.333 0 -36.666 -14.333 -45.999 -43z" />
    <glyph glyph-name="adieresis" unicode="&#xe4;" horiz-adv-x="537" 
d="M368 0v66h-3c-32.667 -52 -84 -78 -154 -78c-48 0 -88.333 12 -121 36c-36 26.667 -54 62.667 -54 108c0 68.667 35.333 116 106 142c45.333 16.667 110.666 25 195.999 25h30v13c0 28.667 -10 50.834 -30 66.501s-46.667 23.5 -80 23.5c-50 0 -92.667 -16.667 -128 -50
l-63 63c50.667 51.333 118.667 77 204 77c88.667 0 148.334 -27.333 179.001 -82c17.333 -30.667 26 -75.334 26 -134.001v-276h-108zM361 188v27h-25c-120 0 -180 -24.667 -180 -74c0 -20.667 9 -36.667 27 -48c16 -10 35 -15 57 -15c80.667 0 121 36.667 121 110zM89 636
c0 19.333 7.33301 36.1699 22 50.5029s32.667 21.5 54 21.5c22 0 40.5 -6.83301 55.5 -20.5s22.5 -30.834 22.5 -51.501s-7.5 -37.834 -22.5 -51.501s-33.5 -20.5 -55.5 -20.5c-21.333 0 -39.333 7.16699 -54 21.5s-22 31.166 -22 50.499zM295 636.004
c0 19.333 7.33301 36.1699 22 50.5029s32.667 21.5 54 21.5c22 0 40.5 -6.83301 55.5 -20.5s22.5 -30.834 22.5 -51.501s-7.5 -37.834 -22.5 -51.501s-33.5 -20.5 -55.5 -20.5c-21.333 0 -39.333 7.16699 -54 21.5s-22 31.166 -22 50.499z" />
    <glyph glyph-name="aring" unicode="&#xe5;" horiz-adv-x="537" 
d="M368 0v66h-3c-32.667 -52 -84 -78 -154 -78c-48 0 -88.333 12 -121 36c-36 26.667 -54 62.667 -54 108c0 68.667 35.333 116 106 142c45.333 16.667 110.666 25 195.999 25h30v13c0 28.667 -10 50.834 -30 66.501s-46.667 23.5 -80 23.5c-50 0 -92.667 -16.667 -128 -50
l-63 63c50.667 51.333 118.667 77 204 77c88.667 0 148.334 -27.333 179.001 -82c17.333 -30.667 26 -75.334 26 -134.001v-276h-108zM361 188v27h-25c-120 0 -180 -24.667 -180 -74c0 -20.667 9 -36.667 27 -48c16 -10 35 -15 57 -15c80.667 0 121 36.667 121 110zM374 655
c0 -29.333 -10.001 -53.668 -30.001 -73.001s-45 -29 -75 -29c-29.333 0 -54.166 9.66699 -74.499 29s-30.5 43.333 -30.5 72c0 29.333 10 53.833 30 73.5s45 29.5 75 29.5s55 -9.66699 75 -29s30 -43.666 30 -72.999zM325.999 654.998c0 15.333 -5.66699 28.166 -17 38.499
s-24.666 15.5 -39.999 15.5s-28.666 -5.16699 -39.999 -15.5s-17 -23.166 -17 -38.499s5.66699 -28.166 17 -38.499s24.666 -15.5 39.999 -15.5s28.666 5.16699 39.999 15.5s17 23.166 17 38.499z" />
    <glyph glyph-name="ae" unicode="&#xe6;" horiz-adv-x="852" 
d="M816 237l-0.000976562 -32.998h-350c-1.33301 -36.667 11.334 -67.334 38.001 -92.001c24 -22.667 50.333 -34 79 -34c50 0 92.667 21.667 128 65l83 -59c-50 -64 -120.333 -96 -211 -96c-78.667 0 -138.334 28.667 -179.001 86c-36.667 -56.667 -101 -85 -193 -85
c-47.333 0 -87 11.667 -119 35c-37.333 26 -56 62.333 -56 109c0 55.333 20.333 95.333 61 120c37.333 23.333 94.333 35 171 35h98c0 76.667 -36 115 -108 115c-50 0 -92.667 -16.667 -128 -50l-63 63c49.333 50 117.333 75.667 204 77c68 1.33301 121 -22.334 159 -71.001
c42.667 46.667 94.334 70 155.001 70c74.667 0 132.667 -25 174 -75c38 -45.333 57 -105.333 57 -180zM238.999 79.002c38.667 0 70 12 94 36c22 21.333 33 47 33 77v12h-60c-100 0 -150 -21 -150 -63c0 -20.667 10 -36.667 30 -48c15.333 -9.33301 33 -14 53 -14z
M467.999 288.002l232 -0.00195312c-2 34.667 -13.167 62.334 -33.5 83.001s-47.833 31 -82.5 31c-32.667 0 -59.667 -10.667 -81 -32s-33 -48.666 -35 -81.999z" />
    <glyph glyph-name="ccedilla" unicode="&#xe7;" horiz-adv-x="482" 
d="M479 419l-82.999 -83.002c-30.667 32 -61 48 -91 48c-42.667 0 -76.834 -14.167 -102.501 -42.5s-38.5 -62.166 -38.5 -101.499s12.667 -72.666 38 -99.999c26 -29.333 60.333 -44 103 -44c39.333 0 70.333 15 93 45l80 -86c-22 -22 -51.667 -39.333 -89 -52
c-30 -10 -58 -15 -84 -15c-74 0 -136 23.5 -186 70.5s-75 107.5 -75 181.5s25.333 135 76 183c49.333 46 111 69 185 69c72 0 130 -24.333 174 -73zM315.001 -0.00195312l-42 -60.001c38 0 65.667 -4.33301 83 -13c25.333 -12 38 -35.333 38 -70
c0 -33.333 -15.667 -58.666 -47 -75.999c-25.333 -14 -56 -21 -92 -21c-37.333 0 -72.666 9.33301 -105.999 28l22 46c25.333 -13.333 52.666 -20 81.999 -20c38 0 57 14 57 42c0 24 -17 36 -51 36c-10.667 0 -23 -2.33301 -37 -7l-27 25l62 90h58z" />
    <glyph glyph-name="egrave" unicode="&#xe8;" horiz-adv-x="574" 
d="M530 198l-366 0.000976562c4 -34.667 18 -62.334 42 -83.001s53 -31 87 -31c50.667 0 93.667 21.667 129 65l86 -65c-52 -64 -119.667 -96 -203 -96c-74 0 -136 23.5 -186 70.5s-75 107.5 -75 181.5s25.333 135 76 183c49.333 46 111 69 185 69c68 0 122.5 -23 163.5 -69
s61.5 -110 61.5 -192v-33zM164 288.001h246.003c-0.666992 35.333 -11.834 63.166 -33.501 83.499s-51.167 30.5 -88.5 30.5c-34.667 0 -62.834 -10.167 -84.501 -30.5s-34.834 -48.166 -39.501 -83.499zM235.003 708.001l99 -144h-94l-141 144h136z" />
    <glyph glyph-name="eacute" unicode="&#xe9;" horiz-adv-x="574" 
d="M530 198l-366 0.000976562c4 -34.667 18 -62.334 42 -83.001s53 -31 87 -31c50.667 0 93.667 21.667 129 65l86 -65c-52 -64 -119.667 -96 -203 -96c-74 0 -136 23.5 -186 70.5s-75 107.5 -75 181.5s25.333 135 76 183c49.333 46 111 69 185 69c68 0 122.5 -23 163.5 -69
s61.5 -110 61.5 -192v-33zM164 288.001h246.003c-0.666992 35.333 -11.834 63.166 -33.501 83.499s-51.167 30.5 -88.5 30.5c-34.667 0 -62.834 -10.167 -84.501 -30.5s-34.834 -48.166 -39.501 -83.499zM240.003 564.001l99 144h136l-141 -144h-94z" />
    <glyph glyph-name="ecircumflex" unicode="&#xea;" horiz-adv-x="574" 
d="M530 198l-366 0.000976562c4 -34.667 18 -62.334 42 -83.001s53 -31 87 -31c50.667 0 93.667 21.667 129 65l86 -65c-52 -64 -119.667 -96 -203 -96c-74 0 -136 23.5 -186 70.5s-75 107.5 -75 181.5s25.333 135 76 183c49.333 46 111 69 185 69c68 0 122.5 -23 163.5 -69
s61.5 -110 61.5 -192v-33zM164 288.001h246.003c-0.666992 35.333 -11.834 63.166 -33.501 83.499s-51.167 30.5 -88.5 30.5c-34.667 0 -62.834 -10.167 -84.501 -30.5s-34.834 -48.166 -39.501 -83.499zM469.003 564.001h-114l-69 90l-69 -90h-112l115 144h135z" />
    <glyph glyph-name="edieresis" unicode="&#xeb;" horiz-adv-x="574" 
d="M530 198l-366 0.000976562c4 -34.667 18 -62.334 42 -83.001s53 -31 87 -31c50.667 0 93.667 21.667 129 65l86 -65c-52 -64 -119.667 -96 -203 -96c-74 0 -136 23.5 -186 70.5s-75 107.5 -75 181.5s25.333 135 76 183c49.333 46 111 69 185 69c68 0 122.5 -23 163.5 -69
s61.5 -110 61.5 -192v-33zM164 288.001h246.003c-0.666992 35.333 -11.834 63.166 -33.501 83.499s-51.167 30.5 -88.5 30.5c-34.667 0 -62.834 -10.167 -84.501 -30.5s-34.834 -48.166 -39.501 -83.499zM107.003 636.001c0 19.333 7.33301 36.1699 22 50.5029
s32.667 21.5 54 21.5c22 0 40.5 -6.83301 55.5 -20.5s22.5 -30.834 22.5 -51.501s-7.5 -37.834 -22.5 -51.501s-33.5 -20.5 -55.5 -20.5c-21.333 0 -39.333 7.16699 -54 21.5s-22 31.166 -22 50.499zM313.003 636.005c0 19.333 7.33301 36.1699 22 50.5029
s32.667 21.5 54 21.5c22 0 40.5 -6.83301 55.5 -20.5s22.5 -30.834 22.5 -51.501s-7.5 -37.834 -22.5 -51.501s-33.5 -20.5 -55.5 -20.5c-21.333 0 -39.333 7.16699 -54 21.5s-22 31.166 -22 50.499z" />
    <glyph glyph-name="igrave" unicode="&#xec;" 
d="M70 0v480h120v-480h-120zM90 708l99 -144h-94l-141 144h136z" />
    <glyph glyph-name="iacute" unicode="&#xed;" 
d="M70 0v480h120v-480h-120zM71 564l99 144h136l-141 -144h-94z" />
    <glyph glyph-name="icircumflex" unicode="&#xee;" 
d="M70 0v480h120v-480h-120zM312 564h-114l-69 90l-69 -90h-112l115 144h135z" />
    <glyph glyph-name="idieresis" unicode="&#xef;" 
d="M70 0v480h120v-480h-120zM-50 636c0 19.333 7.33301 36.1699 22 50.5029s32.667 21.5 54 21.5c22 0 40.5 -6.83301 55.5 -20.5s22.5 -30.834 22.5 -51.501s-7.5 -37.834 -22.5 -51.501s-33.5 -20.5 -55.5 -20.5c-21.333 0 -39.333 7.16699 -54 21.5
s-22 31.166 -22 50.499zM156 636.004c0 19.333 7.33301 36.1699 22 50.5029s32.667 21.5 54 21.5c22 0 40.5 -6.83301 55.5 -20.5s22.5 -30.834 22.5 -51.501s-7.5 -37.834 -22.5 -51.501s-33.5 -20.5 -55.5 -20.5c-21.333 0 -39.333 7.16699 -54 21.5
s-22 31.166 -22 50.499z" />
    <glyph glyph-name="eth" unicode="&#xf0;" horiz-adv-x="610" 
d="M442 768l64 -56l-117 -54c118 -129.333 177 -256.333 177 -381c0 -86.667 -22 -155.667 -66 -207c-46.667 -54.667 -111.667 -82 -195 -82c-74 0 -136 23.5 -186 70.5s-75 107.5 -75 181.5s25 135 75 183c48 46 106.667 69 176 69c50 0 88 -12.667 114 -38l2 2
c-28 45.333 -70 96 -126 152l-3 3l-106 -49l-60 57l107 50l-77 65l100 58c18.667 -14.667 47 -39.667 85 -75zM305 96c42.667 0 77.335 14.667 104.002 44c24.667 27.333 37 60.666 37 99.999s-12.333 72.666 -37 99.999c-26.667 29.333 -61.334 44 -104.001 44
s-76.834 -14.167 -102.501 -42.5s-38.5 -62.166 -38.5 -101.499s12.667 -72.666 38 -99.999c26 -29.333 60.333 -44 103 -44z" />
    <glyph glyph-name="ntilde" unicode="&#xf1;" horiz-adv-x="574" 
d="M68 0l-0.000976562 480h114v-77h2c27.333 59.333 76.333 89 147 89c60 0 105.333 -19.333 136 -58c26 -32.667 39 -76.334 39 -131.001v-303h-120v243c0 94 -29.333 141 -88 141c-37.333 0 -65.666 -12.333 -84.999 -37c-16.667 -21.333 -25 -49.666 -25 -84.999v-262
h-120zM168.999 568h-66.001c14.667 84.667 52 127 112 127c20 0 46.833 -6.16699 80.5 -18.5s54.834 -18.5 63.501 -18.5c22 0 37.333 14 46 42h66c-14.667 -84.667 -52 -127 -112 -127c-20 0 -46.833 6.33301 -80.5 19s-54.834 19 -63.501 19
c-21.333 0 -36.666 -14.333 -45.999 -43z" />
    <glyph glyph-name="ograve" unicode="&#xf2;" horiz-adv-x="610" 
d="M44 240c0 74 25.333 135 76 183c49.333 46 111 69 185 69s135.667 -23 185 -69c50.667 -48 76 -109 76 -183s-25 -134.5 -75 -181.5s-112 -70.5 -186 -70.5s-136 23.5 -186 70.5s-75 107.5 -75 181.5zM164 240c0 -39.333 12.668 -72.666 38.001 -99.999
c26 -29.333 60.333 -44 103 -44s77.334 14.667 104.001 44c24.667 27.333 37 60.666 37 99.999s-12.333 72.666 -37 99.999c-26.667 29.333 -61.334 44 -104.001 44s-76.834 -14.167 -102.501 -42.5s-38.5 -62.166 -38.5 -101.499zM253.001 708l99 -144h-94l-141 144h136z
" />
    <glyph glyph-name="oacute" unicode="&#xf3;" horiz-adv-x="610" 
d="M44 240c0 74 25.333 135 76 183c49.333 46 111 69 185 69s135.667 -23 185 -69c50.667 -48 76 -109 76 -183s-25 -134.5 -75 -181.5s-112 -70.5 -186 -70.5s-136 23.5 -186 70.5s-75 107.5 -75 181.5zM164 240c0 -39.333 12.668 -72.666 38.001 -99.999
c26 -29.333 60.333 -44 103 -44s77.334 14.667 104.001 44c24.667 27.333 37 60.666 37 99.999s-12.333 72.666 -37 99.999c-26.667 29.333 -61.334 44 -104.001 44s-76.834 -14.167 -102.501 -42.5s-38.5 -62.166 -38.5 -101.499zM258.001 564l99 144h136l-141 -144h-94z
" />
    <glyph glyph-name="ocircumflex" unicode="&#xf4;" horiz-adv-x="610" 
d="M44 240c0 74 25.333 135 76 183c49.333 46 111 69 185 69s135.667 -23 185 -69c50.667 -48 76 -109 76 -183s-25 -134.5 -75 -181.5s-112 -70.5 -186 -70.5s-136 23.5 -186 70.5s-75 107.5 -75 181.5zM164 240c0 -39.333 12.668 -72.666 38.001 -99.999
c26 -29.333 60.333 -44 103 -44s77.334 14.667 104.001 44c24.667 27.333 37 60.666 37 99.999s-12.333 72.666 -37 99.999c-26.667 29.333 -61.334 44 -104.001 44s-76.834 -14.167 -102.501 -42.5s-38.5 -62.166 -38.5 -101.499zM487.001 564h-114l-69 90l-69 -90h-112
l115 144h135z" />
    <glyph glyph-name="otilde" unicode="&#xf5;" horiz-adv-x="610" 
d="M44 240c0 74 25.333 135 76 183c49.333 46 111 69 185 69s135.667 -23 185 -69c50.667 -48 76 -109 76 -183s-25 -134.5 -75 -181.5s-112 -70.5 -186 -70.5s-136 23.5 -186 70.5s-75 107.5 -75 181.5zM164 240c0 -39.333 12.668 -72.666 38.001 -99.999
c26 -29.333 60.333 -44 103 -44s77.334 14.667 104.001 44c24.667 27.333 37 60.666 37 99.999s-12.333 72.666 -37 99.999c-26.667 29.333 -61.334 44 -104.001 44s-76.834 -14.167 -102.501 -42.5s-38.5 -62.166 -38.5 -101.499zM187.001 568h-66.001
c14.667 84.667 52 127 112 127c20 0 46.833 -6.16699 80.5 -18.5s54.834 -18.5 63.501 -18.5c22 0 37.333 14 46 42h66c-14.667 -84.667 -52 -127 -112 -127c-20 0 -46.833 6.33301 -80.5 19s-54.834 19 -63.501 19c-21.333 0 -36.666 -14.333 -45.999 -43z" />
    <glyph glyph-name="odieresis" unicode="&#xf6;" horiz-adv-x="610" 
d="M44 240c0 74 25.333 135 76 183c49.333 46 111 69 185 69s135.667 -23 185 -69c50.667 -48 76 -109 76 -183s-25 -134.5 -75 -181.5s-112 -70.5 -186 -70.5s-136 23.5 -186 70.5s-75 107.5 -75 181.5zM164 240c0 -39.333 12.668 -72.666 38.001 -99.999
c26 -29.333 60.333 -44 103 -44s77.334 14.667 104.001 44c24.667 27.333 37 60.666 37 99.999s-12.333 72.666 -37 99.999c-26.667 29.333 -61.334 44 -104.001 44s-76.834 -14.167 -102.501 -42.5s-38.5 -62.166 -38.5 -101.499zM125.001 636
c0 19.333 7.33301 36.1699 22 50.5029s32.667 21.5 54 21.5c22 0 40.5 -6.83301 55.5 -20.5s22.5 -30.834 22.5 -51.501s-7.5 -37.834 -22.5 -51.501s-33.5 -20.5 -55.5 -20.5c-21.333 0 -39.333 7.16699 -54 21.5s-22 31.166 -22 50.499zM331.001 636.004
c0 19.333 7.33301 36.1699 22 50.5029s32.667 21.5 54 21.5c22 0 40.5 -6.83301 55.5 -20.5s22.5 -30.834 22.5 -51.501s-7.5 -37.834 -22.5 -51.501s-33.5 -20.5 -55.5 -20.5c-21.333 0 -39.333 7.16699 -54 21.5s-22 31.166 -22 50.499z" />
    <glyph glyph-name="divide" unicode="&#xf7;" horiz-adv-x="666" 
d="M62 354h542v-102h-542v102zM258 483c0 20.667 7.33301 38.334 22 53.001s32.334 22 53.001 22s38.334 -7.33301 53.001 -22s22 -32.334 22 -53.001s-7.33301 -38.334 -22 -53.001s-32.334 -22 -53.001 -22s-38.334 7.33301 -53.001 22s-22 32.334 -22 53.001zM258 123
c0 20.667 7.33301 38.334 22 53.001s32.334 22 53.001 22s38.334 -7.33301 53.001 -22s22 -32.334 22 -53.001s-7.33301 -38.334 -22 -53.001s-32.334 -22 -53.001 -22s-38.334 7.33301 -53.001 22s-22 32.334 -22 53.001z" />
    <glyph glyph-name="oslash" unicode="&#xf8;" horiz-adv-x="610" 
d="M187 160l197.001 199.999c-22.667 16 -49 24 -79 24c-42.667 0 -76.834 -14.167 -102.501 -42.5s-38.5 -62.166 -38.5 -101.499c0 -30 7.66699 -56.667 23 -80zM425.001 317.999l-198.001 -198.999c21.333 -15.333 47.333 -23 78 -23c42.667 0 77.334 14.667 104.001 44
c24.667 27.333 37 60.666 37 99.999c0 29.333 -7 55.333 -21 78zM537 514l42 -40.001l-70 -71c38 -45.333 57 -99.666 57 -162.999c0 -74 -25 -134.5 -75 -181.5s-112 -70.5 -186 -70.5c-60.667 0 -113.667 16.333 -159 49l-70 -71l-40 41l67 68
c-39.333 44.667 -59 99.667 -59 165c0 74 25.333 135 76 183c49.333 46 111 69 185 69c61.333 0 115 -16.667 161 -50z" />
    <glyph glyph-name="ugrave" unicode="&#xf9;" horiz-adv-x="574" 
d="M506 480l0.000976562 -480h-114v77h-2c-27.333 -59.333 -76.333 -89 -147 -89c-60 0 -105.333 19.333 -136 58c-26 32.667 -39 76.334 -39 131.001v303h120v-243c0 -94 29.333 -141 88 -141c37.333 0 65.666 12.333 84.999 37c16.667 21.333 25 49.666 25 84.999v262h120
zM235.001 708l99 -144h-94l-141 144h136z" />
    <glyph glyph-name="uacute" unicode="&#xfa;" horiz-adv-x="574" 
d="M506 480l0.000976562 -480h-114v77h-2c-27.333 -59.333 -76.333 -89 -147 -89c-60 0 -105.333 19.333 -136 58c-26 32.667 -39 76.334 -39 131.001v303h120v-243c0 -94 29.333 -141 88 -141c37.333 0 65.666 12.333 84.999 37c16.667 21.333 25 49.666 25 84.999v262h120
zM240.001 564l99 144h136l-141 -144h-94z" />
    <glyph glyph-name="ucircumflex" unicode="&#xfb;" horiz-adv-x="574" 
d="M506 480l0.000976562 -480h-114v77h-2c-27.333 -59.333 -76.333 -89 -147 -89c-60 0 -105.333 19.333 -136 58c-26 32.667 -39 76.334 -39 131.001v303h120v-243c0 -94 29.333 -141 88 -141c37.333 0 65.666 12.333 84.999 37c16.667 21.333 25 49.666 25 84.999v262h120
zM469.001 564h-114l-69 90l-69 -90h-112l115 144h135z" />
    <glyph glyph-name="udieresis" unicode="&#xfc;" horiz-adv-x="574" 
d="M506 480l0.000976562 -480h-114v77h-2c-27.333 -59.333 -76.333 -89 -147 -89c-60 0 -105.333 19.333 -136 58c-26 32.667 -39 76.334 -39 131.001v303h120v-243c0 -94 29.333 -141 88 -141c37.333 0 65.666 12.333 84.999 37c16.667 21.333 25 49.666 25 84.999v262h120
zM107.001 636c0 19.333 7.33301 36.1699 22 50.5029s32.667 21.5 54 21.5c22 0 40.5 -6.83301 55.5 -20.5s22.5 -30.834 22.5 -51.501s-7.5 -37.834 -22.5 -51.501s-33.5 -20.5 -55.5 -20.5c-21.333 0 -39.333 7.16699 -54 21.5s-22 31.166 -22 50.499zM313.001 636.004
c0 19.333 7.33301 36.1699 22 50.5029s32.667 21.5 54 21.5c22 0 40.5 -6.83301 55.5 -20.5s22.5 -30.834 22.5 -51.501s-7.5 -37.834 -22.5 -51.501s-33.5 -20.5 -55.5 -20.5c-21.333 0 -39.333 7.16699 -54 21.5s-22 31.166 -22 50.499z" />
    <glyph glyph-name="yacute" unicode="&#xfd;" horiz-adv-x="519" 
d="M208 -4l-204.999 484h132l134 -333h2l120 333h125l-227 -583c-18.667 -48 -40.334 -82 -65.001 -102c-28 -23.333 -67.333 -35 -118 -35c-31.333 0 -62 4 -92 12l15 108c22 -8 42.333 -12 61 -12c28 0 48.667 5.66699 62 17c11.333 9.33301 22.333 27.333 33 54z
M213.001 564l99 144h136l-141 -144h-94z" />
    <glyph glyph-name="thorn" unicode="&#xfe;" horiz-adv-x="630" 
d="M68 -228l-0.000976562 984.001h120v-338h2c30 49.333 83 74 159 74c72 0 130 -24.333 174 -73c42 -46.667 63 -106.334 63 -179.001c0 -72 -21.667 -132 -65 -180s-99 -72 -167 -72c-69.333 0 -123.666 24.333 -162.999 73h-3v-289h-120zM465.999 240.001
c0 39.333 -12.332 72.666 -36.999 99.999c-26.667 29.333 -61.334 44 -104.001 44s-76.834 -14.167 -102.501 -42.5s-38.5 -62.166 -38.5 -101.499s12.667 -72.666 38 -99.999c26 -29.333 60.333 -44 103 -44s77.334 14.667 104.001 44c24.667 27.333 37 60.666 37 99.999z
" />
    <glyph glyph-name="ydieresis" unicode="&#xff;" horiz-adv-x="519" 
d="M208 -4l-204.999 484h132l134 -333h2l120 333h125l-227 -583c-18.667 -48 -40.334 -82 -65.001 -102c-28 -23.333 -67.333 -35 -118 -35c-31.333 0 -62 4 -92 12l15 108c22 -8 42.333 -12 61 -12c28 0 48.667 5.66699 62 17c11.333 9.33301 22.333 27.333 33 54z
M80.001 636c0 19.333 7.33301 36.1699 22 50.5029s32.667 21.5 54 21.5c22 0 40.5 -6.83301 55.5 -20.5s22.5 -30.834 22.5 -51.501s-7.5 -37.834 -22.5 -51.501s-33.5 -20.5 -55.5 -20.5c-21.333 0 -39.333 7.16699 -54 21.5s-22 31.166 -22 50.499zM286.001 636.004
c0 19.333 7.33301 36.1699 22 50.5029s32.667 21.5 54 21.5c22 0 40.5 -6.83301 55.5 -20.5s22.5 -30.834 22.5 -51.501s-7.5 -37.834 -22.5 -51.501s-33.5 -20.5 -55.5 -20.5c-21.333 0 -39.333 7.16699 -54 21.5s-22 31.166 -22 50.499z" />
    <glyph glyph-name="dotlessi" unicode="&#x131;" 
d="M70 0v480h120v-480h-120z" />
    <glyph glyph-name="Lslash" unicode="&#x141;" horiz-adv-x="519" 
d="M79 0v187l-70 -62v110l70 62v411h126v-300l206 181v-109l-206 -182v-184h301v-114h-427z" />
    <glyph glyph-name="lslash" unicode="&#x142;" 
d="M70 0v273l-69 -69v109l69 69v374h120v-255l69 69v-107l-69 -68v-395h-120z" />
    <glyph glyph-name="OE" unicode="&#x152;" horiz-adv-x="1000" 
d="M645 594v-174h270v-114h-270v-192h305v-114h-497c-124 0 -223 34 -297 102c-70.667 65.333 -106 149.333 -106 252c0 104 35.333 188.333 106 253c73.333 67.333 172.333 101 297 101h480v-114h-288zM519 114v480h-63c-63.333 0 -119.333 -15.667 -168 -47
c-66.667 -42.667 -100 -107 -100 -193s33.333 -150.333 100 -193c48.667 -31.333 104.667 -47 168 -47h63z" />
    <glyph glyph-name="oe" unicode="&#x153;" horiz-adv-x="926" 
d="M890 204h-349.999c-1.33301 -34 11.334 -63 38.001 -87c24.667 -22 51 -33 79 -33c50 0 92.667 21.667 128 65l83 -59c-48.667 -68 -119 -102 -211 -102c-80 0 -139.333 25.667 -178 77c-46.667 -51.333 -107.334 -77 -182.001 -77c-74 0 -136 23.5 -186 70.5
s-75 107.5 -75 181.5s25.333 135 76 183c49.333 46 111 69 185 69c75.333 0 136.666 -26 183.999 -78c42 52 101.333 78 178 78c74.667 0 132.667 -25 174 -75c38 -45.333 57 -105.333 57 -180v-33zM536.001 288l234 -0.00195312
c-0.666992 34.667 -11.167 62.334 -31.5 83.001s-46.833 31 -79.5 31c-31.333 0 -58.666 -9.66699 -81.999 -29c-26.667 -21.333 -40.334 -49.666 -41.001 -84.999zM156.001 239.998c0 -42 12.668 -77 38.001 -105c26 -30 60.333 -45 103 -45c43.333 0 78.333 15 105 45
c25.333 28 38 63 38 105s-13 77.5 -39 106.5s-60.667 43.5 -104 43.5c-42.667 0 -76.834 -14.5 -102.501 -43.5s-38.5 -64.5 -38.5 -106.5z" />
    <glyph glyph-name="Scaron" unicode="&#x160;" horiz-adv-x="574" 
d="M518 653l-92.001 -97c-26.667 37.333 -68 56 -124 56c-32 0 -58.667 -7 -80 -21c-24 -16 -36 -39.333 -36 -70c0 -37.333 29 -66.666 87 -87.999c98.667 -36.667 152.667 -57.667 162 -63c58 -36 87 -90 87 -162c0 -72.667 -25.667 -129.334 -77 -170.001
c-47.333 -37.333 -108 -56 -182 -56c-100.667 0 -178 32 -232 96l95 92c32.667 -49.333 79.334 -74 140.001 -74c32 0 60 8 84 24c26.667 18 40 42.333 40 73c0 41.333 -29 73 -87 95c-106 40.667 -160 61.667 -162 63c-58 35.333 -87 89 -87 161
c0 68.667 27 122.667 81 162c48.667 34.667 108.667 52 180 52c84 0 151.667 -24.333 203 -73zM105.999 900h114l69 -90l69 90h110l-115 -144h-133z" />
    <glyph glyph-name="scaron" unicode="&#x161;" horiz-adv-x="444" 
d="M404 419l-80 -72c-23.333 32.667 -54.666 49 -93.999 49c-18 0 -33.667 -4 -47 -12c-15.333 -9.33301 -23 -22.333 -23 -39c0 -22 22.333 -38.333 67 -49c67.333 -16.667 109 -29 125 -37c44.667 -24 67 -63 67 -117c0 -52.667 -22.333 -92.667 -67 -120
c-37.333 -22.667 -84 -34 -140 -34c-80.667 0 -143 24.667 -187 74l80 75c36 -39.333 74 -59 114 -59c20 0 37.667 4.33301 53 13c18 10.667 27 24.667 27 42c0 26 -22.333 44.667 -67 56c-74 19.333 -115.667 31.333 -125 36c-44.667 22 -67 59.333 -67 112
c0 50 20 89.333 60 118c35.333 24.667 79.666 37 132.999 37c78 0 135 -24.333 171 -73zM41 708h114l69 -90l69 90h110l-115 -144h-133z" />
    <glyph glyph-name="Ydieresis" unicode="&#x178;" horiz-adv-x="630" 
d="M252 0v303l-266 405h158l174 -282l176 282h150l-266 -405v-303h-126zM135 828c0 19.333 7.33301 36.1699 22 50.5029s32.667 21.5 54 21.5c22 0 40.5 -6.83301 55.5 -20.5s22.5 -30.834 22.5 -51.501s-7.5 -37.834 -22.5 -51.501s-33.5 -20.5 -55.5 -20.5
c-21.333 0 -39.333 7.16699 -54 21.5s-22 31.166 -22 50.499zM341 828.004c0 19.333 7.33301 36.1699 22 50.5029s32.667 21.5 54 21.5c22 0 40.5 -6.83301 55.5 -20.5s22.5 -30.834 22.5 -51.501s-7.5 -37.834 -22.5 -51.501s-33.5 -20.5 -55.5 -20.5
c-21.333 0 -39.333 7.16699 -54 21.5s-22 31.166 -22 50.499z" />
    <glyph glyph-name="Zcaron" unicode="&#x17d;" horiz-adv-x="611" 
d="M35 0v114l378 480h-372v114h529v-114l-381 -480h387v-114h-541zM125 900h114l69 -90l69 90h110l-115 -144h-133z" />
    <glyph glyph-name="zcaron" unicode="&#x17e;" horiz-adv-x="482" 
d="M34 0v111l257 273h-245v96h390v-109l-260 -275h272v-96h-414zM60 708h114l69 -90l69 90h110l-115 -144h-133z" />
    <glyph glyph-name="florin" unicode="&#x192;" horiz-adv-x="592" 
d="M480 426v-90h-138l-57 -288c-24.667 -124.667 -87 -187 -187 -187c-36.667 0 -70.667 8 -102 24l45 92c13.333 -9.33301 29 -14 47 -14c24 0 42.333 9.66699 55 29c10 15.333 18.333 40.333 25 75l53 269h-113v90h131l22 111c24 122 84 183 180 183
c40 0 79 -10.333 117 -31l-46 -93c-18 10.667 -36.333 16 -55 16c-26 0 -45.667 -11 -59 -33c-8 -13.333 -15.333 -36.333 -22 -69l-18 -84h122z" />
    <glyph glyph-name="circumflex" unicode="&#x2c6;" 
d="M312 564h-114l-69 90l-69 -90h-112l115 144h135z" />
    <glyph glyph-name="caron" unicode="&#x2c7;" 
d="M-51 708h114l69 -90l69 90h110l-115 -144h-133z" />
    <glyph glyph-name="breve" unicode="&#x2d8;" 
d="M-40 708l66.999 0.000976562c8 -44 42.333 -66 103 -66c30 0 52 3.66699 66 11c18.667 9.33301 31.334 27.666 38.001 54.999h66c-10 -96 -67 -144 -171 -144c-106.667 0 -163 48 -169 144z" />
    <glyph glyph-name="dotaccent" unicode="&#x2d9;" 
d="M53 636c0 19.333 7.33301 36.1699 22 50.5029s32.667 21.5 54 21.5c22 0 40.5 -6.83301 55.5 -20.5s22.5 -30.834 22.5 -51.501s-7.5 -37.834 -22.5 -51.501s-33.5 -20.5 -55.5 -20.5c-21.333 0 -39.333 7.16699 -54 21.5s-22 31.166 -22 50.499z" />
    <glyph glyph-name="ring" unicode="&#x2da;" 
d="M235 655c0 -29.333 -10.001 -53.668 -30.001 -73.001s-45 -29 -75 -29c-29.333 0 -54.166 9.66699 -74.499 29s-30.5 43.333 -30.5 72c0 29.333 10 53.833 30 73.5s45 29.5 75 29.5s55 -9.66699 75 -29s30 -43.666 30 -72.999zM186.999 654.998
c0 15.333 -5.66699 28.166 -17 38.499s-24.666 15.5 -39.999 15.5s-28.666 -5.16699 -39.999 -15.5s-17 -23.166 -17 -38.499s5.66699 -28.166 17 -38.499s24.666 -15.5 39.999 -15.5s28.666 5.16699 39.999 15.5s17 23.166 17 38.499z" />
    <glyph glyph-name="ogonek" unicode="&#x2db;" 
d="M177 -147l25 -48.999c-32 -25.333 -65.333 -38 -100 -38c-28 0 -51.667 7.66699 -71 23c-21.333 16.667 -32 38.667 -32 66c0 49.333 33.333 99.666 100 150.999h61c-55.333 -48 -83 -90.667 -83 -128c0 -12.667 4.5 -23.5 13.5 -32.5s19.833 -13.5 32.5 -13.5
c20 0 38 7 54 21z" />
    <glyph glyph-name="tilde" unicode="&#x2dc;" 
d="M12 568h-66.001c14.667 84.667 52 127 112 127c20 0 46.833 -6.16699 80.5 -18.5s54.834 -18.5 63.501 -18.5c22 0 37.333 14 46 42h66c-14.667 -84.667 -52 -127 -112 -127c-20 0 -46.833 6.33301 -80.5 19s-54.834 19 -63.501 19
c-21.333 0 -36.666 -14.333 -45.999 -43z" />
    <glyph glyph-name="hungarumlaut" unicode="&#x2dd;" 
d="M-20 564l99 144h136l-141 -144h-94zM185 564l99 144h136l-141 -144h-94z" />
    <glyph glyph-name="endash" unicode="&#x2013;" horiz-adv-x="500" 
d="M500 294v-96h-500v96h500z" />
    <glyph glyph-name="emdash" unicode="&#x2014;" horiz-adv-x="1000" 
d="M1000 294v-96h-1000v96h1000z" />
    <glyph glyph-name="quoteleft" unicode="&#x2018;" horiz-adv-x="296" 
d="M244 708l-70 -264h-122l85 264h107z" />
    <glyph glyph-name="quoteright" unicode="&#x2019;" horiz-adv-x="296" 
d="M52 444l70 264h122l-85 -264h-107z" />
    <glyph glyph-name="quotesinglbase" unicode="&#x201a;" horiz-adv-x="296" 
d="M52 -126l70 264h122l-85 -264h-107z" />
    <glyph glyph-name="quotedblleft" unicode="&#x201c;" horiz-adv-x="519" 
d="M250 708l-70 -264h-122l85 264h107zM461 708l-70 -264h-122l85 264h107z" />
    <glyph glyph-name="quotedblright" unicode="&#x201d;" horiz-adv-x="519" 
d="M269 444l70 264h122l-85 -264h-107zM58 444l70 264h122l-85 -264h-107z" />
    <glyph glyph-name="quotedblbase" unicode="&#x201e;" horiz-adv-x="519" 
d="M268 -126l70 264h122l-85 -264h-107zM59 -126l70 264h122l-85 -264h-107z" />
    <glyph glyph-name="dagger" unicode="&#x2020;" horiz-adv-x="593" 
d="M353 708v-203h199v-96h-199v-535h-114v535h-198v96h198v203h114z" />
    <glyph glyph-name="daggerdbl" unicode="&#x2021;" horiz-adv-x="593" 
d="M353 708v-185h193v-96h-193v-271h193v-96h-193v-186h-114v186h-192v96h192v271h-192v96h192v185h114z" />
    <glyph glyph-name="bullet" unicode="&#x2022;" horiz-adv-x="500" 
d="M73 354c0 49.333 17.333 91.166 52 125.499s76.334 51.5 125.001 51.5c49.333 0 91.166 -17.167 125.499 -51.5s51.5 -76.166 51.5 -125.499c0 -48.667 -17.167 -90.334 -51.5 -125.001s-76.166 -52 -125.499 -52c-48.667 0 -90.334 17.333 -125.001 52
s-52 76.334 -52 125.001z" />
    <glyph glyph-name="ellipsis" unicode="&#x2026;" horiz-adv-x="1000" 
d="M87 70c0 21.333 7.83301 39.666 23.5 54.999s34.5 23 56.5 23s40.833 -7.33301 56.5 -22s23.5 -32.667 23.5 -54s-7.83301 -39.666 -23.5 -54.999s-34.5 -23 -56.5 -23c-21.333 0 -40 7.33301 -56 22s-24 32.667 -24 54zM420 70c0 21.333 7.83301 39.666 23.5 54.999
s34.5 23 56.5 23s40.833 -7.33301 56.5 -22s23.5 -32.667 23.5 -54s-7.83301 -39.666 -23.5 -54.999s-34.5 -23 -56.5 -23c-21.333 0 -40 7.33301 -56 22s-24 32.667 -24 54zM753 70c0 21.333 7.83301 39.666 23.5 54.999s34.5 23 56.5 23s40.833 -7.33301 56.5 -22
s23.5 -32.667 23.5 -54s-7.83301 -39.666 -23.5 -54.999s-34.5 -23 -56.5 -23c-21.333 0 -40 7.33301 -56 22s-24 32.667 -24 54z" />
    <glyph glyph-name="perthousand" unicode="&#x2030;" horiz-adv-x="1167" 
d="M411 165c0 48.667 17.167 90.167 51.5 124.5s75.833 51.5 124.5 51.5s90.334 -17.167 125.001 -51.5s52 -75.833 52 -124.5s-17.333 -90.334 -52 -125.001s-76.334 -52 -125.001 -52s-90.167 17.333 -124.5 52s-51.5 76.334 -51.5 125.001zM807 165
c0 48.667 17.167 90.167 51.5 124.5s75.833 51.5 124.5 51.5s90.334 -17.167 125.001 -51.5s52 -75.833 52 -124.5s-17.333 -90.334 -52 -125.001s-76.334 -52 -125.001 -52s-90.167 17.333 -124.5 52s-51.5 76.334 -51.5 125.001zM7 544c0 48.667 17.167 90.167 51.5 124.5
s75.833 51.5 124.5 51.5s90.334 -17.167 125.001 -51.5s52 -75.833 52 -124.5s-17.333 -90.334 -52 -125.001s-76.334 -52 -125.001 -52s-90.167 17.333 -124.5 52s-51.5 76.334 -51.5 125.001zM97 544c0 -25.333 8.16699 -46.168 24.5 -62.501s36.833 -24.5 61.5 -24.5
c25.333 0 46.166 8.33301 62.499 25s24.5 37.334 24.5 62.001s-8.16699 45.167 -24.5 61.5s-37.166 24.5 -62.499 24.5c-24.667 0 -45.167 -8 -61.5 -24s-24.5 -36.667 -24.5 -62zM501 164.998c0 -25.333 8.16699 -46.168 24.5 -62.501s36.833 -24.5 61.5 -24.5
c25.333 0 46.166 8.33301 62.499 25s24.5 37.334 24.5 62.001s-8.16699 45.167 -24.5 61.5s-37.166 24.5 -62.499 24.5c-24.667 0 -45.167 -8 -61.5 -24s-24.5 -36.667 -24.5 -62zM897 164.996c0 -25.333 8.16699 -46.168 24.5 -62.501s36.833 -24.5 61.5 -24.5
c25.333 0 46.166 8.33301 62.499 25s24.5 37.334 24.5 62.001s-8.16699 45.167 -24.5 61.5s-37.166 24.5 -62.499 24.5c-24.667 0 -45.167 -8 -61.5 -24s-24.5 -36.667 -24.5 -62zM134 5.99414l416 734l83 -38l-416 -734z" />
    <glyph glyph-name="guilsinglleft" unicode="&#x2039;" horiz-adv-x="296" 
d="M257 421l-115 -173l116 -175l-76 -51l-152 226l152 224z" />
    <glyph glyph-name="guilsinglright" unicode="&#x203a;" horiz-adv-x="296" 
d="M39 73l115 173l-116 175l76 51l152 -226l-152 -224z" />
    <glyph glyph-name="fraction" unicode="&#x2044;" horiz-adv-x="167" 
d="M-166 6l416 734l83 -38l-416 -734z" />
    <glyph glyph-name="trademark" unicode="&#x2122;" horiz-adv-x="1000" 
d="M162 296v322h-122v90h346v-90h-122v-322h-102zM480 296v412h142l98 -268l98 268h142v-412h-102v268h-2l-101 -268h-70l-101 268h-2v-268h-102z" />
    <glyph glyph-name="fi" unicode="&#xf001;" horiz-adv-x="593" 
d="M111 0l0.00195312 378h-99v102h99v68c0 73.333 11.333 126.666 34 159.999c27.333 40 75.666 60 144.999 60c27.333 0 52.666 -2.33301 75.999 -7l-8 -102c-20 4.66699 -36.667 7 -50 7c-30.667 0 -51.667 -9.66699 -63 -29c-9.33301 -15.333 -14 -38.666 -14 -69.999
v-87h111v-102h-111v-378h-120zM420.002 0v480h120v-480h-120zM404.002 643c0 19.333 7.33301 36.1699 22 50.5029s32.667 21.5 54 21.5c22 0 40.5 -6.83301 55.5 -20.5s22.5 -30.834 22.5 -51.501s-7.5 -37.834 -22.5 -51.501s-33.5 -20.5 -55.5 -20.5
c-21.333 0 -39.333 7.16699 -54 21.5s-22 31.166 -22 50.499z" />
    <glyph glyph-name="fl" unicode="&#xf002;" horiz-adv-x="593" 
d="M111 0l0.00195312 378h-99v102h99v68c0 73.333 11.333 126.666 34 159.999c27.333 40 75.666 60 144.999 60c27.333 0 52.666 -2.33301 75.999 -7l-8 -102c-20 4.66699 -36.667 7 -50 7c-30.667 0 -51.667 -9.66699 -63 -29c-9.33301 -15.333 -14 -38.666 -14 -69.999
v-87h111v-102h-111v-378h-120zM420.002 0v756h120v-756h-120z" />
    <glyph glyph-name=".null" horiz-adv-x="0" 
 />
    <glyph glyph-name="nonmarkingreturn" horiz-adv-x="296" 
 />
    <glyph glyph-name="glyph217" horiz-adv-x="296" 
 />
    </font>
</defs>
</svg>
